<svg xmlns="http://www.w3.org/2000/svg" viewBox="0 0 512 512" stroke-linecap="round" stroke-linejoin="round">
  <!-- Brochure Trifold - tri-fold paper with fold lines -->
  <!-- Full brochure body -->
  <rect x="56" y="128" width="400" height="256" rx="8" fill="#FFFFFF" stroke="#1A1B20" stroke-width="8"/>
  <!-- Fold lines -->
  <line x1="189" y1="128" x2="189" y2="384" stroke="#1A1B20" stroke-width="4" stroke-dasharray="12,8"/>
  <line x1="323" y1="128" x2="323" y2="384" stroke="#1A1B20" stroke-width="4" stroke-dasharray="12,8"/>
  <!-- Panel 1 content -->
  <rect x="80" y="160" width="86" height="48" rx="8" fill="#FCB53F" stroke="#1A1B20" stroke-width="6"/>
  <rect x="80" y="224" width="86" height="8" rx="4" fill="#A87C66" stroke="none"/>
  <rect x="80" y="242" width="72" height="8" rx="4" fill="#A87C66" stroke="none"/>
  <rect x="80" y="260" width="80" height="8" rx="4" fill="#A87C66" stroke="none"/>
  <!-- Panel 2 content (center) -->
  <circle cx="256" cy="200" r="28" fill="#79C143" stroke="#1A1B20" stroke-width="6"/>
  <rect x="220" y="248" width="72" height="8" rx="4" fill="#A87C66" stroke="none"/>
  <rect x="224" y="266" width="64" height="8" rx="4" fill="#A87C66" stroke="none"/>
  <rect x="220" y="284" width="72" height="8" rx="4" fill="#A87C66" stroke="none"/>
  <!-- Panel 3 content -->
  <rect x="346" y="160" width="86" height="48" rx="8" fill="#FCB53F" stroke="#1A1B20" stroke-width="6"/>
  <rect x="346" y="224" width="86" height="8" rx="4" fill="#A87C66" stroke="none"/>
  <rect x="346" y="242" width="72" height="8" rx="4" fill="#A87C66" stroke="none"/>
  <rect x="346" y="260" width="80" height="8" rx="4" fill="#A87C66" stroke="none"/>
  <!-- Fold arrows -->
  <path d="M180 400 L180 416 L198 408 Z" fill="#1A1B20" stroke="none"/>
  <path d="M332 400 L332 416 L314 408 Z" fill="#1A1B20" stroke="none"/>
</svg>