<svg xmlns="http://www.w3.org/2000/svg" viewBox="0 0 512 512" stroke-linecap="round" stroke-linejoin="round">
  <!-- Invoice Forms NCF - Form pad stacked, "NCF" header -->
  <!-- Pad backing -->
  <rect x="100" y="68" width="312" height="400" rx="8" fill="#C48D65" stroke="#000000" stroke-width="8"/>
  <!-- Top page (slightly offset) -->
  <rect x="108" y="56" width="296" height="388" rx="8" fill="#FFFFFF" stroke="#000000" stroke-width="8"/>
  <!-- NCF Header bar -->
  <rect x="108" y="56" width="296" height="52" rx="8" fill="#FCB53F" stroke="#000000" stroke-width="8"/>
  <rect x="108" y="92" width="296" height="16" rx="0" fill="#FCB53F" stroke="none"/>
  <text x="256" y="92" font-family="Arial, sans-serif" font-size="28" font-weight="bold" fill="#000000" stroke="none" text-anchor="middle">NCF</text>
  <!-- Form lines -->
  <rect x="136" y="132" width="200" height="12" rx="6" fill="#C48D65" stroke="none"/>
  <line x1="136" y1="172" x2="376" y2="172" stroke="#000000" stroke-width="4"/>
  <line x1="136" y1="204" x2="376" y2="204" stroke="#000000" stroke-width="4"/>
  <line x1="136" y1="236" x2="376" y2="236" stroke="#000000" stroke-width="4"/>
  <line x1="136" y1="268" x2="376" y2="268" stroke="#000000" stroke-width="4"/>
  <!-- Table area -->
  <rect x="136" y="296" width="240" height="100" rx="8" fill="#FFFFFF" stroke="#000000" stroke-width="6"/>
  <line x1="136" y1="324" x2="376" y2="324" stroke="#000000" stroke-width="3"/>
  <line x1="136" y1="352" x2="376" y2="352" stroke="#000000" stroke-width="3"/>
  <line x1="136" y1="380" x2="376" y2="380" stroke="#000000" stroke-width="3"/>
  <!-- Total box -->
  <rect x="296" y="408" width="80" height="28" rx="6" fill="#A6CE39" stroke="#000000" stroke-width="6"/>
  <!-- RCP signature: compact 2-by-3 gold dot matrix -->
  <g class="rcp-dot-matrix" aria-hidden="true" fill="#FCB53F">
    <circle cx="430" cy="46" r="6"/><circle cx="450" cy="46" r="6"/><circle cx="470" cy="46" r="6"/>
    <circle cx="430" cy="66" r="6"/><circle cx="450" cy="66" r="6"/><circle cx="470" cy="66" r="6"/>
  </g></svg>