<svg xmlns="http://www.w3.org/2000/svg" viewBox="0 0 512 512" stroke-linecap="round" stroke-linejoin="round">
  <!-- Corporate Stamps - Circular stamp impression + stamp body -->
  <!-- Stamp impression (circle) -->
  <circle cx="196" cy="340" r="80" fill="none" stroke="#A6CE39" stroke-width="8"/>
  <circle cx="196" cy="340" r="60" fill="none" stroke="#A6CE39" stroke-width="4"/>
  <!-- Star in center of impression -->
  <polygon points="196,300 206,324 232,324 212,340 220,364 196,348 172,364 180,340 160,324 186,324" fill="#A6CE39" stroke="none"/>
  <!-- Text around impression -->
  <rect x="148" y="372" width="96" height="10" rx="5" fill="#A6CE39" stroke="none"/>
  <!-- Stamp body -->
  <rect x="300" y="120" width="140" height="60" rx="8" fill="#C48D65" stroke="#000000" stroke-width="8"/>
  <!-- Stamp grip -->
  <rect x="340" y="84" width="60" height="44" rx="12" fill="#FCB53F" stroke="#000000" stroke-width="8"/>
  <!-- Stamp rubber bottom -->
  <rect x="300" y="172" width="140" height="20" rx="4" fill="#000000" stroke="#000000" stroke-width="6"/>
  <!-- Motion lines (stamping action) -->
  <line x1="320" y1="216" x2="320" y2="248" stroke="#000000" stroke-width="4"/>
  <line x1="370" y1="216" x2="370" y2="256" stroke="#000000" stroke-width="4"/>
  <line x1="420" y1="216" x2="420" y2="248" stroke="#000000" stroke-width="4"/>
  <!-- RCP signature: compact 2-by-3 gold dot matrix -->
  <g class="rcp-dot-matrix" aria-hidden="true" fill="#FCB53F">
    <circle cx="430" cy="46" r="6"/><circle cx="450" cy="46" r="6"/><circle cx="470" cy="46" r="6"/>
    <circle cx="430" cy="66" r="6"/><circle cx="450" cy="66" r="6"/><circle cx="470" cy="66" r="6"/>
  </g></svg>