<svg xmlns="http://www.w3.org/2000/svg" viewBox="0 0 512 512" stroke-linecap="round" stroke-linejoin="round">
  <!-- Lanyard + ID - Strap coming down to card hanging -->
  <!-- Lanyard strap -->
  <path d="M180 32 L180 64 C180 100 200 120 220 140 L240 160 L240 200" fill="none" stroke="#79C143" stroke-width="12"/>
  <path d="M332 32 L332 64 C332 100 312 120 292 140 L272 160 L272 200" fill="none" stroke="#79C143" stroke-width="12"/>
  <!-- Lanyard clip -->
  <rect x="236" y="196" width="40" height="20" rx="4" fill="#1A1B20" stroke="#1A1B20" stroke-width="6"/>
  <!-- ID Card -->
  <rect x="176" y="224" width="160" height="224" rx="16" fill="#FFFFFF" stroke="#1A1B20" stroke-width="8"/>
  <!-- Photo area -->
  <circle cx="256" cy="300" r="40" fill="#FAB839" stroke="#1A1B20" stroke-width="6"/>
  <!-- Person silhouette -->
  <circle cx="256" cy="288" r="16" fill="#A87C66" stroke="#1A1B20" stroke-width="4"/>
  <path d="M232 320 C232 308 244 304 256 304 C268 304 280 308 280 320" fill="#A87C66" stroke="#1A1B20" stroke-width="4"/>
  <!-- Name line -->
  <rect x="208" y="360" width="96" height="14" rx="7" fill="#1A1B20" stroke="none"/>
  <!-- Title line -->
  <rect x="216" y="384" width="80" height="10" rx="5" fill="#A87C66" stroke="none"/>
  <!-- Company bar -->
  <rect x="196" y="412" width="120" height="20" rx="10" fill="#79C143" stroke="#1A1B20" stroke-width="4"/>
  <!-- Card hole -->
  <circle cx="256" cy="240" r="8" fill="#1A1B20" stroke="none"/>
</svg>