<svg xmlns="http://www.w3.org/2000/svg" viewBox="0 0 512 512" stroke-linecap="round" stroke-linejoin="round">
  <!-- Corporate Rebranding - Old faded circle → arrow → new bold circle with star -->
  <!-- Old faded circle -->
  <circle cx="128" cy="256" r="72" fill="#FFFFFF" stroke="#C48D65" stroke-width="8" stroke-dasharray="12,8"/>
  <!-- Old circle inner (faded look) -->
  <circle cx="128" cy="256" r="36" fill="#C48D65" stroke="#C48D65" stroke-width="4" opacity="0.6"/>
  <!-- Arrow -->
  <line x1="220" y1="256" x2="312" y2="256" stroke="#000000" stroke-width="10"/>
  <polyline points="288,232 316,256 288,280" fill="none" stroke="#000000" stroke-width="10"/>
  <!-- New bold circle -->
  <circle cx="392" cy="256" r="80" fill="#FCB53F" stroke="#000000" stroke-width="8"/>
  <!-- Star inside new circle -->
  <polygon points="392,196 406,232 444,232 414,256 424,292 392,272 360,292 370,256 340,232 378,232" fill="#A6CE39" stroke="#000000" stroke-width="6"/>
  <!-- Sparkle effects -->
  <line x1="360" y1="152" x2="356" y2="168" stroke="#A6CE39" stroke-width="6"/>
  <line x1="424" y1="156" x2="428" y2="172" stroke="#A6CE39" stroke-width="6"/>
  <line x1="448" y1="196" x2="460" y2="200" stroke="#A6CE39" stroke-width="6"/>
  <!-- RCP signature: compact 2-by-3 gold dot matrix -->
  <g class="rcp-dot-matrix" aria-hidden="true" fill="#FCB53F">
    <circle cx="430" cy="46" r="6"/><circle cx="450" cy="46" r="6"/><circle cx="470" cy="46" r="6"/>
    <circle cx="430" cy="66" r="6"/><circle cx="450" cy="66" r="6"/><circle cx="470" cy="66" r="6"/>
  </g></svg>