<svg xmlns="http://www.w3.org/2000/svg" viewBox="0 0 512 512" fill="none" stroke-linecap="round" stroke-linejoin="round">
  <!-- CRM - Funnel with contacts -->
  <path d="M112 96 L400 96 L320 240 L320 400 L192 400 L192 240 Z" fill="#FCB53F" stroke="#000000" stroke-width="8"/>
  <circle cx="180" cy="144" r="20" fill="#FFFFFF" stroke="#000000" stroke-width="6"/>
  <circle cx="236" cy="144" r="20" fill="#A6CE39" stroke="#000000" stroke-width="6"/>
  <circle cx="292" cy="144" r="20" fill="#C48D65" stroke="#000000" stroke-width="6"/>
  <circle cx="348" cy="144" r="20" fill="#FFFFFF" stroke="#000000" stroke-width="6"/>
  <circle cx="220" cy="200" r="16" fill="#FFFFFF" stroke="#000000" stroke-width="5"/>
  <circle cx="280" cy="200" r="16" fill="#A6CE39" stroke="#000000" stroke-width="5"/>
  <circle cx="256" cy="340" r="28" fill="#A6CE39" stroke="#000000" stroke-width="8"/>
  <path d="M244 340 L252 348 L268 332" stroke="#FFFFFF" stroke-width="6" fill="none"/>
  <rect x="192" y="400" width="128" height="32" rx="16" fill="#000000"/>
  <!-- RCP signature: compact 2-by-3 gold dot matrix -->
  <g class="rcp-dot-matrix" aria-hidden="true" fill="#FCB53F">
    <circle cx="430" cy="46" r="6"/><circle cx="450" cy="46" r="6"/><circle cx="470" cy="46" r="6"/>
    <circle cx="430" cy="66" r="6"/><circle cx="450" cy="66" r="6"/><circle cx="470" cy="66" r="6"/>
  </g></svg>