<svg xmlns="http://www.w3.org/2000/svg" viewBox="0 0 512 512" fill="none" stroke-linecap="round" stroke-linejoin="round">
  <!-- Reservas Online - Calendar -->
  <rect x="88" y="96" width="336" height="320" rx="28" fill="#FFFFFF" stroke="#1A1B20" stroke-width="8"/>
  <rect x="88" y="96" width="336" height="80" rx="28" fill="#FCB53F" stroke="#1A1B20" stroke-width="8"/>
  <rect x="88" y="148" width="336" height="28" fill="#FCB53F"/>
  <rect x="168" y="72" width="20" height="56" rx="10" fill="#1A1B20"/>
  <rect x="256" y="72" width="20" height="56" rx="10" fill="#1A1B20"/>
  <rect x="344" y="72" width="20" height="56" rx="10" fill="#1A1B20"/>
  <rect x="116" y="200" width="60" height="48" rx="12" fill="#FFFFFF" stroke="#1A1B20" stroke-width="4"/>
  <rect x="192" y="200" width="60" height="48" rx="12" fill="#FFFFFF" stroke="#1A1B20" stroke-width="4"/>
  <rect x="268" y="200" width="60" height="48" rx="12" fill="#79C143" stroke="#1A1B20" stroke-width="6"/>
  <rect x="344" y="200" width="60" height="48" rx="12" fill="#FFFFFF" stroke="#1A1B20" stroke-width="4"/>
  <rect x="116" y="268" width="60" height="48" rx="12" fill="#FFFFFF" stroke="#1A1B20" stroke-width="4"/>
  <rect x="192" y="268" width="60" height="48" rx="12" fill="#A87C66" stroke="#1A1B20" stroke-width="4"/>
  <rect x="268" y="268" width="60" height="48" rx="12" fill="#FFFFFF" stroke="#1A1B20" stroke-width="4"/>
  <rect x="344" y="268" width="60" height="48" rx="12" fill="#FFFFFF" stroke="#1A1B20" stroke-width="4"/>
  <rect x="116" y="336" width="60" height="48" rx="12" fill="#FFFFFF" stroke="#1A1B20" stroke-width="4"/>
  <rect x="192" y="336" width="60" height="48" rx="12" fill="#FFFFFF" stroke="#1A1B20" stroke-width="4"/>
  <path d="M280 216 L292 228 L308 208" stroke="#FFFFFF" stroke-width="6" fill="none"/>
</svg>