<svg xmlns="http://www.w3.org/2000/svg" viewBox="0 0 512 512" fill="none" stroke-linecap="round" stroke-linejoin="round">
  <!-- POS System - Cash Register -->
  <rect x="96" y="128" width="320" height="224" rx="32" fill="#FCB53F" stroke="#000000" stroke-width="8"/>
  <rect x="128" y="160" width="192" height="112" rx="16" fill="#FFFFFF" stroke="#000000" stroke-width="8"/>
  <text x="172" y="230" font-family="sans-serif" font-size="48" fill="#000000" font-weight="900">$480</text>
  <rect x="128" y="288" width="56" height="40" rx="10" fill="#A6CE39" stroke="#000000" stroke-width="6"/>
  <rect x="196" y="288" width="56" height="40" rx="10" fill="#A6CE39" stroke="#000000" stroke-width="6"/>
  <rect x="264" y="288" width="56" height="40" rx="10" fill="#A6CE39" stroke="#000000" stroke-width="6"/>
  <rect x="336" y="160" width="56" height="168" rx="12" fill="#C48D65" stroke="#000000" stroke-width="6"/>
  <rect x="160" y="368" width="192" height="24" rx="12" fill="#000000"/>
  <circle cx="400" cy="112" r="40" fill="#A6CE39" stroke="#000000" stroke-width="8"/>
  <text x="384" y="124" font-family="sans-serif" font-size="36" fill="#FFFFFF" font-weight="900">$</text>
  <!-- RCP signature: compact 2-by-3 gold dot matrix -->
  <g class="rcp-dot-matrix" aria-hidden="true" fill="#FCB53F">
    <circle cx="430" cy="46" r="6"/><circle cx="450" cy="46" r="6"/><circle cx="470" cy="46" r="6"/>
    <circle cx="430" cy="66" r="6"/><circle cx="450" cy="66" r="6"/><circle cx="470" cy="66" r="6"/>
  </g></svg>