<svg xmlns="http://www.w3.org/2000/svg" viewBox="0 0 512 512" fill="none" stroke-linecap="round" stroke-linejoin="round">
  <!-- Reservas Online - Calendar -->
  <rect x="88" y="96" width="336" height="320" rx="28" fill="#FFFFFF" stroke="#000000" stroke-width="8"/>
  <rect x="88" y="96" width="336" height="80" rx="28" fill="#FCB53F" stroke="#000000" stroke-width="8"/>
  <rect x="88" y="148" width="336" height="28" fill="#FCB53F"/>
  <rect x="168" y="72" width="20" height="56" rx="10" fill="#000000"/>
  <rect x="256" y="72" width="20" height="56" rx="10" fill="#000000"/>
  <rect x="344" y="72" width="20" height="56" rx="10" fill="#000000"/>
  <rect x="116" y="200" width="60" height="48" rx="12" fill="#FFFFFF" stroke="#000000" stroke-width="4"/>
  <rect x="192" y="200" width="60" height="48" rx="12" fill="#FFFFFF" stroke="#000000" stroke-width="4"/>
  <rect x="268" y="200" width="60" height="48" rx="12" fill="#A6CE39" stroke="#000000" stroke-width="6"/>
  <rect x="344" y="200" width="60" height="48" rx="12" fill="#FFFFFF" stroke="#000000" stroke-width="4"/>
  <rect x="116" y="268" width="60" height="48" rx="12" fill="#FFFFFF" stroke="#000000" stroke-width="4"/>
  <rect x="192" y="268" width="60" height="48" rx="12" fill="#C48D65" stroke="#000000" stroke-width="4"/>
  <rect x="268" y="268" width="60" height="48" rx="12" fill="#FFFFFF" stroke="#000000" stroke-width="4"/>
  <rect x="344" y="268" width="60" height="48" rx="12" fill="#FFFFFF" stroke="#000000" stroke-width="4"/>
  <rect x="116" y="336" width="60" height="48" rx="12" fill="#FFFFFF" stroke="#000000" stroke-width="4"/>
  <rect x="192" y="336" width="60" height="48" rx="12" fill="#FFFFFF" stroke="#000000" stroke-width="4"/>
  <path d="M280 216 L292 228 L308 208" stroke="#FFFFFF" stroke-width="6" fill="none"/>
  <!-- RCP signature: compact 2-by-3 gold dot matrix -->
  <g class="rcp-dot-matrix" aria-hidden="true" fill="#FCB53F">
    <circle cx="430" cy="46" r="6"/><circle cx="450" cy="46" r="6"/><circle cx="470" cy="46" r="6"/>
    <circle cx="430" cy="66" r="6"/><circle cx="450" cy="66" r="6"/><circle cx="470" cy="66" r="6"/>
  </g></svg>