<?xml version="1.0" encoding="UTF-8"?>
<!DOCTYPE svg PUBLIC "-//W3C//DTD SVG 1.1//EN" "http://www.w3.org/Graphics/SVG/1.1/DTD/svg11.dtd">
<!-- Creator: CorelDRAW -->
<svg xmlns="http://www.w3.org/2000/svg" xml:space="preserve" width="2in" height="0.787551in" version="1.1" style="shape-rendering:geometricPrecision; text-rendering:geometricPrecision; image-rendering:optimizeQuality; fill-rule:evenodd; clip-rule:evenodd"
viewBox="0 0 2000 787.55"
 xmlns:xlink="http://www.w3.org/1999/xlink"
 xmlns:xodm="http://www.corel.com/coreldraw/odm/2003">
 <defs>
  <style type="text/css">
   <![CDATA[
    .str0 {stroke:#FCB53F;stroke-width:15.37;stroke-linecap:round;stroke-linejoin:round;stroke-miterlimit:10}
    .fil0 {fill:none}
    .fil4 {fill:none;fill-rule:nonzero}
    .fil7 {fill:#FEFEFE;fill-rule:nonzero}
    .fil6 {fill:#FEFEFE;fill-rule:nonzero}
    .fil9 {fill:#373435;fill-rule:nonzero}
    .fil3 {fill:#FCB53F;fill-rule:nonzero}
    .fil5 {fill:#FCB53F;fill-rule:nonzero}
    .fil8 {fill:#C58F6A;fill-rule:nonzero}
    .fil2 {fill:#A8CF45;fill-rule:nonzero}
    .fil10 {fill:#201E1E;fill-rule:nonzero}
    .fil1 {fill:#201E1E;fill-rule:nonzero}
   ]]>
  </style>
 </defs>
 <g id="Capa_x0020_1">
  <metadata id="CorelCorpID_0Corel-Layer"/>
  <g id="_2720935636880">
   <rect class="fil0" width="2000" height="787.55"/>
   <path class="fil1" d="M340.03 323.69c-1.58,1.78 0.14,3.08 0.99,4.54 0.47,-1.64 1.29,-3.24 0.04,-4.75 -0.11,-0.14 -0.83,-0.02 -1.03,0.21z"/>
   <path class="fil2" d="M575.06 295.19c-5.61,-2.32 -11.43,-3.58 -17.44,-3.92 -0.56,0.98 0.22,1.48 0.56,2.07 3.09,5.54 2.92,11.17 0.21,16.75 -2.14,4.37 -7.32,7.22 -11.53,6.57 -4.86,-0.78 -9.64,-5.58 -10.32,-10.36 -0.07,-0.54 0.1,-0.9 0.47,-1.22 0,0 0,0 0,0 -3.21,-1.54 -2.97,-4.24 -2.39,-7.04l0 0c-0.33,0.13 -0.72,0.19 -1.02,0.39 -7.78,5.3 -10.43,13.12 -10.78,22.07 -0.04,1.11 0.5,1.96 1.47,2.53 7.03,4.11 14.42,6.71 22.75,5.56 7.65,-1.06 14.25,-4.35 20.11,-9.28 4.89,-5.61 8.29,-11.97 10.1,-19.25 0.6,-2.44 0.25,-3.86 -2.19,-4.86z"/>
   <path class="fil2" d="M391.75 301.93c-3.15,-3.97 -2.64,-6.62 2.07,-10.54 0,0 0,0 0,0 -6.19,0.15 -12.06,1.61 -17.69,4.15 -1.65,0.74 -2.28,1.67 -1.74,3.5 1.17,3.97 2.35,7.92 4.28,11.61 9.07,17.29 31.71,23.43 47.76,12.92 1.5,-1 2.68,-2.1 2.54,-4.04 -0.28,-3.76 -0.71,-7.5 -2.3,-10.98 -2.33,-5.06 -5.81,-9.06 -10.92,-11.61 -0.49,1.09 -0.13,1.91 0,2.72 0.72,5.17 -0.7,9.75 -4.21,13.51 -2.87,3.09 -6.46,4.42 -10.7,2.94 0,0 0,0 0,0 -5.73,-1.43 -10.01,-8.11 -9.09,-14.18z"/>
   <path class="fil3" d="M617.59 278c0.56,-3.18 2.87,-5.5 5.68,-5.89 2.74,-0.39 5.32,1.06 6.87,3.91 1.52,2.78 2.17,5.8 2.25,8.63 0,4.7 -1.96,7.67 -5.26,8.28 -3.72,0.69 -6.89,-1.26 -8.58,-5.25 -1.33,-3.14 -1.53,-6.39 -0.96,-9.68zm3.85 61.59l0 0c-3.47,3.57 -10.07,1.62 -11.72,-3.43 -3.5,-9.13 -1.72,-17.28 4.5,-24.59 2.17,-2.56 4.89,-3.75 8.26,-2.92 3.6,0.89 6.04,3.14 6.85,6.72 2.17,9.6 -0.15,17.81 -7.89,24.22zm-20.54 -75.88c-7.2,-0.64 -13.63,-4.14 -18.44,-10.43 -2.83,-3.69 -1.1,-8.39 3.39,-9.89 7.07,-2.36 19.33,2.54 22.9,9.17 2.97,5.48 -0.72,11.28 -7.85,11.15zm-2 30.78c0,0 0,0 0,0 0,0 0,0 0,0 -1.99,2.56 -4.21,4.85 -6.81,6.78 0.02,1.24 -0.68,1.91 -1.79,2.25 -2.92,3.08 -4.86,6.83 -7.11,10.37 -1.65,2.6 -3.46,5.1 -5.19,7.64 0,0 0,0 0,0 0,0 0,0 0,0 -1.03,2.72 -3.04,4.5 -5.6,5.74 -9.94,8.41 -21.35,12.32 -34.39,11.36 -3.58,-0.26 -6.98,-1.29 -10.58,-2.29 -0.35,1.54 0.51,2.63 1.01,3.75 3.59,8.08 8.39,15.48 12.72,23.17 2.82,5 5.39,10.11 7.48,15.46 0.28,0.71 0.57,1.41 0.75,2.13 0.46,1.94 0.32,4.04 -1.47,5.03 -1.9,1.04 -3.29,-0.5 -4.35,-2.04 0,0 0,0 0,0 -2.14,-1.88 -3.39,-4.33 -4.6,-6.83 -1.64,-1.65 -2.89,-3.6 -3.9,-5.68 -10.18,-13.75 -19.56,-27.86 -21.57,-45.47 -0.24,-2.14 -0.28,-4.31 -0.42,-6.46l0 0c-1.96,-5.5 -1.15,-11.07 -0.28,-16.61 0.58,-3.69 1.62,-7.29 3.72,-10.48 0,0 0,0 0,0l0 0c0.46,-0.85 0.78,-1.78 1.61,-2.37 2.89,-4.65 6.52,-8.56 11.33,-11.24 4.47,-3.52 9.74,-5.26 15.14,-6.46 10.25,-2.26 20.54,-2.29 30.61,0.97 3.41,1.11 7.04,2.06 9.64,4.91 2.39,0.85 4.48,2.14 6.21,4.01 3.19,1.71 5.29,4.54 7.33,7.4 0.74,0.31 1.04,0.89 1.07,1.65 1.43,1.41 0.57,2.39 -0.58,3.33zm-18.87 74.74c-7.31,-1.54 -9.39,-7.25 -4.74,-13.03 0,0 0,0 0,0 0,0 0,0 0,0 1.53,-2.74 4,-4.4 6.71,-5.79l0 0c1.51,-0.58 2.76,-1.92 4.59,-1.64 0,0 0,0 0,0 0,0 0,0 0,0 1.26,-0.33 2.52,-0.74 3.79,-1.01 4.57,-1.02 8.52,2.35 8.28,7.01 -0.46,8.86 -10.02,16.28 -18.64,14.46zm-69.21 -99.18c0.46,-1.69 0.39,-3.53 1.89,-4.79 2.59,-5.26 5.83,-10.06 10.44,-13.76 4.64,-3.74 9.75,-6.36 15.96,-5.63 3.35,0.39 5.39,2.39 5.74,5.22 0.43,3.39 -0.94,5.65 -4.31,6.98 -4.8,1.9 -9.57,3.85 -13.3,7.6l0 0c-2.42,3.15 -4.99,6.18 -7.91,8.87 -2.01,1.86 -4.4,1.56 -6.54,0.5 -1.94,-0.96 -2.57,-2.74 -1.97,-5zm-4.96 -45.94c3.36,-4.53 10.72,-7.97 18.08,-7.98 1.76,0.01 4.43,0.46 6.68,2.22 3.63,2.86 3.68,7.11 0.14,10.1 -0.5,0.42 -1.06,0.89 -1.65,1.06 -6.44,1.74 -13.03,2.96 -19.64,3.18 -4.65,0.15 -6.46,-4.72 -3.61,-8.57zm0.96 67.63c-0.39,1.33 -1.04,2.58 -1.58,3.87l0 0c0,0 0,0 0,0 -0.33,1.92 -1.57,2.94 -3.36,3.46 -2.11,1.26 -4.26,2.04 -6.47,0.2 -2.15,-1.79 -2.35,-4.15 -1.75,-6.65 0.72,-3.02 2.2,-5.56 4.92,-7.21 2.22,-1.35 4.43,-1.41 6.53,0.25 2.03,1.6 2.42,3.74 1.72,6.07zm-16.1 -33.33c-3.03,-1.22 -3.92,-4.9 -1.76,-7.24 0.46,-2.82 3.61,-5.75 6.74,-6.24 0,0 0,0 0,0 0,0 0,0 0,0 1.08,-0.3 2.14,-0.74 3.25,-0.89 2.49,-0.36 4.67,0.33 6.14,2.5 1.32,1.94 1.42,4.02 0.29,6.11 -2.78,5.15 -9.14,7.64 -14.65,5.75 0,-0.01 0,-0.01 0,-0.01 0,0 0,0 0,0.01zm-10.5 56.76c-4.06,-0.03 -8.02,-3.93 -8.06,-7.94 -0.03,-3.36 2.85,-6.39 6.17,-6.5 4.06,-0.12 7.31,3.38 7.37,7.96 0.06,3.87 -2.18,6.53 -5.48,6.48zm-13.63 -41.13c0.74,-3.01 2.96,-4.43 5.89,-4.87 1.02,-0.15 2.06,-0.18 3.08,-0.28 2.29,0.07 4.47,0.46 6.37,1.87 4.49,3.31 3.83,9.67 -1.33,11.78 -3.91,1.6 -7.75,1.2 -11.2,-1.36 -2.39,-1.78 -3.54,-4.17 -2.82,-7.14zm-3.94 23.35c-1.33,3.8 -4.32,5.19 -8.03,3.68 -5.33,-2.18 -8.39,-9.43 -6.28,-14.86 0,0 0,0 0,0 0,0 0,0 0,0 -0.07,-0.6 0.08,-1.15 0.59,-1.49 2.97,-1.93 6.14,-1.68 9.07,-0.21 2.19,1.11 4.11,2.86 4.31,5.68 0.61,2.38 1.18,4.74 0.33,7.2zm-29.44 -67.78c0,0 0,0 0,0 0,0 0,0 0,0 -3.01,-0.17 -3.83,-2.4 -4.06,-4.76 -0.22,-2.39 -0.08,-4.87 2.88,-5.83 8.53,-4.57 21.47,-1.43 27,6.61 1.67,2.41 2.64,5.18 0.9,7.9 -1.65,2.6 -4.42,2.44 -7.1,2.01 -2.53,-0.4 -4.93,-1.22 -7.26,-2.18 -4.01,-1.64 -8.18,-2.68 -12.36,-3.75zm4.94 44.47c-2.67,0.65 -5.3,-1.39 -7.3,-5.81 -1.97,-4.37 -5.41,-7.39 -9.24,-10.01 -2.04,-1.42 -3.89,-2.97 -5.03,-5.22 -2.79,-5.58 0.71,-10.94 6.93,-10.67 5.72,0.25 10.25,2.71 13.65,7.31 3.74,5.06 5.76,10.75 5.67,15.92 -0.09,4.71 -1.8,7.8 -4.68,8.48zm0.7 45.24l0 0c-0.36,17.39 -7.64,32.08 -17.58,45.81 -3.74,5.17 -7.03,10.67 -10.63,15.94 -1.06,1.53 -2.32,2.97 -3.7,4.22 -1.98,1.78 -3.62,1.17 -4.37,-1.37 -0.5,-1.74 -0.07,-3.31 0.54,-4.92 3.51,-9.29 8.87,-17.61 13.63,-26.25 2.14,-3.9 4.62,-7.64 6.19,-11.86 0,0 0,0 0,0l0 0c0,-0.28 -0.1,-0.6 0,-0.83 1.19,-2.83 -0.18,-2.72 -2.25,-2.06 -1.5,0.47 -3.06,0.87 -4.67,0.5 -13.51,1.58 -25.4,-2.29 -35.96,-10.67l0 0c-2.76,-1.38 -5.11,-3.18 -6.18,-6.24 -1.53,-0.36 -2.08,-1.49 -2.25,-2.92 -3.07,-4.93 -5.74,-10.11 -9.5,-14.58 0,0 -0.01,0 -0.01,0 0,0 0,0 0,0 -1.1,-0.32 -1.72,-1.03 -1.85,-2.18 -0.17,-0.2 -0.33,-0.39 -0.5,-0.58 0,0 0,0 -0.02,0 -2.48,-2.07 -4.89,-4.21 -6.75,-6.91 -1.76,-1.15 -1.72,-2.33 -0.09,-3.57 0,0 0,0 0,0 0.02,-1.81 1.64,-2.71 2.32,-4.14 0,0 0,0 0,0 0,0 0,0 0,0 0.36,-2.68 2.2,-3.86 4.57,-4.53 0.53,-0.22 1.04,-0.43 1.57,-0.65l0 0c8.22,-6.9 17.8,-10.07 28.4,-10.73 12.57,-0.8 24.26,1.64 34.64,9.06 4.71,3.36 8.52,7.58 10.99,12.9 0,0 0,0 0,0 2.54,3.61 3.13,7.85 3.86,12.04 0.53,2.93 0.59,5.91 0.51,8.89 0,0 0,0 0,0 0,0 0,0 0,0 0,1.93 0.57,3.94 -0.93,5.63zm-69.78 47.54c-7.86,1.03 -15.67,-3.85 -17.98,-11.32 -0.94,-3.01 -0.93,-5.98 1.5,-8.39 2.35,-2.32 5.24,-2.26 8.15,-1.38 3.69,1.14 6.9,3.31 10.22,5.22 0,0 0,0 0,0 0,0 0,0 0,0 2.58,0.54 4.24,2.11 5.07,4.6 2.08,5.89 -0.72,10.44 -6.96,11.26zm-25.07 -106.79c-1.54,-3.02 -0.81,-6.53 2.24,-9.75 4.51,-4.74 10.35,-6.5 16.59,-7.22 1.56,0.07 3.04,0.17 4.49,0.71 4.8,1.79 6.19,6.33 3.03,10.36 -4.31,5.49 -10.04,8.67 -16.86,9.82 -4.32,0.74 -7.94,-0.89 -9.48,-3.91zm-0.63 72.4c-0.63,3.78 -2.74,6.6 -6.37,7.94 -3.46,1.28 -6.46,-0.04 -9,-2.41 -3.97,-3.65 -6.36,-8.06 -6.28,-13.59 0.15,-7.28 3.17,-11.14 9.28,-12.02 2.53,-0.37 4.74,0.29 6.43,2.08 4.74,5.06 7.1,10.99 5.94,17.99zm-23.79 -45.75c-0.29,-3.93 0.33,-7.69 2.47,-11.08 1.8,-2.87 4.09,-4.01 6.79,-3.44 3.15,0.67 4.79,2.79 5.4,5.81 0.22,1.1 0.24,2.24 0.36,3.35 0.03,3.02 -0.74,5.79 -2.31,8.32 -1.67,2.7 -4.67,3.89 -7.8,3.2 -2.76,-0.61 -4.68,-2.91 -4.92,-6.14zm48.09 -76.64c0,0 0,0 0,0 0,0 0,0 0,0 0.89,-2.51 2.56,-4.25 5.09,-5.13 0.47,-1.35 1.37,-1.96 2.82,-1.71 0.83,-1.29 2.09,-1.3 3.42,-1.17 1.67,-0.08 3.33,-0.37 4.97,0.26 3.85,1.5 5.43,5.79 3.57,9.76 -1,2.15 -2.76,3.72 -4.19,5.56 0,0 0,0 0,0 0,0 0,0 0,0 -2.32,4.21 -10.86,7.68 -15.89,6.21 -1.33,-0.39 -2.68,-1.03 -2.58,-2.83 -1.71,-4.33 0.69,-7.61 2.8,-10.96zm39.56 48.89c-0.78,2.53 -2.83,3.32 -5.15,3.72 -0.56,0.1 -1.11,0.08 -1.5,0.11 -2.93,-0.24 -5.57,-0.86 -7.88,-2.43 -2.17,-1.47 -3.07,-3.54 -2.41,-6.1 0.61,-2.4 2.41,-3.44 4.75,-3.72 3.61,-0.44 6.9,0.22 9.75,2.63 1.82,1.51 3.24,3.19 2.44,5.79zm-6.28 -35.54c2.39,-0.09 4.71,0.24 6.9,1.15 4.49,1.86 5.38,6.63 1.92,10.04 -1.15,1.14 -2.5,2.06 -4.03,2.54 -5.9,1.87 -11.89,3.52 -18.13,3.76 -4.12,0.15 -6.37,-1.14 -7.29,-3.96 -0.93,-2.83 0.21,-5.83 3.18,-8.07 5.17,-3.86 11.15,-5.21 17.44,-5.47zm-4.81 -12.98c2.71,-3.93 6.83,-4.92 11.26,-5.14 1.32,0.04 2.63,0.06 3.91,0.46 4.22,1.37 5.33,6.4 2.06,9.43 -3.28,3.02 -12.06,4.13 -16.04,2.03 -2.43,-1.28 -3,-4.14 -1.18,-6.78zm0.86 -18.61c1.31,-3.49 2.04,-7.31 6.02,-9.14 2.91,-1.35 5.96,-1.87 9.09,-2.03 3.02,-0.15 5.76,3.14 4.99,6.07 -1.79,6.69 -5.94,10.24 -13.35,10.24 -2.99,0.79 -4.72,-1.46 -6.35,-3.86 -0.25,-0.36 -0.53,-0.94 -0.4,-1.28zm25.94 3.78c3.48,-1.61 7.21,-1.93 10.07,-1.98 4.9,-0.02 8.76,0.59 12.36,2.41 2.33,1.18 4.5,2.65 4.42,5.63 -0.08,3.08 -1.85,5.22 -4.5,6.65 -2.25,1.21 -4.71,1.32 -7.14,0.99 -4.18,-0.57 -8.33,-1.31 -12.47,-2.07 -1,-0.18 -1.99,-0.6 -2.89,-1.06 -2.24,-1.13 -3.79,-2.79 -3.71,-5.49 0.1,-2.57 1.71,-4.08 3.86,-5.08zm8.78 -21.39c4.08,-2.09 8.56,-2.78 13.09,-2.29 3.26,0.35 5.65,2.57 5.93,5.13 0.35,3.21 -1.83,4.68 -4.26,5.92 -2.22,1.13 -4.92,1.68 -7.6,1.65 -2.58,0 -5.04,-0.5 -7.28,-1.82 -3.57,-2.11 -3.58,-6.68 0.11,-8.59zm26.76 5.91c-0.03,-1.17 0.51,-1.78 1.7,-1.75 1.83,-1 3.81,-1.01 5.75,-0.64 3.22,0.63 6.35,0.39 9.47,-0.53 2.01,-0.6 4.03,-0.64 6.13,-0.18 3.01,0.67 4.89,2.37 5.36,5.4 0.47,3.08 -0.64,5.65 -3.35,7.18 -5.98,3.37 -12.24,3.2 -18.5,0.86 -2.82,-1.04 -5.6,-2.29 -6.51,-5.65 -0.43,-1.6 -0.64,-3.13 -0.06,-4.69l0 0c0,0 0,0 0,0zm26.22 34.53c-2.1,1.12 -4.39,1.58 -6.78,1.58 -3.53,-0.04 -6.89,-0.89 -9.93,-2.65 -2.65,-1.56 -4.46,-3.97 -4.21,-7.13 0.25,-3.07 2.9,-4.35 5.47,-4.94 5.58,-1.3 11.06,-0.61 16.03,2.25 4.14,2.39 3.72,8.56 -0.58,10.89zm-16.06 46.82c-4.93,0.04 -11.42,-4.78 -12.82,-9.56 -1.25,-4.22 2.48,-8.53 7.22,-7.94 5.39,0.67 9.52,3.44 11.6,8.61 1.75,4.33 -1.37,8.83 -6,8.89zm21.36 -36.31c1.14,0.07 1.74,0.63 1.64,1.81 0.15,0.37 0.29,0.74 0.44,1.1 0,0 0,0 0,0l0 0c1.37,1.25 1.07,2.56 0.17,3.89 -2.71,4.6 -6.57,7.41 -12.04,7.47 -3.57,0.04 -6,-3.25 -5.14,-6.72 1.56,-6.2 9.06,-9.97 14.93,-7.54 0,0 0,0 0,0zm8.8 -27.54c3.64,-4.15 14.17,-5.99 18.93,-3.25 2.09,1.21 3.32,3.04 3.26,5.53 -0.04,2.41 -1.54,3.64 -3.59,4.57 -4.51,2.06 -8.9,3.3 -12.41,3.36 -1.22,0 -2.43,-0.03 -3.61,-0.46 -4.83,-1.76 -5.94,-5.92 -2.58,-9.75zm2 -21.52c4.81,-6.08 13.93,-6.33 20.71,-0.56 0,0 0,0 0,0 0,0 0,0 0,0 2.72,1.14 2.08,3.76 1.78,5.57 -0.32,1.91 -2.03,3.53 -4.29,3.97 -0.09,0.01 -0.18,0.03 -0.28,0.03 -0.61,-0.09 -1.22,-0.15 -1.85,-0.2 -0.11,-0.01 -0.21,-0.01 -0.32,-0.03 -4.42,-0.33 -8.89,-0.11 -13.2,-1.3 -3.14,-0.88 -4.43,-4.94 -2.56,-7.49zm29.71 28.14c0.33,-2.26 1.93,-3.28 4.07,-3.62 2.96,-0.47 5.54,0.32 7.82,2.22 1.63,1.35 2.6,3 1.75,5.17 -0.85,2.15 -2.65,2.72 -4.97,2.64 -1.96,-0.18 -4.07,-0.54 -5.98,-1.63 -1.87,-1.04 -3.03,-2.56 -2.68,-4.78zm7.74 -23.07c0.74,-0.06 1.5,0 2.25,0 5.54,0.15 10.19,2.04 13.82,6.51 2.01,2.49 1.18,5.03 0.19,7.06 -0.98,2.03 -3.18,3.61 -5.89,3.56 -3.18,-0.09 -6.51,-0.13 -9.33,-1.46 -3.36,-1.61 -6.67,-3.82 -7.92,-7.68 -1.31,-3.98 1.89,-7.57 6.87,-7.98zm22.37 37.37c2.14,1.69 1.85,4.96 -0.35,6.9 -1.78,1.57 -3.94,2.03 -6.58,2.1 -2.47,-0.04 -5.04,-0.69 -6.98,-2.89 -2.74,-3.07 -1.56,-7.59 2.36,-8.75 4.31,-1.26 8.18,-0.04 11.56,2.64zm6.39 14.64c3.83,0.89 5.94,3.52 5.64,6.91 -0.29,3.36 -3.19,5.72 -7.25,5.78 -2.52,-0.14 -5.06,-0.65 -7.39,-1.98 -3.64,-2.11 -3.86,-6.67 -0.37,-8.97 2.86,-1.89 6.01,-2.52 9.37,-1.72zm1.44 -31.04l0 0c1.25,-1.31 2.98,-0.96 4.21,-0.53 3.01,1.06 6.15,2.14 8.07,5.04 2.11,0.17 2.9,1.94 4.03,3.29l0 0c0.64,1.1 1.75,1.97 1.68,3.43l0 0c0,0 0,0 0,0 0.46,1.22 1.06,2.36 1.09,3.75 0.08,4.81 -2.52,7.22 -7.25,6.39 -6.24,-1.08 -11.04,-4.49 -14.72,-9.56 -3.65,-5.02 -2.64,-9.11 2.9,-11.82zm29.97 17.44c-1.02,-2.96 -1.21,-6.06 -1.67,-9.11l-0.02 0c-4.13,-2.5 -4.44,-6.75 -4.57,-10.85 -0.26,-8.48 3.36,-15.82 7.63,-22.83 1.79,-2.96 3.92,-5.71 5.89,-8.54 0,0 0,0 0,0l0 0c0.24,-1.74 1.47,-2.64 2.85,-3.4 1.32,-3.29 4.35,-5.04 6.65,-7.44 0,0 0,0 0,0 0.83,-0.92 1.42,-2.18 2.93,-2.14 0.39,-1.06 1.06,-1.74 2.26,-1.72 1.82,-1.29 3.65,-1.47 5.5,-0.07 0,0 0,0 0,0 5.71,-3.79 11.99,-4.68 18.64,-3.62 0,0 0,0 0,0 -3.03,-5.14 -7.74,-7.86 -13.42,-8.76 -8.04,-1.29 -15.67,0.61 -23,3.86 -6.85,3.06 -12.99,7.29 -19.18,11.46 0,0 0,0 0,0 -6.28,5.22 -11.94,11.07 -17.68,16.85 -0.14,0.24 -0.32,0.46 -0.4,0.71 -0.56,1.64 -3.21,2.54 -2.39,4.36 0.65,1.43 2.6,2.28 3.96,3.39 1.65,1.35 3.42,2.57 4.33,4.6 0,0 0,0 0,0l0 0c1.29,1.25 1.06,2.56 0.13,3.89l0 0c-1.64,2.92 -4.08,3.79 -7.24,2.76 0,0 0,0 0,0 0,0 0,0 0,0 -1.9,-0.17 -3.17,-1.2 -3.97,-2.87 -1.4,-0.13 -2.44,-0.74 -2.87,-2.17 -0.78,0.46 -1.36,0.31 -1.75,-0.54 -1.97,-1.28 -4.65,-1.39 -6.01,-3.71 -0.14,-0.24 -0.94,-0.29 -1.31,-0.14 -1.35,0.59 -1.37,0.21 -0.9,-0.96 0.18,-0.46 -0.49,-0.72 -0.91,-0.92 -4.5,-2.06 -8.85,-4.64 -13.54,-5.98 -2.82,-0.81 -5.17,-2.63 -8.29,-2.86 -3.08,-0.22 -6.02,-1.96 -9.08,-2.67 -3.17,-0.74 -6.43,-1.03 -9.64,-1.52 -8.62,-1.3 -17.32,-1.78 -25.92,-0.3 -4.3,0.72 -8.53,2.46 -12.91,1.47 -4.83,-1.1 -9.64,-2 -14.61,-2.38 -4.25,-0.32 -8.35,0.49 -12.53,0.49 -4.79,0.01 -9.35,1.72 -14.11,1.94 -1.19,0.06 -1.06,0.14 -0.44,1.01 0.26,0.37 -0.72,0.81 -1.22,0.65 -4.35,-1.31 -8.02,1.25 -11.9,2.21 -3.67,0.9 -7.3,2.39 -10.63,4.21 -5.54,3 -11.44,5.37 -16.5,9.24 -2.29,1.76 -4.71,3.39 -7.15,4.92 -2.14,1.35 -4.49,1.46 -6.65,0.08 -2.21,-1.41 -2.63,-4.18 -2.15,-6.02 0.57,-2.25 3.02,-3.72 5.53,-4.37l0 0c0,0 0,0 0,0 0.72,-0.53 1.44,-1.06 2.17,-1.6l0 0 0 0c0.67,-1.08 1.15,-2.19 0.48,-3.46 -0.58,-0.94 -1.17,-1.89 -1.75,-2.83 0,0 0,0 0,0 -0.72,-0.58 -1.44,-1.17 -2.15,-1.75 0,0 0,0 0,0 -1.58,-1.29 -3.4,-2.39 -3.96,-4.57 -1.76,-1.85 -3.51,-3.69 -5.26,-5.53 0,0 0,0 0,0 -3.69,-2.89 -7.29,-5.9 -11.11,-8.61 -9.06,-6.41 -18.69,-11.56 -30.01,-12.63 -8.68,-0.82 -16.21,1.24 -21.28,9.02 6.63,-0.86 12.9,0 18.63,3.68l0 0c2.19,-1.62 4.18,-1.12 6.1,0.52 1.12,0.97 2.29,1.92 3.43,2.87 3.32,1.97 6.01,4.56 7.87,7.96 5.37,6.43 10.17,13.22 13.44,21 2.36,5.62 3.67,11.37 2.56,17.54 -0.44,2.49 -1.24,4.68 -3.03,6.49l0 0c-1.35,5.67 -2.1,11.56 -5.22,16.62 -1.56,2.54 -2.76,5.47 -5.61,7.04 0,0 0,0 0,0 -0.54,0.56 -1.07,1.13 -1.59,1.68 0,0 0,0 0,0 0,0 0,0 0,0 -1.04,2.86 -3.44,4.48 -5.72,6.22 0,0 0,0 0,0 -1.26,1.17 -2.53,2.33 -3.79,3.5l0 0c0,0 0,0 0,0 -2.04,2.44 -4.14,4.81 -7.44,5.54 -1.78,0.76 -3.54,1.53 -5.3,2.31 0,0 0,0 0,0 0.56,1.97 0.26,3.86 -0.37,5.79 -6.83,20.85 -9.61,42.28 -9,64.18 0.14,5.44 0.19,10.91 1.35,16.26 0,0 0,0 0,0 1.58,0.93 2.51,2.42 3.32,4 0,0 0,0 0,0l0 0c5.63,6.49 12.06,12.09 19.15,16.92 0,0 0,0 0,0 0.53,0.21 1.07,0.43 1.61,0.64 3.04,1.33 5.96,2.87 8.51,5.01 7.79,4.22 16.24,6.83 24.41,10.13 8.06,3.25 15.15,7.75 20.09,15.13 2.57,3.83 4.07,8.01 4.1,12.65 0.04,7.86 1.93,15.02 7.79,20.68 0,0 0,0 0,0 6.39,1.38 12.9,1.92 19.36,2.83 1.85,0.26 3.21,0.87 3.68,2.81 6.36,0.22 12.21,-1.41 17.51,-4.93l0 0c-6.97,1.32 -12.14,-1.3 -15.86,-7.18 -6.26,-9.9 -2.52,-19.74 8.76,-22.85 1.89,-0.51 3.86,-0.8 5.8,-1.06 9.02,-1.17 17.76,0.37 26.47,2.47 5.11,1.24 10.18,1.29 15.33,-0.02 5.18,-1.32 10.43,-2.37 15.79,-2.72 6.9,-0.46 13.74,-0.15 20.18,2.64 5.48,2.38 8.21,7.1 7.87,13.07 -0.56,9.61 -7.86,15.98 -18.11,15.81 0.44,1.06 1.43,1.35 2.39,1.74 4.7,1.96 9.57,3.17 14.67,3.35 0,0 0,0 0,0 0.15,-2.21 1.6,-2.89 3.54,-3.2 5.88,-0.92 11.83,-1.21 17.64,-2.57l0 0c5.47,-4.54 8.46,-10.18 8.5,-17.47 0.03,-7.76 2.07,-14.91 7.48,-20.85 3.68,-4.06 8.25,-6.81 13.06,-9.06 4.82,-2.26 9.93,-3.86 14.92,-5.75 0.13,-0.1 0.26,-0.15 0.4,-0.18 3.89,-1.85 7.8,-3.67 11.67,-5.54 6.22,-3.03 11.87,-6.93 17.24,-11.28 0.63,-0.52 1.48,-0.74 2.25,-1.08 0,0 0,0 0,0 1.43,-2.25 3.58,-3.81 5.49,-5.58 3.37,-3.15 6.24,-6.72 8.79,-10.47 1.56,-2.29 1.46,-5.41 1.51,-8.17 0.15,-7.69 0.46,-15.42 -0.08,-23.07 -0.39,-5.26 -1.13,-10.54 -1.85,-15.81 -0.92,-6.67 -2.33,-13.21 -3.63,-19.79 -0.46,-2.29 -1.07,-4.53 -1.96,-6.69 -0.61,-1.49 -1.1,-3 -0.86,-4.64 0,0 0,0 0,0 0,0 0,0 0,0 -0.35,-2.14 -1.07,-4.26 -0.08,-6.4 0,0 0,0 0,0 -6.44,-1.31 -10.82,-5.86 -15.31,-10.04 -7,-6.54 -13.46,-13.58 -16.69,-22.91z"/>
   <path class="fil4 str0" d="M617.59 278c0.56,-3.18 2.87,-5.5 5.68,-5.89 2.74,-0.39 5.32,1.06 6.87,3.91 1.52,2.78 2.17,5.8 2.25,8.63 0,4.7 -1.96,7.67 -5.26,8.28 -3.72,0.69 -6.89,-1.26 -8.58,-5.25 -1.33,-3.14 -1.53,-6.39 -0.96,-9.68zm3.85 61.59l0 0c-3.47,3.57 -10.07,1.62 -11.72,-3.43 -3.5,-9.13 -1.72,-17.28 4.5,-24.59 2.17,-2.56 4.89,-3.75 8.26,-2.92 3.6,0.89 6.04,3.14 6.85,6.72 2.17,9.6 -0.15,17.81 -7.89,24.22zm-20.54 -75.88c-7.2,-0.64 -13.63,-4.14 -18.44,-10.43 -2.83,-3.69 -1.1,-8.39 3.39,-9.89 7.07,-2.36 19.33,2.54 22.9,9.17 2.97,5.48 -0.72,11.28 -7.85,11.15zm-2 30.78c0,0 0,0 0,0 0,0 0,0 0,0 -1.99,2.56 -4.21,4.85 -6.81,6.78 0.02,1.24 -0.68,1.91 -1.79,2.25 -2.92,3.08 -4.86,6.83 -7.11,10.37 -1.65,2.6 -3.46,5.1 -5.19,7.64 0,0 0,0 0,0 0,0 0,0 0,0 -1.03,2.72 -3.04,4.5 -5.6,5.74 -9.94,8.41 -21.35,12.32 -34.39,11.36 -3.58,-0.26 -6.98,-1.29 -10.58,-2.29 -0.35,1.54 0.51,2.63 1.01,3.75 3.59,8.08 8.39,15.48 12.72,23.17 2.82,5 5.39,10.11 7.48,15.46 0.28,0.71 0.57,1.41 0.75,2.13 0.46,1.94 0.32,4.04 -1.47,5.03 -1.9,1.04 -3.29,-0.5 -4.35,-2.04 0,0 0,0 0,0 -2.14,-1.88 -3.39,-4.33 -4.6,-6.83 -1.64,-1.65 -2.89,-3.6 -3.9,-5.68 -10.18,-13.75 -19.56,-27.86 -21.57,-45.47 -0.24,-2.14 -0.28,-4.31 -0.42,-6.46l0 0c-1.96,-5.5 -1.15,-11.07 -0.28,-16.61 0.58,-3.69 1.62,-7.29 3.72,-10.48 0,0 0,0 0,0l0 0c0.46,-0.85 0.78,-1.78 1.61,-2.37 2.89,-4.65 6.52,-8.56 11.33,-11.24 4.47,-3.52 9.74,-5.26 15.14,-6.46 10.25,-2.26 20.54,-2.29 30.61,0.97 3.41,1.11 7.04,2.06 9.64,4.91 2.39,0.85 4.48,2.14 6.21,4.01 3.19,1.71 5.29,4.54 7.33,7.4 0.74,0.31 1.04,0.89 1.07,1.65 1.43,1.41 0.57,2.39 -0.58,3.33zm-18.87 74.74c-7.31,-1.54 -9.39,-7.25 -4.74,-13.03 0,0 0,0 0,0 0,0 0,0 0,0 1.53,-2.74 4,-4.4 6.71,-5.79l0 0c1.51,-0.58 2.76,-1.92 4.59,-1.64 0,0 0,0 0,0 0,0 0,0 0,0 1.26,-0.33 2.52,-0.74 3.79,-1.01 4.57,-1.02 8.52,2.35 8.28,7.01 -0.46,8.86 -10.02,16.28 -18.64,14.46zm-69.21 -99.18c0.46,-1.69 0.39,-3.53 1.89,-4.79 2.59,-5.26 5.83,-10.06 10.44,-13.76 4.64,-3.74 9.75,-6.36 15.96,-5.63 3.35,0.39 5.39,2.39 5.74,5.22 0.43,3.39 -0.94,5.65 -4.31,6.98 -4.8,1.9 -9.57,3.85 -13.3,7.6l0 0c-2.42,3.15 -4.99,6.18 -7.91,8.87 -2.01,1.86 -4.4,1.56 -6.54,0.5 -1.94,-0.96 -2.57,-2.74 -1.97,-5zm-4.96 -45.94c3.36,-4.53 10.72,-7.97 18.08,-7.98 1.76,0.01 4.43,0.46 6.68,2.22 3.63,2.86 3.68,7.11 0.14,10.1 -0.5,0.42 -1.06,0.89 -1.65,1.06 -6.44,1.74 -13.03,2.96 -19.64,3.18 -4.65,0.15 -6.46,-4.72 -3.61,-8.57zm0.96 67.63c-0.39,1.33 -1.04,2.58 -1.58,3.87l0 0c0,0 0,0 0,0 -0.33,1.92 -1.57,2.94 -3.36,3.46 -2.11,1.26 -4.26,2.04 -6.47,0.2 -2.15,-1.79 -2.35,-4.15 -1.75,-6.65 0.72,-3.02 2.2,-5.56 4.92,-7.21 2.22,-1.35 4.43,-1.41 6.53,0.25 2.03,1.6 2.42,3.74 1.72,6.07zm-16.1 -33.33c-3.03,-1.22 -3.92,-4.9 -1.76,-7.24 0.46,-2.82 3.61,-5.75 6.74,-6.24 0,0 0,0 0,0 0,0 0,0 0,0 1.08,-0.3 2.14,-0.74 3.25,-0.89 2.49,-0.36 4.67,0.33 6.14,2.5 1.32,1.94 1.42,4.02 0.29,6.11 -2.78,5.15 -9.14,7.64 -14.65,5.75 0,-0.01 0,-0.01 0,-0.01 0,0 0,0 0,0.01zm-10.5 56.76c-4.06,-0.03 -8.02,-3.93 -8.06,-7.94 -0.03,-3.36 2.85,-6.39 6.17,-6.5 4.06,-0.12 7.31,3.38 7.37,7.96 0.06,3.87 -2.18,6.53 -5.48,6.48zm-13.63 -41.13c0.74,-3.01 2.96,-4.43 5.89,-4.87 1.02,-0.15 2.06,-0.18 3.08,-0.28 2.29,0.07 4.47,0.46 6.37,1.87 4.49,3.31 3.83,9.67 -1.33,11.78 -3.91,1.6 -7.75,1.2 -11.2,-1.36 -2.39,-1.78 -3.54,-4.17 -2.82,-7.14zm-3.94 23.35c-1.33,3.8 -4.32,5.19 -8.03,3.68 -5.33,-2.18 -8.39,-9.43 -6.28,-14.86 0,0 0,0 0,0 0,0 0,0 0,0 -0.07,-0.6 0.08,-1.15 0.59,-1.49 2.97,-1.93 6.14,-1.68 9.07,-0.21 2.19,1.11 4.11,2.86 4.31,5.68 0.61,2.38 1.18,4.74 0.33,7.2zm-29.44 -67.78c0,0 0,0 0,0 0,0 0,0 0,0 -3.01,-0.17 -3.83,-2.4 -4.06,-4.76 -0.22,-2.39 -0.08,-4.87 2.88,-5.83 8.53,-4.57 21.47,-1.43 27,6.61 1.67,2.41 2.64,5.18 0.9,7.9 -1.65,2.6 -4.42,2.44 -7.1,2.01 -2.53,-0.4 -4.93,-1.22 -7.26,-2.18 -4.01,-1.64 -8.18,-2.68 -12.36,-3.75zm4.94 44.47c-2.67,0.65 -5.3,-1.39 -7.3,-5.81 -1.97,-4.37 -5.41,-7.39 -9.24,-10.01 -2.04,-1.42 -3.89,-2.97 -5.03,-5.22 -2.79,-5.58 0.71,-10.94 6.93,-10.67 5.72,0.25 10.25,2.71 13.65,7.31 3.74,5.06 5.76,10.75 5.67,15.92 -0.09,4.71 -1.8,7.8 -4.68,8.48zm0.7 45.24l0 0c-0.36,17.39 -7.64,32.08 -17.58,45.81 -3.74,5.17 -7.03,10.67 -10.63,15.94 -1.06,1.53 -2.32,2.97 -3.7,4.22 -1.98,1.78 -3.62,1.17 -4.37,-1.37 -0.5,-1.74 -0.07,-3.31 0.54,-4.92 3.51,-9.29 8.87,-17.61 13.63,-26.25 2.14,-3.9 4.62,-7.64 6.19,-11.86 0,0 0,0 0,0l0 0c0,-0.28 -0.1,-0.6 0,-0.83 1.19,-2.83 -0.18,-2.72 -2.25,-2.06 -1.5,0.47 -3.06,0.87 -4.67,0.5 -13.51,1.58 -25.4,-2.29 -35.96,-10.67l0 0c-2.76,-1.38 -5.11,-3.18 -6.18,-6.24 -1.53,-0.36 -2.08,-1.49 -2.25,-2.92 -3.07,-4.93 -5.74,-10.11 -9.5,-14.58 0,0 -0.01,0 -0.01,0 0,0 0,0 0,0 -1.1,-0.32 -1.72,-1.03 -1.85,-2.18 -0.17,-0.2 -0.33,-0.39 -0.5,-0.58 0,0 0,0 -0.02,0 -2.48,-2.07 -4.89,-4.21 -6.75,-6.91 -1.76,-1.15 -1.72,-2.33 -0.09,-3.57 0,0 0,0 0,0 0.02,-1.81 1.64,-2.71 2.32,-4.14 0,0 0,0 0,0 0,0 0,0 0,0 0.36,-2.68 2.2,-3.86 4.57,-4.53 0.53,-0.22 1.04,-0.43 1.57,-0.65l0 0c8.22,-6.9 17.8,-10.07 28.4,-10.73 12.57,-0.8 24.26,1.64 34.64,9.06 4.71,3.36 8.52,7.58 10.99,12.9 0,0 0,0 0,0 2.54,3.61 3.13,7.85 3.86,12.04 0.53,2.93 0.59,5.91 0.51,8.89 0,0 0,0 0,0 0,0 0,0 0,0 0,1.93 0.57,3.94 -0.93,5.63zm-69.78 47.54c-7.86,1.03 -15.67,-3.85 -17.98,-11.32 -0.94,-3.01 -0.93,-5.98 1.5,-8.39 2.35,-2.32 5.24,-2.26 8.15,-1.38 3.69,1.14 6.9,3.31 10.22,5.22 0,0 0,0 0,0 0,0 0,0 0,0 2.58,0.54 4.24,2.11 5.07,4.6 2.08,5.89 -0.72,10.44 -6.96,11.26zm-25.07 -106.79c-1.54,-3.02 -0.81,-6.53 2.24,-9.75 4.51,-4.74 10.35,-6.5 16.59,-7.22 1.56,0.07 3.04,0.17 4.49,0.71 4.8,1.79 6.19,6.33 3.03,10.36 -4.31,5.49 -10.04,8.67 -16.86,9.82 -4.32,0.74 -7.94,-0.89 -9.48,-3.91zm-0.63 72.4c-0.63,3.78 -2.74,6.6 -6.37,7.94 -3.46,1.28 -6.46,-0.04 -9,-2.41 -3.97,-3.65 -6.36,-8.06 -6.28,-13.59 0.15,-7.28 3.17,-11.14 9.28,-12.02 2.53,-0.37 4.74,0.29 6.43,2.08 4.74,5.06 7.1,10.99 5.94,17.99zm-23.79 -45.75c-0.29,-3.93 0.33,-7.69 2.47,-11.08 1.8,-2.87 4.09,-4.01 6.79,-3.44 3.15,0.67 4.79,2.79 5.4,5.81 0.22,1.1 0.24,2.24 0.36,3.35 0.03,3.02 -0.74,5.79 -2.31,8.32 -1.67,2.7 -4.67,3.89 -7.8,3.2 -2.76,-0.61 -4.68,-2.91 -4.92,-6.14zm48.09 -76.64c0,0 0,0 0,0 0,0 0,0 0,0 0.89,-2.51 2.56,-4.25 5.09,-5.13 0.47,-1.35 1.37,-1.96 2.82,-1.71 0.83,-1.29 2.09,-1.3 3.42,-1.17 1.67,-0.08 3.33,-0.37 4.97,0.26 3.85,1.5 5.43,5.79 3.57,9.76 -1,2.15 -2.76,3.72 -4.19,5.56 0,0 0,0 0,0 0,0 0,0 0,0 -2.32,4.21 -10.86,7.68 -15.89,6.21 -1.33,-0.39 -2.68,-1.03 -2.58,-2.83 -1.71,-4.33 0.69,-7.61 2.8,-10.96zm39.56 48.89c-0.78,2.53 -2.83,3.32 -5.15,3.72 -0.56,0.1 -1.11,0.08 -1.5,0.11 -2.93,-0.24 -5.57,-0.86 -7.88,-2.43 -2.17,-1.47 -3.07,-3.54 -2.41,-6.1 0.61,-2.4 2.41,-3.44 4.75,-3.72 3.61,-0.44 6.9,0.22 9.75,2.63 1.82,1.51 3.24,3.19 2.44,5.79zm-6.28 -35.54c2.39,-0.09 4.71,0.24 6.9,1.15 4.49,1.86 5.38,6.63 1.92,10.04 -1.15,1.14 -2.5,2.06 -4.03,2.54 -5.9,1.87 -11.89,3.52 -18.13,3.76 -4.12,0.15 -6.37,-1.14 -7.29,-3.96 -0.93,-2.83 0.21,-5.83 3.18,-8.07 5.17,-3.86 11.15,-5.21 17.44,-5.47zm-4.81 -12.98c2.71,-3.93 6.83,-4.92 11.26,-5.14 1.32,0.04 2.63,0.06 3.91,0.46 4.22,1.37 5.33,6.4 2.06,9.43 -3.28,3.02 -12.06,4.13 -16.04,2.03 -2.43,-1.28 -3,-4.14 -1.18,-6.78zm0.86 -18.61c1.31,-3.49 2.04,-7.31 6.02,-9.14 2.91,-1.35 5.96,-1.87 9.09,-2.03 3.02,-0.15 5.76,3.14 4.99,6.07 -1.79,6.69 -5.94,10.24 -13.35,10.24 -2.99,0.79 -4.72,-1.46 -6.35,-3.86 -0.25,-0.36 -0.53,-0.94 -0.4,-1.28zm25.94 3.78c3.48,-1.61 7.21,-1.93 10.07,-1.98 4.9,-0.02 8.76,0.59 12.36,2.41 2.33,1.18 4.5,2.65 4.42,5.63 -0.08,3.08 -1.85,5.22 -4.5,6.65 -2.25,1.21 -4.71,1.32 -7.14,0.99 -4.18,-0.57 -8.33,-1.31 -12.47,-2.07 -1,-0.18 -1.99,-0.6 -2.89,-1.06 -2.24,-1.13 -3.79,-2.79 -3.71,-5.49 0.1,-2.57 1.71,-4.08 3.86,-5.08zm8.78 -21.39c4.08,-2.09 8.56,-2.78 13.09,-2.29 3.26,0.35 5.65,2.57 5.93,5.13 0.35,3.21 -1.83,4.68 -4.26,5.92 -2.22,1.13 -4.92,1.68 -7.6,1.65 -2.58,0 -5.04,-0.5 -7.28,-1.82 -3.57,-2.11 -3.58,-6.68 0.11,-8.59zm26.76 5.91c-0.03,-1.17 0.51,-1.78 1.7,-1.75 1.83,-1 3.81,-1.01 5.75,-0.64 3.22,0.63 6.35,0.39 9.47,-0.53 2.01,-0.6 4.03,-0.64 6.13,-0.18 3.01,0.67 4.89,2.37 5.36,5.4 0.47,3.08 -0.64,5.65 -3.35,7.18 -5.98,3.37 -12.24,3.2 -18.5,0.86 -2.82,-1.04 -5.6,-2.29 -6.51,-5.65 -0.43,-1.6 -0.64,-3.13 -0.06,-4.69l0 0c0,0 0,0 0,0zm26.22 34.53c-2.1,1.12 -4.39,1.58 -6.78,1.58 -3.53,-0.04 -6.89,-0.89 -9.93,-2.65 -2.65,-1.56 -4.46,-3.97 -4.21,-7.13 0.25,-3.07 2.9,-4.35 5.47,-4.94 5.58,-1.3 11.06,-0.61 16.03,2.25 4.14,2.39 3.72,8.56 -0.58,10.89zm-16.06 46.82c-4.93,0.04 -11.42,-4.78 -12.82,-9.56 -1.25,-4.22 2.48,-8.53 7.22,-7.94 5.39,0.67 9.52,3.44 11.6,8.61 1.75,4.33 -1.37,8.83 -6,8.89zm21.36 -36.31c1.14,0.07 1.74,0.63 1.64,1.81 0.15,0.37 0.29,0.74 0.44,1.1 0,0 0,0 0,0l0 0c1.37,1.25 1.07,2.56 0.17,3.89 -2.71,4.6 -6.57,7.41 -12.04,7.47 -3.57,0.04 -6,-3.25 -5.14,-6.72 1.56,-6.2 9.06,-9.97 14.93,-7.54 0,0 0,0 0,0zm8.8 -27.54c3.64,-4.15 14.17,-5.99 18.93,-3.25 2.09,1.21 3.32,3.04 3.26,5.53 -0.04,2.41 -1.54,3.64 -3.59,4.57 -4.51,2.06 -8.9,3.3 -12.41,3.36 -1.22,0 -2.43,-0.03 -3.61,-0.46 -4.83,-1.76 -5.94,-5.92 -2.58,-9.75zm2 -21.52c4.81,-6.08 13.93,-6.33 20.71,-0.56 0,0 0,0 0,0 0,0 0,0 0,0 2.72,1.14 2.08,3.76 1.78,5.57 -0.32,1.91 -2.03,3.53 -4.29,3.97 -0.09,0.01 -0.18,0.03 -0.28,0.03 -0.61,-0.09 -1.22,-0.15 -1.85,-0.2 -0.11,-0.01 -0.21,-0.01 -0.32,-0.03 -4.42,-0.33 -8.89,-0.11 -13.2,-1.3 -3.14,-0.88 -4.43,-4.94 -2.56,-7.49zm29.71 28.14c0.33,-2.26 1.93,-3.28 4.07,-3.62 2.96,-0.47 5.54,0.32 7.82,2.22 1.63,1.35 2.6,3 1.75,5.17 -0.85,2.15 -2.65,2.72 -4.97,2.64 -1.96,-0.18 -4.07,-0.54 -5.98,-1.63 -1.87,-1.04 -3.03,-2.56 -2.68,-4.78zm7.74 -23.07c0.74,-0.06 1.5,0 2.25,0 5.54,0.15 10.19,2.04 13.82,6.51 2.01,2.49 1.18,5.03 0.19,7.06 -0.98,2.03 -3.18,3.61 -5.89,3.56 -3.18,-0.09 -6.51,-0.13 -9.33,-1.46 -3.36,-1.61 -6.67,-3.82 -7.92,-7.68 -1.31,-3.98 1.89,-7.57 6.87,-7.98zm22.37 37.37c2.14,1.69 1.85,4.96 -0.35,6.9 -1.78,1.57 -3.94,2.03 -6.58,2.1 -2.47,-0.04 -5.04,-0.69 -6.98,-2.89 -2.74,-3.07 -1.56,-7.59 2.36,-8.75 4.31,-1.26 8.18,-0.04 11.56,2.64zm6.39 14.64c3.83,0.89 5.94,3.52 5.64,6.91 -0.29,3.36 -3.19,5.72 -7.25,5.78 -2.52,-0.14 -5.06,-0.65 -7.39,-1.98 -3.64,-2.11 -3.86,-6.67 -0.37,-8.97 2.86,-1.89 6.01,-2.52 9.37,-1.72zm1.44 -31.04l0 0c1.25,-1.31 2.98,-0.96 4.21,-0.53 3.01,1.06 6.15,2.14 8.07,5.04 2.11,0.17 2.9,1.94 4.03,3.29l0 0c0.64,1.1 1.75,1.97 1.68,3.43l0 0c0,0 0,0 0,0 0.46,1.22 1.06,2.36 1.09,3.75 0.08,4.81 -2.52,7.22 -7.25,6.39 -6.24,-1.08 -11.04,-4.49 -14.72,-9.56 -3.65,-5.02 -2.64,-9.11 2.9,-11.82zm29.97 17.44c-1.02,-2.96 -1.21,-6.06 -1.67,-9.11l-0.02 0c-4.13,-2.5 -4.44,-6.75 -4.57,-10.85 -0.26,-8.48 3.36,-15.82 7.63,-22.83 1.79,-2.96 3.92,-5.71 5.89,-8.54 0,0 0,0 0,0l0 0c0.24,-1.74 1.47,-2.64 2.85,-3.4 1.32,-3.29 4.35,-5.04 6.65,-7.44 0,0 0,0 0,0 0.83,-0.92 1.42,-2.18 2.93,-2.14 0.39,-1.06 1.06,-1.74 2.26,-1.72 1.82,-1.29 3.65,-1.47 5.5,-0.07 0,0 0,0 0,0 5.71,-3.79 11.99,-4.68 18.64,-3.62 0,0 0,0 0,0 -3.03,-5.14 -7.74,-7.86 -13.42,-8.76 -8.04,-1.29 -15.67,0.61 -23,3.86 -6.85,3.06 -12.99,7.29 -19.18,11.46 0,0 0,0 0,0 -6.28,5.22 -11.94,11.07 -17.68,16.85 -0.14,0.24 -0.32,0.46 -0.4,0.71 -0.56,1.64 -3.21,2.54 -2.39,4.36 0.65,1.43 2.6,2.28 3.96,3.39 1.65,1.35 3.42,2.57 4.33,4.6 0,0 0,0 0,0l0 0c1.29,1.25 1.06,2.56 0.13,3.89l0 0c-1.64,2.92 -4.08,3.79 -7.24,2.76 0,0 0,0 0,0 0,0 0,0 0,0 -1.9,-0.17 -3.17,-1.2 -3.97,-2.87 -1.4,-0.13 -2.44,-0.74 -2.87,-2.17 -0.78,0.46 -1.36,0.31 -1.75,-0.54 -1.97,-1.28 -4.65,-1.39 -6.01,-3.71 -0.14,-0.24 -0.94,-0.29 -1.31,-0.14 -1.35,0.59 -1.37,0.21 -0.9,-0.96 0.18,-0.46 -0.49,-0.72 -0.91,-0.92 -4.5,-2.06 -8.85,-4.64 -13.54,-5.98 -2.82,-0.81 -5.17,-2.63 -8.29,-2.86 -3.08,-0.22 -6.02,-1.96 -9.08,-2.67 -3.17,-0.74 -6.43,-1.03 -9.64,-1.52 -8.62,-1.3 -17.32,-1.78 -25.92,-0.3 -4.3,0.72 -8.53,2.46 -12.91,1.47 -4.83,-1.1 -9.64,-2 -14.61,-2.38 -4.25,-0.32 -8.35,0.49 -12.53,0.49 -4.79,0.01 -9.35,1.72 -14.11,1.94 -1.19,0.06 -1.06,0.14 -0.44,1.01 0.26,0.37 -0.72,0.81 -1.22,0.65 -4.35,-1.31 -8.02,1.25 -11.9,2.21 -3.67,0.9 -7.3,2.39 -10.63,4.21 -5.54,3 -11.44,5.37 -16.5,9.24 -2.29,1.76 -4.71,3.39 -7.15,4.92 -2.14,1.35 -4.49,1.46 -6.65,0.08 -2.21,-1.41 -2.63,-4.18 -2.15,-6.02 0.57,-2.25 3.02,-3.72 5.53,-4.37l0 0c0,0 0,0 0,0 0.72,-0.53 1.44,-1.06 2.17,-1.6l0 0 0 0c0.67,-1.08 1.15,-2.19 0.48,-3.46 -0.58,-0.94 -1.17,-1.89 -1.75,-2.83 0,0 0,0 0,0 -0.72,-0.58 -1.44,-1.17 -2.15,-1.75 0,0 0,0 0,0 -1.58,-1.29 -3.4,-2.39 -3.96,-4.57 -1.76,-1.85 -3.51,-3.69 -5.26,-5.53 0,0 0,0 0,0 -3.69,-2.89 -7.29,-5.9 -11.11,-8.61 -9.06,-6.41 -18.69,-11.56 -30.01,-12.63 -8.68,-0.82 -16.21,1.24 -21.28,9.02 6.63,-0.86 12.9,0 18.63,3.68l0 0c2.19,-1.62 4.18,-1.12 6.1,0.52 1.12,0.97 2.29,1.92 3.43,2.87 3.32,1.97 6.01,4.56 7.87,7.96 5.37,6.43 10.17,13.22 13.44,21 2.36,5.62 3.67,11.37 2.56,17.54 -0.44,2.49 -1.24,4.68 -3.03,6.49l0 0c-1.35,5.67 -2.1,11.56 -5.22,16.62 -1.56,2.54 -2.76,5.47 -5.61,7.04 0,0 0,0 0,0 -0.54,0.56 -1.07,1.13 -1.59,1.68 0,0 0,0 0,0 0,0 0,0 0,0 -1.04,2.86 -3.44,4.48 -5.72,6.22 0,0 0,0 0,0 -1.26,1.17 -2.53,2.33 -3.79,3.5l0 0c0,0 0,0 0,0 -2.04,2.44 -4.14,4.81 -7.44,5.54 -1.78,0.76 -3.54,1.53 -5.3,2.31 0,0 0,0 0,0 0.56,1.97 0.26,3.86 -0.37,5.79 -6.83,20.85 -9.61,42.28 -9,64.18 0.14,5.44 0.19,10.91 1.35,16.26 0,0 0,0 0,0 1.58,0.93 2.51,2.42 3.32,4 0,0 0,0 0,0l0 0c5.63,6.49 12.06,12.09 19.15,16.92 0,0 0,0 0,0 0.53,0.21 1.07,0.43 1.61,0.64 3.04,1.33 5.96,2.87 8.51,5.01 7.79,4.22 16.24,6.83 24.41,10.13 8.06,3.25 15.15,7.75 20.09,15.13 2.57,3.83 4.07,8.01 4.1,12.65 0.04,7.86 1.93,15.02 7.79,20.68 0,0 0,0 0,0 6.39,1.38 12.9,1.92 19.36,2.83 1.85,0.26 3.21,0.87 3.68,2.81 6.36,0.22 12.21,-1.41 17.51,-4.93l0 0c-6.97,1.32 -12.14,-1.3 -15.86,-7.18 -6.26,-9.9 -2.52,-19.74 8.76,-22.85 1.89,-0.51 3.86,-0.8 5.8,-1.06 9.02,-1.17 17.76,0.37 26.47,2.47 5.11,1.24 10.18,1.29 15.33,-0.02 5.18,-1.32 10.43,-2.37 15.79,-2.72 6.9,-0.46 13.74,-0.15 20.18,2.64 5.48,2.38 8.21,7.1 7.87,13.07 -0.56,9.61 -7.86,15.98 -18.11,15.81 0.44,1.06 1.43,1.35 2.39,1.74 4.7,1.96 9.57,3.17 14.67,3.35 0,0 0,0 0,0 0.15,-2.21 1.6,-2.89 3.54,-3.2 5.88,-0.92 11.83,-1.21 17.64,-2.57l0 0c5.47,-4.54 8.46,-10.18 8.5,-17.47 0.03,-7.76 2.07,-14.91 7.48,-20.85 3.68,-4.06 8.25,-6.81 13.06,-9.06 4.82,-2.26 9.93,-3.86 14.92,-5.75 0.13,-0.1 0.26,-0.15 0.4,-0.18 3.89,-1.85 7.8,-3.67 11.67,-5.54 6.22,-3.03 11.87,-6.93 17.24,-11.28 0.63,-0.52 1.48,-0.74 2.25,-1.08 0,0 0,0 0,0 1.43,-2.25 3.58,-3.81 5.49,-5.58 3.37,-3.15 6.24,-6.72 8.79,-10.47 1.56,-2.29 1.46,-5.41 1.51,-8.17 0.15,-7.69 0.46,-15.42 -0.08,-23.07 -0.39,-5.26 -1.13,-10.54 -1.85,-15.81 -0.92,-6.67 -2.33,-13.21 -3.63,-19.79 -0.46,-2.29 -1.07,-4.53 -1.96,-6.69 -0.61,-1.49 -1.1,-3 -0.86,-4.64 0,0 0,0 0,0 0,0 0,0 0,0 -0.35,-2.14 -1.07,-4.26 -0.08,-6.4 0,0 0,0 0,0 -6.44,-1.31 -10.82,-5.86 -15.31,-10.04 -7,-6.54 -13.46,-13.58 -16.69,-22.91z"/>
   <path class="fil3" d="M624.34 159.7c-0.21,1.52 -1.75,2.07 -2.33,3.32 0,0 0,0 0,0l0 0c-0.1,1.48 -1.08,2.28 -2.31,2.86 0,0 0,0 0,0 0,0 0,0 0,0 -3.76,4.21 -6.78,8.94 -9.65,13.78 -4.72,7.94 -7.72,16.4 -7.74,25.78 -0.02,1.1 -0.41,2.2 -0.63,3.29 0,0 0,0 0,0 0.35,0.85 0.67,1.71 1.03,2.56 1.78,4.19 4.75,7.61 7.4,11.24 1.74,2.06 4.08,3.25 6.43,4.44 3.24,1.64 5.85,1.26 8.54,-1.12 2.02,-1.76 3.43,-3.94 4.42,-6.42 2.44,-6.14 3.75,-12.57 5.03,-19 1.97,-9.97 3.17,-20.02 2.63,-30.21 -0.21,-3.86 -0.94,-7.64 -2.54,-11.19 -1.93,-4.25 -3.3,-4.96 -7.94,-4.22l0 0c0.25,2.13 -1.11,3.47 -2.33,4.9z"/>
   <path class="fil4 str0" d="M624.34 159.7c-0.21,1.52 -1.75,2.07 -2.33,3.32 0,0 0,0 0,0l0 0c-0.1,1.48 -1.08,2.28 -2.31,2.86 0,0 0,0 0,0 0,0 0,0 0,0 -3.76,4.21 -6.78,8.94 -9.65,13.78 -4.72,7.94 -7.72,16.4 -7.74,25.78 -0.02,1.1 -0.41,2.2 -0.63,3.29 0,0 0,0 0,0 0.35,0.85 0.67,1.71 1.03,2.56 1.78,4.19 4.75,7.61 7.4,11.24 1.74,2.06 4.08,3.25 6.43,4.44 3.24,1.64 5.85,1.26 8.54,-1.12 2.02,-1.76 3.43,-3.94 4.42,-6.42 2.44,-6.14 3.75,-12.57 5.03,-19 1.97,-9.97 3.17,-20.02 2.63,-30.21 -0.21,-3.86 -0.94,-7.64 -2.54,-11.19 -1.93,-4.25 -3.3,-4.96 -7.94,-4.22l0 0c0.25,2.13 -1.11,3.47 -2.33,4.9z"/>
   <path class="fil1" d="M345.13 187.68c-3.68,-8.65 -9.44,-15.9 -15.22,-23.17 -1.48,-1.87 -3.21,-3.64 -4.15,-5.92 -0.59,-0.36 -0.83,-0.94 -1.09,-1.57 -0.93,-2.25 -2.82,-2.59 -4.57,-0.81 -0.58,0.58 -1.06,1.33 -1.4,2.08 -4.29,9.11 -3.68,18.7 -2.78,28.35 0.53,5.68 1.44,11.29 2.71,16.83 1.43,6.33 2.43,12.87 5.98,18.54 2.41,3.85 6.1,6.54 11.11,3.82 6.3,-3.41 10.75,-8.61 13.65,-15.14 0.38,-0.86 0.1,-1.83 0.03,-2.78 -0.42,-5.76 -1.49,-11.44 -2.71,-17.08 0,0 0,0 0,0 -1.35,-0.64 -1.11,-2.11 -1.56,-3.17z"/>
   <path class="fil5 str0" d="M345.13 187.68c-3.68,-8.65 -9.44,-15.9 -15.22,-23.17 -1.48,-1.87 -3.21,-3.64 -4.15,-5.92 -0.59,-0.36 -0.83,-0.94 -1.09,-1.57 -0.93,-2.25 -2.82,-2.59 -4.57,-0.81 -0.58,0.58 -1.06,1.33 -1.4,2.08 -4.29,9.11 -3.68,18.7 -2.78,28.35 0.53,5.68 1.44,11.29 2.71,16.83 1.43,6.33 2.43,12.87 5.98,18.54 2.41,3.85 6.1,6.54 11.11,3.82 6.3,-3.41 10.75,-8.61 13.65,-15.14 0.38,-0.86 0.1,-1.83 0.03,-2.78 -0.42,-5.76 -1.49,-11.44 -2.71,-17.08 0,0 0,0 0,0 -1.35,-0.64 -1.11,-2.11 -1.56,-3.17z"/>
   <path class="fil6" d="M333.74 244.87c0,0 0,0 0,0 1.26,-1.72 2.79,-3.2 4.5,-4.49 0.38,-0.4 0.75,-0.79 1.13,-1.18 0,0 0,0 0,0 1.49,-2.82 3.89,-4.75 6.32,-6.67 5.5,-6.33 8.75,-13.57 9.03,-22.04 -1.3,-0.36 -2.62,-0.72 -3.93,-1.08 0,0 0,0 0,0 0,0 0,0 0,0 -2.82,7.71 -7.67,13.72 -14.96,17.56 -3.97,2.1 -7.57,1.14 -10.53,-2.35 -3.36,-3.93 -4.64,-8.75 -5.86,-13.56 -3.42,-13.33 -5.6,-26.83 -4.85,-40.65 0.22,-4.03 0.87,-8.03 2.69,-11.72 2.11,-4.22 3.44,-4.91 8,-4.03 0.22,-0.39 0.43,-0.78 0.65,-1.17l0 0 0 0c-5.74,-3.67 -12.02,-4.53 -18.64,-3.67 -1.36,1.08 -2.15,2.58 -2.93,4.08 -2.85,5.46 -4.71,11.28 -5.54,17.35 -4.2,30.46 4.63,57.31 22.78,81.53 0,0 0,0 0,0 1.76,-0.76 3.54,-1.53 5.31,-2.29 2.28,-1.87 4.56,-3.75 6.83,-5.62z"/>
   <path class="fil7" d="M652.38 167.84c-1.32,-6.11 -2.82,-12.28 -7.19,-17.18 -3.4,0.04 -6.83,-0.85 -10.22,0.04 -2.06,0.54 -4.07,1.22 -6.58,1.98 -0.01,0.03 -0.01,0.07 -0.03,0.1 -0.01,0.03 -0.03,0.04 -0.03,0.07 8.35,2.28 8.85,9.19 9.32,15.13 0.78,9.87 0.13,19.76 -1.75,29.65 -1.37,7.25 -2.99,14.38 -5.35,21.33 -1.22,3.57 -3.07,6.86 -6.65,8.68 -2.85,1.44 -5.74,1.53 -8.49,-0.19 -1.98,-1.24 -3.83,-2.68 -5.78,-3.97 -0.68,-0.46 -1.18,-0.93 -1.08,-1.81 0,0 0,0 0,0 -3.36,-3.56 -5.56,-7.89 -7.99,-12.07 -0.57,0.26 -1.14,0.52 -1.71,0.76 -1.79,2.06 -0.62,4.32 -0.12,6.29 1.68,6.78 5.29,12.65 9.91,17.72 2.21,2.42 5,4.57 7.1,6.94 2.68,3.03 5.94,5.03 8.9,7.51 1.99,1.68 4.38,2.75 7.15,1.78 6.7,-8.47 11.61,-17.94 15.35,-28.02 6.59,-17.78 9.28,-35.98 5.24,-54.76z"/>
   <path class="fil8" d="M482.18 437.77c3.78,-4.61 6.32,-9.96 8.96,-15.24 0.72,-0.97 1.06,-1.93 2.33,-3.28 2.28,-2.24 3.07,-3.15 4.57,-4.5 5.62,-2.96 7.89,-2.26 12.57,-0.51 1.76,0.93 4.14,1.69 5.48,-1.2l0 0c0,0 0,0 0,0 3.79,-5.61 2.92,-7.53 -3.89,-8.53 -0.1,-0.01 -0.19,-0.01 -0.28,-0.03 -8.03,-1.14 -15.93,-0.53 -23.75,1.5 -7.67,2 -15.33,2.43 -23.11,0.32 -3.52,-0.96 -7.15,-1.64 -10.78,-2.06 -5.53,-0.64 -11.08,-0.64 -16.47,1.1 -2.96,0.96 -3.58,2.63 -2.36,5.47 1.63,3.76 3.5,4.72 7.32,2.89 4.59,-2.21 8.69,-1.54 12.25,1.65 2.85,2.57 5.11,5.72 6.97,9.15 2.6,4.78 4.76,9.86 8.57,13.86 4.08,4.28 7.83,4 11.61,-0.61z"/>
   <path class="fil7" d="M537 305.08c0,0 0,0 0,0 1.51,0.47 2.93,-0.04 4.36,-0.39 0.59,-0.58 1.22,-1.14 1.74,-1.78 1.7,-2.17 1.75,-4.67 0.21,-6.4 -1.58,-1.76 -3.96,-1.97 -6.33,-0.43 -0.85,0.56 -1.57,1.29 -2.35,1.96 0,0 0,0 0,0 -0.59,2.81 -0.83,5.51 2.38,7.04z"/>
   <polygon class="fil7" points="550.13,424.19 550.13,424.19 "/>
   <path class="fil7" d="M622.26 371.2c-0.9,4.96 -5.39,8.65 -10.59,8.71 -2.42,0.17 -4.14,-1.03 -5.35,-2.96 -1.23,-1.97 -0.87,-3.93 0.33,-5.8 2.24,-3.44 5.1,-5.96 9.33,-6.52 4.37,-0.57 7.06,2.26 6.28,6.57zm15.33 -31.46c-3.76,4.87 -7.65,9.2 -12.17,12.92 0,0 0,0 0,0 -2.11,1.89 -3.93,4.18 -6.82,5.02 -2.89,3.25 -6.7,5.15 -10.39,7.29 -8.71,5.04 -18.06,8.58 -27.44,12.06 -5.81,2.14 -11.19,5.15 -15.36,9.94 -0.54,0.62 -1.11,1.29 -2.1,1.19 0,0 0,0 0,0 0,0 0,0 0,0 -3.64,3.83 -5.78,8.61 -5.85,13.67 -0.14,8.35 -1.74,15.93 -7.33,22.36 4,-0.47 8,-1.01 12.01,-1.42 1.65,-0.15 2.04,-0.89 1.68,-2.42 -0.43,-1.82 -0.74,-3.67 -1.06,-5.51 -0.32,-1.86 0.08,-3.43 2.11,-4.03 2.07,-0.63 3.37,0.29 4.28,2.17 2.35,4.82 4.35,9.76 5.54,15.02 0.32,1.42 0.25,2.97 1.28,4.39 2.56,-2.24 5,-4.41 7.5,-6.52 10.96,-9.26 22.26,-18.15 31.6,-29.19 13.39,-15.85 20.83,-34.11 22.85,-54.68 0,0 0,0 0,0 -0.1,-0.63 -0.18,-1.25 -0.33,-2.25z"/>
   <path class="fil7" d="M509.36 425.05c-0.79,-0.31 -1.58,-0.61 -2.36,-0.93 -3.94,-1.67 -4.06,-1.75 -6.32,1.82 -2.67,4.21 -5.06,8.58 -7.61,12.85 -2.54,4.22 -5.39,8.18 -9.93,10.51 -1.81,0.93 -1.87,2.35 -1.33,4.06 3.08,9.92 8.96,17.5 18.6,21.76 13.22,5.86 26.68,5.3 40.19,1.2 1.96,-0.6 4.02,-1.13 5.75,-2.75 -1.83,-0.5 -3.39,-0.87 -4.9,-1.35 -8.5,-2.69 -16.49,-6.32 -23.11,-12.47 -1.18,-1.11 -2.08,-2.37 -0.83,-3.9 1.22,-1.49 2.64,-0.99 4,-0.03 7.97,5.65 17.07,8.21 26.61,9.08 10.37,0.94 9.56,2.13 14.89,-9.24 0.85,-1.79 0.59,-2.36 -1.56,-2.39 -10.78,-0.12 -21.28,-2.08 -31.56,-5.28 -2.51,-0.78 -4.96,-1.78 -7.37,-2.78 -1.28,-0.53 -2.33,-1.44 -1.85,-3.04 0.47,-1.56 1.75,-1.82 3.18,-1.6 0.56,0.08 1.13,0.18 1.65,0.35 10.59,3.18 21.48,3.6 32.39,3.03 9.65,-0.51 7.97,0.85 7.85,-8.63 -0.03,-2.19 -0.81,-2.86 -3,-2.86 -10.71,0 -21.42,-0.17 -32.13,-0.24 -1.78,-0.02 -3.42,-0.15 -4.19,-2.1 0,0 0,0 0,0 -5.1,-0.17 -9.96,-1.39 -14.67,-3.35 -0.96,-0.39 -1.94,-0.68 -2.39,-1.74z"/>
   <path class="fil7" d="M421.08 432.23c-10.71,0.04 -21.43,0.18 -32.14,0.22 -1.86,0 -2.78,0.58 -2.76,2.57 0.04,9.86 -2.09,8.39 8.09,8.97 11.11,0.64 22.15,-0.21 32.96,-3.26 1.61,-0.46 3.3,-0.59 3.93,1.49 0.58,1.97 -0.93,2.65 -2.35,3.24 -3.47,1.46 -7.02,2.69 -10.65,3.69 -9,2.46 -18.15,3.97 -27.52,4.1 -2.04,0.03 -2.72,0.43 -1.75,2.56 1.14,2.47 2.37,4.89 3.83,7.19 0.91,1.49 2.17,2.32 3.91,2.31 11.59,-0.1 22.57,-2.39 32.53,-8.6 1.67,-1.04 3.46,-3.25 5.26,-0.69 1.74,2.43 -0.81,3.74 -2.26,4.96 -6.88,5.79 -14.94,9.31 -23.52,11.75 -0.98,0.28 -1.96,0.6 -2.93,0.89 15.22,6.51 30.44,8.17 45.75,1.48 9.64,-4.21 15.54,-11.83 18.63,-21.78 0.58,-1.89 0.37,-3.15 -1.58,-4.13 -3,-1.49 -5.17,-4 -7.18,-6.63 -3.52,-4.57 -5.81,-9.87 -8.78,-14.76 -3.43,-5.65 -3.44,-5.64 -9.46,-2.9 0,0 0,0 0,0 -5.31,3.51 -11.15,5.14 -17.52,4.93 -0.76,2.18 -2.5,2.39 -4.51,2.4z"/>
   <path class="fil7" d="M342.73 382.66c-6.13,-0.19 -12.43,-6.74 -12.39,-12.87 0.02,-3.08 1.38,-4.67 4.44,-5.17 5.75,-0.93 14.18,5.02 15.18,10.71 0.71,3.99 -2.75,7.47 -7.24,7.33zm56.96 39.57c-4.49,-5.31 -5.39,-11.58 -5.7,-18.32 -0.43,-9.41 -5.48,-16.49 -13.13,-21.74 -6.36,-4.39 -13.65,-6.68 -20.8,-9.42 -5.13,-1.96 -10.64,-3.46 -15,-7.18l0 0c-2.25,-1.32 -4.49,-2.64 -6.74,-3.94 0,0 0,0 0,0 0,0 0,0 0,0 -1.03,0.18 -1.54,-0.75 -2.33,-1.07 0,0 0,0 0,0 -4.13,-2.03 -7.68,-4.96 -10.96,-8.06 -3.1,-2.94 -7.02,-5.24 -8.76,-9.46 -0.35,-0.53 -0.63,-1.15 -1.74,-1.25 0,1.39 0,2.75 0,4.1 2.3,19.19 9.83,36.07 22.29,50.83 9.4,11.12 20.81,20.06 31.83,29.42 2.4,2.04 4.79,4.09 7.44,6.37 0.25,-1.02 0.43,-1.63 0.57,-2.24 1.33,-6.08 3.18,-11.97 6.14,-17.49 0.89,-1.67 2.18,-2.62 4.14,-2.03 1.98,0.6 2.48,2.15 2.22,4.02 -0.26,1.85 -0.57,3.71 -1.03,5.53 -0.36,1.48 -0.21,2.32 1.56,2.46 3.17,0.28 6.33,0.68 9.52,1.02 1,-0.25 1.18,-0.71 0.47,-1.56z"/>
   <path class="fil1" d="M314.53 345.9c-0.1,-0.29 -0.15,-0.58 -0.22,-0.87 0.03,0.29 0.1,0.58 0.22,0.87z"/>
   <path class="fil7" d="M355.23 289.02c0,0 0,0 0,0 1.14,-0.78 2.26,-1.56 3.39,-2.33 0,0 0,0 0,0 1.48,-1.29 3.4,-1.74 5.12,-2.52 6.26,-2.82 12.64,-4.68 19.15,-5.46 0.06,0 0.1,0 0.14,-0.01 0.97,-0.11 1.94,-0.2 2.91,-0.26 0.1,0 0.2,-0.02 0.29,-0.02 0.42,-0.03 0.85,-0.04 1.26,-0.07 0.26,0 0.54,-0.01 0.82,-0.01 0.37,-0.02 0.75,-0.03 1.12,-0.03 0.59,0 1.18,0 1.78,0.03 0.28,0 0.57,0.01 0.86,0.03 0.44,0.01 0.87,0.04 1.32,0.07 0.25,0.01 0.51,0.03 0.78,0.06 0.67,0.06 1.33,0.11 2,0.19 0.15,0.02 0.31,0.03 0.46,0.06 0.58,0.07 1.15,0.15 1.74,0.24 0.21,0.03 0.4,0.06 0.61,0.1 0.71,0.11 1.43,0.24 2.15,0.39 10.78,2.17 20.69,6.11 28.26,14.58 4.92,5.51 7.32,12.15 8.76,19.24 0.72,-0.78 0.51,-1.75 0.56,-2.68 0.25,-5.82 -1.03,-11.33 -3.42,-16.63l0 0c-5.21,-10.11 -13.71,-16.19 -24.24,-19.79 -8.01,-2.74 -16.22,-3.26 -24.58,-2.15 -6.72,0.89 -13.1,2.68 -19.02,6.14 -0.53,0.32 -1.03,0.68 -1.51,1.06 -3.6,1.93 -6.99,4.28 -9.42,7.58 -0.01,0.01 -0.01,0.04 -0.04,0.07 -0.64,0.79 -1.2,1.65 -1.7,2.59 0.14,-0.15 0.29,-0.3 0.43,-0.44 0,0 0,0 0,0z"/>
   <path class="fil9" d="M596.78 210.47l0 0c0.69,-0.03 1.37,-0.07 2.07,-0.09 0.57,-0.25 1.15,-0.52 1.72,-0.76 0.37,-0.29 0.75,-0.58 1.11,-0.88 0,0 0,0 0,0 0,0 0,0 0,0 0.22,-1.09 0.63,-2.19 0.63,-3.29 0.01,-9.37 3.03,-17.83 7.75,-25.78 2.88,-4.83 5.88,-9.57 9.64,-13.78 0,0 0,0 0,0 0.58,-0.97 1.18,-1.93 1.76,-2.89 0.39,-1.6 1.62,-2.46 2.87,-3.3 1.22,-1.43 2.6,-2.79 2.35,-4.9l0 0c-0.26,-0.44 -0.51,-0.89 -0.76,-1.33 0,0 0,0 0,0 -1.86,-1.4 -3.68,-1.22 -5.51,0.06 -0.54,0.85 -1.26,1.47 -2.25,1.75 -0.57,0.94 -1.39,1.63 -2.33,2.17 -2.41,2.47 -4.83,4.93 -7.25,7.39 -0.6,1.44 -1.67,2.47 -2.86,3.4l0 0c-1.97,2.85 -4.09,5.6 -5.89,8.54 -4.25,7.03 -7.87,14.36 -7.62,22.85 0.12,4.1 0.44,8.35 4.58,10.85z"/>
   <path class="fil1" d="M622.48 308.64c-3.38,-0.83 -6.1,0.36 -8.26,2.91 -6.22,7.33 -8,15.48 -4.5,24.59 1.18,1.15 2.26,2.43 3.58,3.42 2.64,1.96 5.42,1.15 8.14,0.03l0 0 0 0c7.72,-6.42 10.06,-14.62 7.89,-24.22 -0.82,-3.58 -3.25,-5.83 -6.85,-6.72z"/>
   <path class="fil1" d="M590.39 347.75c-1.28,0.28 -2.53,0.68 -3.79,1.03 0,0 0,0 0,0 -1.53,0.74 -3.06,1.48 -4.58,2.24 -2.24,1.74 -4.49,3.46 -6.74,5.18 0,0 0,0 0,0 -4.64,5.78 -2.57,11.5 4.75,13.03 8.63,1.82 18.18,-5.6 18.64,-14.44 0.24,-4.68 -3.71,-8.04 -8.28,-7.03z"/>
   <path class="fil1" d="M623.26 272.11c-2.79,0.39 -5.13,2.71 -5.68,5.89 -0.56,3.29 -0.37,6.56 0.96,9.68 1.69,3.98 4.86,5.94 8.59,5.25 3.29,-0.61 5.25,-3.58 5.25,-8.28 -0.08,-2.83 -0.72,-5.85 -2.24,-8.63 -1.56,-2.86 -4.15,-4.29 -6.89,-3.92z"/>
   <path class="fil1" d="M507.37 183.48c2.35,0 4.67,-0.02 6.93,0.64 2.57,0.75 5.06,0.85 7,-1.29 2.08,-2.31 1.46,-4.82 0.22,-7.29l0 0c-6.76,-5.78 -15.9,-5.53 -20.69,0.56 -0.52,5.1 1.46,7.37 6.54,7.39z"/>
   <path class="fil1" d="M458.42 285.83c-3.38,-2.26 -6.64,-2.18 -10.07,0.37 0,0 0,0 0,0 -2.13,5.42 0.93,12.67 6.26,14.85 3.71,1.53 6.71,0.13 8.03,-3.68 0.85,-2.44 0.28,-4.8 -0.32,-7.18 -1.24,-1.51 -2.21,-3.22 -3.9,-4.36z"/>
   <path class="fil1" d="M475.09 232.69c-0.87,3.47 1.57,6.78 5.13,6.72 5.47,-0.07 9.33,-2.87 12.04,-7.47 -0.04,-1.29 -0.1,-2.58 -0.15,-3.87 0,0 0,-0.02 0,-0.02 -0.15,-0.36 -0.31,-0.72 -0.46,-1.08 -0.54,-0.61 -1.08,-1.21 -1.62,-1.8l0 0c-5.89,-2.44 -13.39,1.35 -14.93,7.53z"/>
   <path class="fil1" d="M505.36 252.63c1.12,-2.09 1.03,-4.17 -0.29,-6.11 -1.47,-2.17 -3.64,-2.86 -6.14,-2.5 -1.09,0.15 -2.17,0.58 -3.24,0.89 0,0 0,0 0,0 -2.71,1.58 -4.83,3.78 -6.74,6.24 -1.04,2.8 -0.29,5.18 1.75,7.24 0,0 0,0 0,0 5.53,1.9 11.89,-0.6 14.65,-5.75z"/>
   <path class="fil1" d="M557.66 234.9c-3.49,2.3 -3.27,6.86 0.37,8.97 2.33,1.33 4.87,1.85 7.39,1.98 4.06,-0.06 6.96,-2.42 7.25,-5.78 0.31,-3.39 -1.81,-6.02 -5.63,-6.91 -3.37,-0.79 -6.53,-0.17 -9.39,1.72z"/>
   <path class="fil1" d="M549.09 215.9c-3.92,1.15 -5.1,5.68 -2.38,8.75 1.96,2.19 4.53,2.85 7,2.89 2.63,-0.07 4.81,-0.53 6.59,-2.1 2.19,-1.94 2.47,-5.21 0.35,-6.9 -3.38,-2.68 -7.26,-3.91 -11.56,-2.64z"/>
   <path class="fil1" d="M505.09 285.65c-2.1,-1.65 -4.31,-1.6 -6.53,-0.25 -2.72,1.65 -4.21,4.19 -4.93,7.21 -0.6,2.5 -0.39,4.86 1.76,6.65 2.19,1.82 4.35,1.06 6.47,-0.21 1.11,-1.15 2.24,-2.31 3.35,-3.46 0,0 0,0 0,0 0.54,-1.29 1.21,-2.54 1.59,-3.89 0.68,-2.33 0.3,-4.46 -1.72,-6.06z"/>
   <path class="fil1" d="M478.32 300.71c-3.32,0.11 -6.19,3.14 -6.17,6.49 0.04,4.01 4,7.92 8.06,7.96 3.31,0.03 5.54,-2.61 5.48,-6.48 -0.07,-4.58 -3.32,-8.1 -7.37,-7.96z"/>
   <path class="fil1" d="M423.5 242.35c-6.22,-0.28 -9.72,5.09 -6.92,10.67 1.13,2.25 2.97,3.82 5.01,5.22 3.83,2.64 7.26,5.64 9.24,10.02 2,4.42 4.64,6.46 7.31,5.82 2.87,-0.69 4.58,-3.79 4.68,-8.5 0.1,-5.17 -1.93,-10.86 -5.67,-15.9 -3.41,-4.6 -7.93,-7.07 -13.65,-7.32z"/>
   <path class="fil1" d="M480.6 282.53c5.17,-2.11 5.82,-8.47 1.35,-11.78 -1.92,-1.42 -4.1,-1.81 -6.39,-1.88 -1.03,0.09 -2.07,0.13 -3.08,0.28 -2.92,0.44 -5.15,1.86 -5.89,4.87 -0.72,2.96 0.43,5.36 2.82,7.14 3.44,2.56 7.31,2.96 11.19,1.36z"/>
   <path class="fil1" d="M376.02 355.58c-1.69,-1.53 -3.37,-3.07 -5.07,-4.6 0,0 0,0 0,0 -3.32,-1.92 -6.53,-4.08 -10.24,-5.22 -2.91,-0.89 -5.79,-0.94 -8.14,1.39 -2.43,2.4 -2.44,5.36 -1.5,8.37 2.32,7.47 10.11,12.35 17.99,11.32 6.24,-0.81 9.04,-5.37 6.96,-11.26z"/>
   <path class="fil1" d="M380.32 236.96c0.92,2.81 3.17,4.11 7.29,3.94 6.25,-0.24 12.22,-1.87 18.13,-3.76 1.53,-0.48 2.87,-1.39 4.03,-2.53 3.46,-3.42 2.57,-8.18 -1.92,-10.06 -2.19,-0.92 -4.52,-1.25 -6.9,-1.15 -6.29,0.28 -12.28,1.63 -17.43,5.49 -2.98,2.24 -4.13,5.22 -3.19,8.07z"/>
   <path class="fil1" d="M501.41 207.35c1.18,0.43 2.39,0.46 3.61,0.47 3.52,-0.06 7.91,-1.32 12.42,-3.38 2.04,-0.93 3.54,-2.17 3.58,-4.56 0.04,-2.48 -1.17,-4.33 -3.26,-5.53 -4.76,-2.74 -15.29,-0.9 -18.93,3.24 -3.37,3.85 -2.25,7.99 2.58,9.75z"/>
   <path class="fil1" d="M533.21 209.02c1.92,1.09 4.03,1.43 5.98,1.61 2.32,0.08 4.13,-0.47 4.97,-2.64 0.85,-2.17 -0.12,-3.8 -1.75,-5.17 -2.28,-1.89 -4.86,-2.68 -7.82,-2.21 -2.14,0.35 -3.74,1.35 -4.07,3.61 -0.33,2.22 0.81,3.74 2.68,4.79z"/>
   <path class="fil1" d="M353.48 263.98c6.8,-1.17 12.56,-4.33 16.86,-9.82 3.17,-4.03 1.78,-8.57 -3.04,-10.38 -1.43,-0.53 -2.92,-0.62 -4.47,-0.71 -6.26,0.72 -12.1,2.49 -16.6,7.24 -3.04,3.21 -3.78,6.74 -2.24,9.75 1.54,3.01 5.17,4.65 9.49,3.92z"/>
   <path class="fil1" d="M615.99 364.63c-4.24,0.54 -7.11,3.07 -9.33,6.52 -1.21,1.87 -1.57,3.83 -0.35,5.81 1.22,1.93 2.93,3.12 5.36,2.96 5.21,-0.07 9.69,-3.75 10.6,-8.71 0.78,-4.31 -1.91,-7.14 -6.28,-6.57z"/>
   <path class="fil1" d="M631.79 250.62l0 0c-0.2,0.81 -0.72,1.4 -1.35,1.92 0,0 0,-0.02 0,-0.02 0,0.02 0,0.02 0,0.02 -0.98,2.14 -0.26,4.26 0.1,6.4 0,0 0,0 0,0 3.46,8.49 5.06,17.44 6.58,26.41 2.92,17.12 3.36,34.35 1.67,51.62 -0.04,0.35 -0.24,0.7 -0.35,1.03 -0.03,1.35 0.1,2.72 -0.51,3.99 -2.02,20.57 -9.46,38.85 -22.85,54.69 -9.33,11.04 -20.64,19.93 -31.6,29.2 -2.5,2.09 -4.94,4.28 -7.5,6.51 -1.03,-1.42 -0.96,-2.98 -1.28,-4.39 -1.19,-5.25 -3.19,-10.19 -5.54,-15.01 -0.91,-1.87 -2.21,-2.79 -4.28,-2.17 -2.03,0.59 -2.43,2.15 -2.11,4.01 0.32,1.85 0.63,3.71 1.06,5.53 0.36,1.53 -0.03,2.25 -1.68,2.42 -4.01,0.4 -8.01,0.93 -12.01,1.42 0,0 0,0 0,0 0,0 0,0 0,0l0 0c-0.85,0.06 -1.7,0.11 -2.54,0.18 -5.81,1.36 -11.76,1.65 -17.64,2.57 -1.94,0.31 -3.39,0.99 -3.54,3.2 0,0 0,0 0,0 0,0 0,0 0.02,0 0.78,1.94 2.4,2.08 4.18,2.09 10.7,0.07 21.41,0.24 32.12,0.24 2.2,0 2.97,0.67 3,2.86 0.13,9.47 1.81,8.11 -7.85,8.61 -10.9,0.58 -21.79,0.17 -32.39,-3.01 -0.53,-0.17 -1.09,-0.26 -1.65,-0.35 -1.43,-0.22 -2.71,0.04 -3.18,1.59 -0.49,1.6 0.57,2.52 1.85,3.04 2.42,1 4.86,1.98 7.37,2.78 10.28,3.2 20.78,5.15 31.56,5.28 2.15,0.03 2.41,0.6 1.56,2.39 -5.33,11.36 -4.51,10.18 -14.89,9.24 -9.54,-0.88 -18.64,-3.43 -26.61,-9.08 -1.36,-0.96 -2.78,-1.46 -4,0.03 -1.24,1.53 -0.35,2.79 0.83,3.9 6.63,6.15 14.61,9.78 23.11,12.46 1.52,0.49 3.07,0.86 4.91,1.36 -1.74,1.63 -3.8,2.15 -5.74,2.75 -13.53,4.09 -26.99,4.67 -40.21,-1.2 -9.63,-4.26 -15.52,-11.85 -18.6,-21.76 -0.54,-1.72 -0.47,-3.13 1.33,-4.06 4.54,-2.33 7.39,-6.29 9.93,-10.51 2.56,-4.27 4.94,-8.64 7.61,-12.85 2.26,-3.57 2.37,-3.48 6.33,-1.82 0.78,0.32 1.57,0.61 2.35,0.93 10.25,0.18 17.56,-6.2 18.11,-15.81 0.35,-5.97 -2.39,-10.69 -7.86,-13.07 -6.46,-2.79 -13.3,-3.09 -20.2,-2.64 -5.35,0.35 -10.61,1.4 -15.79,2.72 -5.15,1.31 -10.22,1.25 -15.32,0.02 -8.71,-2.1 -17.47,-3.64 -26.49,-2.47 -1.94,0.25 -3.91,0.54 -5.8,1.06 -11.28,3.11 -15.03,12.94 -8.76,22.85 3.72,5.88 8.9,8.49 15.86,7.18l0 0c0,0 0,0 0,0 6,-2.72 6.03,-2.74 9.46,2.92 2.97,4.89 5.25,10.18 8.76,14.76 2.03,2.63 4.19,5.14 7.19,6.63 1.96,0.97 2.17,2.22 1.59,4.13 -3.09,9.93 -8.99,17.56 -18.63,21.76 -15.31,6.69 -30.53,5.04 -45.76,-1.47 0.98,-0.31 1.96,-0.61 2.94,-0.89 8.57,-2.46 16.62,-5.96 23.51,-11.75 1.46,-1.24 4,-2.53 2.26,-4.97 -1.8,-2.56 -3.61,-0.33 -5.26,0.71 -9.96,6.21 -20.96,8.49 -32.53,8.6 -1.75,0.02 -3,-0.83 -3.92,-2.31 -1.46,-2.32 -2.69,-4.72 -3.83,-7.2 -0.97,-2.13 -0.29,-2.52 1.75,-2.54 9.35,-0.13 18.52,-1.64 27.52,-4.11 3.64,-0.99 7.18,-2.24 10.65,-3.68 1.42,-0.58 2.93,-1.28 2.35,-3.24 -0.63,-2.08 -2.32,-1.94 -3.94,-1.49 -10.79,3.06 -21.83,3.89 -32.96,3.26 -10.17,-0.58 -8.04,0.88 -8.09,-8.97 0,-1.98 0.92,-2.57 2.78,-2.57 10.71,-0.04 21.43,-0.2 32.14,-0.22 2.01,-0.01 3.75,-0.22 4.51,-2.41 -0.47,-1.93 -1.83,-2.54 -3.68,-2.81 -6.46,-0.92 -12.97,-1.46 -19.36,-2.83 0,0 0,0 0,0l0 0c-1.14,0.11 -2.29,0.22 -3.35,-0.39 -3.17,-0.35 -6.33,-0.75 -9.51,-1.02 -1.75,-0.14 -1.92,-0.97 -1.54,-2.46 0.46,-1.82 0.75,-3.68 1.02,-5.54 0.26,-1.85 -0.24,-3.4 -2.22,-4.02 -1.96,-0.59 -3.25,0.38 -4.14,2.04 -2.94,5.5 -4.81,11.4 -6.14,17.49 -0.14,0.61 -0.31,1.22 -0.57,2.22 -2.65,-2.26 -5.04,-4.32 -7.44,-6.36 -11.03,-9.36 -22.43,-18.29 -31.82,-29.42 -12.46,-14.76 -19.98,-31.64 -22.31,-50.83 0,0 0,0 0,0 -0.12,-0.29 -0.19,-0.58 -0.22,-0.89 -0.5,-1.96 -0.69,-3.96 -0.74,-5.99 0,0 0,0 0,0 0,0 0,0 0,0 -1.15,-5.36 -1.19,-10.82 -1.35,-16.26 -0.6,-21.9 2.18,-43.33 9,-64.18 0.64,-1.93 0.93,-3.82 0.37,-5.79 0,0 0,0 0,0 0,0 0,0 0,0 -18.15,-24.24 -26.98,-51.09 -22.78,-81.53 0.83,-6.08 2.7,-11.89 5.54,-17.36 0.78,-1.5 1.57,-3 2.93,-4.08 5.07,-7.78 12.6,-9.83 21.3,-9.02 11.3,1.07 20.94,6.22 30,12.63 3.82,2.71 7.41,5.72 11.11,8.61 0,0 0,0 0,0l0 0c1.24,-0.18 1.85,0.75 2.54,1.47 2.99,3.04 5.94,6.11 8.92,9.18l0 0 0 0c1.97,0.26 3.86,0.6 2.82,3.39 0.5,0.87 1.36,1.62 1.13,2.82 0.25,1.59 -1.14,1.79 -2.03,2.48 -0.76,0.57 -1.78,0.86 -2.32,1.72 -0.47,0.33 -0.96,0.67 -1.42,1 -0.87,0.64 -1.35,1.46 -1.52,2.32 -0.94,1.29 -0.08,2.24 0.72,3.17 0.13,0.17 0.25,0.32 0.39,0.47 0.07,0.08 0.14,0.18 0.19,0.26 0.14,0.21 0.31,0.28 0.47,0.26 0.94,0.58 2.15,0.65 3.39,-0.24 24.4,-17.67 54.58,-27.76 84.78,-24.21 0.82,0.21 1.64,0.46 2.46,0.7 3.79,1.11 7.57,1.01 11.32,0 0.96,-0.26 1.94,-0.47 2.93,-0.65 6.47,-0.44 12.93,-0.87 19.42,-0.83 1.28,0.1 2.56,0.21 3.82,0.36 2.08,0.26 6.03,0.92 7.57,0.97 0.18,0.14 0.32,0.24 0.33,0.22 0.36,-0.24 2.36,0.24 2.69,0.11 2.14,0.46 4.28,0.99 6.39,1.57 0.71,0.35 1.43,0.65 2.17,0.76 0.58,0.08 1.15,0.21 1.71,0.33 1.54,0.46 3.07,0.93 4.58,1.4 1.42,0.53 2.82,1.11 4.22,1.7 2.96,1.23 5.93,2.43 8.83,3.78 0.35,0.32 0.76,0.58 1.26,0.78 0.61,0.22 1.21,0.47 1.81,0.72 1.4,0.74 2.78,1.52 4.13,2.37 0.41,0.26 0.76,0.35 1.07,0.32 5.49,3.26 10.57,7.49 15.64,11.07 1.94,1.37 4.41,0 5.22,-1.93 0.25,-0.32 0.4,-0.63 0.39,-0.83 -0.02,-0.1 -0.06,-0.22 -0.11,-0.33 0.03,-0.62 -0.14,-1.26 -0.54,-1.85 -1.35,-1.9 -2.92,-3.53 -4.61,-5.01 0.3,-0.75 -0.89,-1.03 -1.43,-1.18 -0.01,0 -0.01,0 -0.03,0 -0.36,-0.29 -0.75,-0.57 -1.12,-0.85 1.41,-2.89 2.78,-6.03 4.44,-8.88 0.03,0 0.06,0.02 0.07,0.03l0 0c3.54,-4.08 7.52,-7.74 11.57,-11.29 1.51,-1.33 2.86,-2.9 4.98,-3.3 0,0 0,0 0,0l0 0c6.2,-4.17 12.33,-8.41 19.2,-11.46 7.32,-3.25 14.94,-5.15 22.98,-3.86 5.68,0.9 10.4,3.62 13.43,8.76 0,0 0,0 0,0 0,0 0,0 0,0 0.21,0.28 0.42,0.56 0.63,0.82 4.37,4.9 5.87,11.06 7.2,17.18 4.04,18.78 1.35,36.98 -5.24,54.76 -3.74,10.07 -8.65,19.54 -15.35,28.01zm-161.22 187.75c-3.81,-3.99 -5.97,-9.08 -8.57,-13.85 -1.86,-3.44 -4.12,-6.59 -6.97,-9.15 -3.56,-3.2 -7.65,-3.86 -12.25,-1.65 -3.82,1.83 -5.71,0.86 -7.32,-2.9 -1.22,-2.83 -0.6,-4.5 2.36,-5.46 5.38,-1.74 10.94,-1.74 16.47,-1.1 3.63,0.42 7.26,1.09 10.78,2.06 7.76,2.11 15.44,1.68 23.11,-0.32 7.82,-2.04 15.72,-2.64 23.75,-1.51 0.08,0.01 0.18,0.03 0.28,0.04 6.81,1 7.68,2.92 3.89,8.53l0 0c-1.26,2.91 -3.82,2.01 -5.48,1.19 -4.42,-2.18 -8.47,-1.87 -12.57,0.51 0,0 0,0 0,0 -1.53,1.5 -3.04,3 -4.57,4.5 -1.14,1.24 -1.73,2.46 -2.33,3.28 -2.64,5.28 -5.18,10.61 -8.96,15.24 -3.78,4.61 -7.53,4.89 -11.61,0.6zm50.96 63.11c-9.53,6.75 -20.39,9.85 -31.82,11.17 -14.61,1.68 -29.08,1 -43.25,-3.3 -11,-3.35 -20.17,-9.33 -27.31,-19.5 8.9,1.17 17.14,1.07 25.31,-0.59 12.63,-2.56 22.87,-8.79 29.97,-19.72 1.08,-1.65 1.64,-2.11 2.96,-0.11 8.75,13.4 21.71,19.36 37.17,20.87 5.89,0.58 11.74,0.29 18.14,-0.48 -3.17,4.97 -6.86,8.62 -11.17,11.67zm143.09 -312.18c0.56,-13.5 -1.2,-26.64 -7.07,-39 -6.58,-13.85 -19.52,-21.58 -33.75,-20.28 -9.69,0.91 -18.69,3.96 -27.15,8.71 -14.22,7.99 -26.13,18.65 -36.11,31.46 -1.39,1.78 -2.44,2.04 -4.4,0.92 -7.04,-4.02 -14.47,-7.2 -22.26,-9.46 -16.04,-4.65 -32.37,-7.15 -49,-4.58 -6.03,0.93 -11.75,1.83 -17.65,-0.13 -1.3,-0.43 -2.78,-0.46 -4.18,-0.53 -23.74,-1.25 -46.18,3.41 -67.04,14.96 -2.17,1.21 -3.1,0.76 -4.53,-1.03 -13.22,-16.61 -28.82,-30.14 -49.18,-37.32 -9.72,-3.43 -19.64,-4.54 -29.52,-0.7 -11.48,4.46 -17.46,13.87 -21.25,24.87 -5.75,16.74 -5.44,33.82 -1.92,50.93 3.43,16.58 10.08,31.83 19.74,45.75 0.94,1.36 1.48,2.56 0.9,4.39 -5.98,18.88 -8.56,38.28 -8.74,58.03 -0.12,7.44 0.44,14.85 1.28,22.23 1.58,14.15 4.36,28 10.51,41.03 7.21,15.22 17.85,27.7 30.2,38.94 8.26,7.54 17.33,14.15 25.4,21.91 4.21,4.03 7.22,8.48 8.64,14.44 3.22,13.67 11.49,23.64 24.28,29.69 2.47,1.17 4.37,2.85 5.53,5.36 5.26,11.42 13.72,19.85 25.06,24.93 27.35,12.28 55.26,12.36 83.07,1.86 13.76,-5.2 24.14,-14.72 29.93,-28.63 0.65,-1.58 1.9,-2.21 3.29,-2.83 13.42,-5.96 22.18,-16.09 25.67,-30.25 1.53,-6.24 4.59,-11.03 9.17,-15.06 8.18,-7.21 16.57,-14.18 24.75,-21.39 14.21,-12.53 25.75,-27.06 32.83,-44.83 6.04,-15.12 8.22,-31.06 9.04,-47.12 1.09,-21.64 -1.13,-43.02 -7.24,-63.86 -1.31,-4.44 -1.07,-7.9 1.67,-12.03 12.29,-18.56 19.1,-39.07 20.04,-61.39z"/>
   <path class="fil9" d="M426.42 323.56c-16.04,10.52 -38.69,4.39 -47.75,-12.92 -1.94,-3.69 -3.12,-7.64 -4.28,-11.59 -0.54,-1.83 0.07,-2.78 1.72,-3.52 5.57,-2.5 11.35,-3.96 17.44,-4.14 -1.19,1.87 -1.71,4.26 -1.85,6.39 -0.07,1.15 -0.03,2.58 0.26,3.96 0.06,0.43 0.13,0.87 0.22,1.32 0.25,1.2 0.54,2.35 0.92,3.46 0.64,2.4 1.65,4.44 3.2,6.03 1.19,1.43 2.68,2.64 4.54,3.53 0,0.01 0,0.01 0,0.03 0,0 0,0 0,0l0 0c0.07,0.03 0.15,0.06 0.24,0.08 0.21,0.1 0.42,0.19 0.64,0.28 0.69,0.28 1.3,0.33 1.85,0.21 3.07,0.22 5.74,-1.11 7.97,-3.5 3.51,-3.78 4.93,-8.35 4.19,-13.53 -0.11,-0.8 -0.48,-1.62 0,-2.7 5.13,2.54 8.58,6.54 10.92,11.61 1.61,3.47 2.04,7.21 2.32,10.97 0.14,1.94 -1.04,3.06 -2.56,4.04zm11.75 -10.28c-1.44,-7.08 -3.83,-13.72 -8.76,-19.24 -7.57,-8.49 -17.47,-12.42 -28.26,-14.6 -0.72,-0.14 -1.43,-0.26 -2.15,-0.37 -0.2,-0.04 -0.41,-0.07 -0.61,-0.1 -0.57,-0.1 -1.15,-0.17 -1.72,-0.25 -0.15,-0.02 -0.31,-0.03 -0.46,-0.06 -0.68,-0.07 -1.35,-0.14 -2.01,-0.18 -0.26,-0.03 -0.52,-0.04 -0.78,-0.06 -0.44,-0.03 -0.87,-0.06 -1.32,-0.07 -0.28,-0.02 -0.57,-0.03 -0.86,-0.04 -0.6,-0.01 -1.18,-0.01 -1.78,-0.01 -0.37,0 -0.75,0.01 -1.13,0.01 -0.26,0.02 -0.54,0.02 -0.82,0.03 -0.42,0.02 -0.83,0.04 -1.25,0.06 -0.11,0.01 -0.21,0.01 -0.31,0.03 -0.97,0.07 -1.94,0.15 -2.9,0.26 -0.06,0 -0.1,0.01 -0.14,0.01 -6.51,0.78 -12.9,2.64 -19.15,5.44 -1.74,0.78 -3.64,1.22 -5.13,2.52 0,0 0,0 0,0 -1.14,0.78 -2.26,1.57 -3.4,2.35 0,0 0,0 0,0 0,0 0,0 0,0 -0.14,0.14 -0.28,0.29 -0.43,0.44 -0.43,0.44 -0.86,0.89 -1.29,1.33l0 0 0 0c-0.19,0.02 -0.4,0.03 -0.6,0.04 0,0 0,0 0,0 0,0 0,0 0,0 -1.64,1.24 -1.68,2.43 0.09,3.58 2.76,1.79 5.17,3.94 6.76,6.9 0,0 0,0 0,0l0 0c0.17,0.2 0.33,0.39 0.5,0.59 1.06,0.36 1.51,1.22 1.86,2.18 0,0 0,0 0,0 3.76,4.47 6.44,9.65 9.5,14.59 0.99,0.79 1.74,1.76 2.25,2.9 2.07,2.08 4.13,4.17 6.18,6.25l0 0 0 0c10.56,8.38 22.44,12.25 35.96,10.65 0.07,-0.04 0.15,-0.08 0.22,-0.13 1.97,-0.39 4.06,-0.64 5.97,-1.25 0.57,-0.18 1.13,-0.4 1.68,-0.63 0.11,-0.03 0.21,-0.06 0.32,-0.07 -0.46,1.69 -0.94,3.37 -1.5,5.04 -1.58,3.97 -3.93,7.57 -5.97,11.29 -4.75,8.64 -10.11,16.94 -13.63,26.24 -0.61,1.63 -1.04,3.2 -0.54,4.93 0.75,2.53 2.39,3.14 4.37,1.36 1.39,-1.24 2.64,-2.68 3.7,-4.22 3.6,-5.28 6.89,-10.76 10.63,-15.93 8.25,-11.4 14.67,-23.47 16.8,-37.18 1.13,-4.76 1.79,-9.59 0.15,-14.18 -0.02,-0.15 -0.03,-0.32 -0.04,-0.47z"/>
   <path class="fil1" d="M547.33 197.14c0.5,-0.07 1.85,-0.1 3.08,-0.46 3.79,-1.12 5.28,-5.71 2.96,-8.9 -3.12,-4.31 -12.93,-6.98 -17.8,-4.87 -3.57,1.56 -4.59,5.46 -1.96,8.3 3.44,3.75 7.68,5.96 13.72,5.93z"/>
   <path class="fil1" d="M402.77 196.04c4.92,1.03 11,-2.32 12.82,-7.04 1.72,-4.46 -0.32,-7.46 -5.86,-7.46 -4.39,0.31 -8.43,2.43 -10.69,7.2 -1.76,3.72 -0.26,6.47 3.74,7.3z"/>
   <path class="fil1" d="M346.17 188.23c0.33,0.75 0.44,1.6 0.67,2.41 0,0 0,0 0,0 0,0 0,0 0,0 1.97,4.25 2.53,8.78 2.65,13.39 0.04,1.91 0.29,3.72 1.29,5.39 0,0 0,0 0,0 1.3,0.36 2.61,0.71 3.93,1.07 0.53,-0.21 1.06,-0.42 1.58,-0.63 1.79,-1.79 2.58,-3.98 3.03,-6.47 1.11,-6.17 -0.18,-11.92 -2.56,-17.54 -3.28,-7.78 -8.07,-14.57 -13.44,-21 -2.63,-2.65 -5.25,-5.31 -7.87,-7.96 -1.14,-0.96 -2.31,-1.9 -3.43,-2.87 -1.92,-1.64 -3.91,-2.14 -6.1,-0.52l0 0c-0.21,0.39 -0.43,0.76 -0.64,1.15 -0.22,1.37 0.11,2.65 0.67,3.89 8.37,8.78 15.35,18.53 20.22,29.69z"/>
   <path class="fil1" d="M331 312.39c-6.13,0.89 -9.13,4.73 -9.28,12.01 -0.09,5.54 2.31,9.96 6.26,13.6 2.56,2.36 5.54,3.68 9.02,2.4 3.63,-1.33 5.75,-4.17 6.37,-7.94 1.15,-7 -1.22,-12.93 -5.96,-17.98 -1.68,-1.79 -3.89,-2.44 -6.42,-2.08z"/>
   <path class="fil1" d="M519.56 273.27c1.96,-2.13 3.89,-4.26 5.89,-6.33 0.48,-0.53 1.18,-0.86 1.78,-1.28l0 0 0 0c3.74,-3.75 8.52,-5.68 13.31,-7.58 3.36,-1.33 4.74,-3.61 4.32,-7 -0.35,-2.82 -2.4,-4.83 -5.75,-5.22 -6.19,-0.74 -11.32,1.89 -15.96,5.64 -4.61,3.71 -7.85,8.5 -10.43,13.76 -0.35,1.25 -0.72,2.48 -1.02,3.75 -0.5,2.07 -0.76,4.21 1.53,5.39 2.31,1.19 4.5,0.86 6.33,-1.13z"/>
   <path class="fil1" d="M608.74 252.56c-3.58,-6.63 -15.83,-11.53 -22.9,-9.17 -4.5,1.5 -6.22,6.2 -3.39,9.89 4.81,6.29 11.25,9.79 18.43,10.43 7.14,0.13 10.82,-5.67 7.86,-11.15z"/>
   <path class="fil1" d="M459.93 233.51c1.74,-2.72 0.75,-5.48 -0.91,-7.9 -5.53,-8.04 -18.48,-11.17 -27,-6.61 -3.44,4.59 -3.17,7.01 1.18,10.59 0,0 0,0 0,0 4.17,1.07 8.35,2.11 12.35,3.75 2.35,0.97 4.75,1.78 7.26,2.18 2.7,0.43 5.46,0.58 7.11,-2.02z"/>
   <path class="fil1" d="M422.79 206.17c0.92,0.46 1.89,0.87 2.89,1.06 4.15,0.76 8.3,1.5 12.48,2.07 2.42,0.33 4.87,0.22 7.13,-0.99 2.65,-1.43 4.42,-3.57 4.51,-6.65 0.08,-2.97 -2.09,-4.44 -4.43,-5.62 -3.58,-1.82 -7.44,-2.43 -12.35,-2.42 -2.86,0.06 -6.6,0.37 -10.07,1.98 -2.17,1 -3.78,2.52 -3.86,5.08 -0.09,2.7 1.47,4.36 3.7,5.49z"/>
   <path class="fil1" d="M530.75 228.43c3.54,-2.98 3.5,-7.24 -0.14,-10.1 -2.25,-1.76 -4.92,-2.21 -6.68,-2.22 -7.36,0.01 -14.72,3.47 -18.08,8 -2.85,3.83 -1.04,8.71 3.61,8.56 6.63,-0.22 13.21,-1.44 19.64,-3.18 0.59,-0.17 1.15,-0.64 1.65,-1.06z"/>
   <path class="fil1" d="M465.07 190.46c6.25,2.32 12.51,2.52 18.48,-0.86 2.72,-1.54 3.83,-4.11 3.35,-7.18 -0.46,-3.03 -2.35,-4.75 -5.36,-5.41 -2.09,-0.46 -4.11,-0.43 -6.13,0.17 -3.11,0.92 -6.24,1.15 -9.46,0.54 -1.94,-0.37 -3.93,-0.36 -5.75,0.64 -0.57,0.58 -1.14,1.15 -1.71,1.74 0,0 0,0 0,0 -0.58,1.57 -0.39,3.11 0.04,4.69 0.91,3.37 3.7,4.63 6.53,5.67z"/>
   <path class="fil1" d="M373.57 223.07c3.72,-1 6.65,-3.37 9.78,-5.43 0,0 0,0 0,0 1.43,-1.82 3.2,-3.39 4.2,-5.54 1.85,-3.97 0.28,-8.28 -3.57,-9.78 -1.64,-0.64 -3.31,-0.35 -4.97,-0.25 -1.04,0.67 -2.21,1 -3.43,1.18 -0.78,0.82 -1.72,1.37 -2.81,1.69 -1.69,1.71 -3.39,3.42 -5.08,5.11 0,0 0,0 0,0 -2.11,3.35 -4.52,6.63 -2.81,10.96 2.37,2.93 5.42,2.93 8.7,2.06z"/>
   <path class="fil1" d="M580.3 223.52c4.74,0.82 7.33,-1.58 7.25,-6.41 -0.03,-1.37 -0.63,-2.53 -1.09,-3.74 0,0 0,0 0,0 -1.07,-0.93 -1.75,-2.14 -2.41,-3.36 -1.1,-1.13 -2.2,-2.24 -3.29,-3.36 -2,-1.14 -3.99,-2.35 -6.04,-3.39 -1.93,-1 -4.06,-1.3 -6.24,-1.14 -5.54,2.72 -6.56,6.81 -2.9,11.83 3.68,5.06 8.48,8.47 14.72,9.56z"/>
   <path class="fil1" d="M485.3 203.75c-4.97,-2.86 -10.44,-3.57 -16.03,-2.26 -2.57,0.61 -5.22,1.87 -5.46,4.94 -0.26,3.15 1.54,5.58 4.2,7.13 3.04,1.78 6.4,2.61 9.93,2.65 2.39,0.02 4.68,-0.44 6.78,-1.58 4.3,-2.32 4.72,-8.48 0.58,-10.87z"/>
   <path class="fil1" d="M324.48 292.84c3.14,0.69 6.14,-0.49 7.81,-3.18 1.57,-2.54 2.33,-5.32 2.3,-8.32 -0.11,-1.13 -0.14,-2.26 -0.36,-3.36 -0.61,-3.02 -2.24,-5.14 -5.41,-5.79 -2.68,-0.57 -4.98,0.56 -6.79,3.43 -2.13,3.39 -2.75,7.17 -2.47,11.08 0.25,3.24 2.17,5.53 4.92,6.14z"/>
   <path class="fil1" d="M463.06 243.96c-4.74,-0.58 -8.47,3.72 -7.22,7.94 1.41,4.78 7.89,9.59 12.82,9.56 4.62,-0.06 7.75,-4.56 6,-8.89 -2.09,-5.17 -6.22,-7.94 -11.6,-8.61z"/>
   <path class="fil1" d="M431.62 182.79c2.24,1.32 4.7,1.82 7.26,1.82 2.7,0.03 5.39,-0.53 7.61,-1.65 2.43,-1.24 4.59,-2.71 4.26,-5.92 -0.28,-2.56 -2.67,-4.78 -5.93,-5.13 -4.54,-0.48 -9.01,0.2 -13.09,2.29 -3.7,1.91 -3.7,6.47 -0.11,8.59z"/>
   <path class="fil1" d="M397.32 217.21c3.99,2.09 12.76,0.98 16.04,-2.04 3.28,-3.01 2.17,-8.04 -2.06,-9.42 -1.28,-0.41 -2.58,-0.41 -3.91,-0.46 -4.43,0.21 -8.56,1.21 -11.26,5.14 -1.82,2.64 -1.25,5.5 1.18,6.78z"/>
   <path class="fil1" d="M395.04 250.54c-2.35,0.29 -4.14,1.32 -4.76,3.72 -0.65,2.56 0.25,4.63 2.43,6.1 2.31,1.58 4.94,2.21 7.87,2.44 0.38,-0.03 0.94,-0.03 1.5,-0.13 2.32,-0.39 4.38,-1.18 5.15,-3.72 0.79,-2.59 -0.63,-4.26 -2.44,-5.79 -2.85,-2.4 -6.14,-3.07 -9.75,-2.62z"/>
   <path class="fil1" d="M334.78 364.62c-3.06,0.5 -4.43,2.08 -4.44,5.17 -0.04,6.14 6.26,12.68 12.39,12.88 4.48,0.14 7.94,-3.35 7.23,-7.32 -1,-5.71 -9.43,-11.65 -15.18,-10.72z"/>
   <path class="fil1" d="M596.16 288.73c0.07,0.09 0.15,0.19 0.22,0.28 -0.07,-0.08 -0.14,-0.18 -0.22,-0.28z"/>
   <path class="fil7" d="M549.62 279.68c0.75,-0.13 1.49,-0.25 2.22,-0.35 0.25,-0.03 0.48,-0.06 0.72,-0.09 0.5,-0.06 1,-0.13 1.5,-0.18 0.29,-0.03 0.57,-0.06 0.86,-0.08 0.46,-0.04 0.9,-0.08 1.36,-0.11 0.3,-0.03 0.59,-0.04 0.9,-0.07 0.44,-0.03 0.87,-0.06 1.32,-0.07 0.31,-0.01 0.61,-0.03 0.92,-0.03 0.43,-0.01 0.87,-0.03 1.32,-0.03 0.29,-0.01 0.6,-0.01 0.89,-0.01 0.46,0 0.92,0 1.36,0.01 0.28,0.02 0.56,0.02 0.83,0.02 0.5,0.01 1.02,0.04 1.52,0.07 0.22,0.02 0.46,0.03 0.68,0.04 0.72,0.04 1.46,0.1 2.18,0.15 0,0 0,0 0,0 4.79,0.44 9.54,1.35 14.28,2.67 2.26,0.97 4.52,1.94 6.76,2.92 0,0 0,0 0,0l0 0c1.13,1.09 2.67,1.39 3.94,2.17l0 0c0.92,0.61 1.57,1.63 2.76,1.79 -0.64,-0.75 -1.31,-1.48 -1.98,-2.18l0.43 -0.21c-0.74,-0.4 -1.31,-0.97 -1.69,-1.7l0 0c-3.07,-1.49 -5.2,-4.17 -7.92,-6.1 0,0 0,0 0,0 -0.04,0 -0.08,-0.02 -0.13,-0.03 -1.85,-0.33 -3.19,-1.7 -4.87,-2.37 -4.17,-1.68 -8.47,-2.68 -12.91,-3.56 -7.75,-1.54 -15.25,-0.56 -22.76,0.85 -5.25,1 -10.03,3.4 -14.59,6.14 -4.49,3.04 -8.02,7.03 -11.28,11.29 0,0 0,0 0,0 -0.46,0.83 -0.78,1.76 -1.6,2.35 -2.4,5.26 -3.48,10.86 -3.86,16.58 -0.11,1.44 -0.91,3.2 0.82,4.36 0,0 0,0 0,0 3.44,-21.65 20.96,-31.61 36.01,-34.22z"/>
   <path class="fil1" d="M577.25 300.05c-1.79,7.28 -5.19,13.64 -10.08,19.26 -5.86,4.92 -12.46,8.21 -20.13,9.28 -8.33,1.15 -15.71,-1.46 -22.74,-5.57 -0.97,-0.57 -1.53,-1.4 -1.48,-2.53 0.35,-8.94 3.01,-16.75 10.78,-22.07 0.31,-0.19 0.68,-0.26 1.03,-0.39l0 0c0,0 0,0 0,0 0.78,-0.67 1.5,-1.41 2.36,-1.96 2.36,-1.54 4.75,-1.33 6.33,0.44 1.53,1.72 1.47,4.22 -0.22,6.39 -0.51,0.64 -1.15,1.19 -1.74,1.79 -1.43,0.33 -2.85,0.85 -4.36,0.37 0,0 0,0 0,0 0,0 0,0 0,0 -0.38,0.32 -0.54,0.68 -0.46,1.22 0.67,4.78 5.44,9.58 10.32,10.36 4.21,0.67 9.39,-2.19 11.52,-6.57 2.72,-5.58 2.89,-11.2 -0.21,-16.75 -0.32,-0.58 -1.11,-1.08 -0.54,-2.07 6.02,0.33 11.82,1.59 17.43,3.91 2.44,1.02 2.8,2.42 2.19,4.86zm22.22 -8.89l0 0c-0.57,-0.37 -1.13,-0.74 -1.7,-1.09 -0.57,-0.22 -1,-0.6 -1.39,-1.04 -0.07,-0.1 -0.15,-0.19 -0.22,-0.29 -0.07,-0.08 -0.14,-0.17 -0.19,-0.25 0,0 0,0 0,0 0,0 0,0 0,0 -0.02,0 -0.02,0 -0.02,0 -1.19,-0.17 -1.85,-1.17 -2.76,-1.8l0 0c-1.28,-0.78 -2.82,-1.07 -3.93,-2.15l0 0c0,0 0,0 0,0 -2.26,-0.99 -4.52,-1.96 -6.78,-2.93 -4.74,-1.32 -9.48,-2.22 -14.26,-2.65 -0.01,0 -0.01,0 -0.01,0 -0.72,-0.07 -1.46,-0.12 -2.18,-0.17 -0.22,-0.01 -0.46,-0.03 -0.68,-0.04 -0.5,-0.03 -1,-0.04 -1.52,-0.06 -0.28,-0.01 -0.56,-0.01 -0.83,-0.03 -0.44,0 -0.91,-0.01 -1.36,-0.01 -0.29,0 -0.6,0 -0.89,0.01 -0.44,0 -0.89,0.02 -1.32,0.03 -0.31,0 -0.61,0.02 -0.92,0.03 -0.43,0.03 -0.87,0.04 -1.32,0.07 -0.31,0.03 -0.6,0.04 -0.9,0.07 -0.44,0.03 -0.91,0.07 -1.36,0.11 -0.29,0.03 -0.57,0.06 -0.86,0.08 -0.5,0.06 -1,0.13 -1.5,0.2 -0.24,0.03 -0.47,0.06 -0.72,0.08 -0.74,0.11 -1.47,0.22 -2.22,0.35 -15.06,2.61 -32.57,12.57 -36.01,34.22 0,0 0,0 0,0 0,0 0,0 0,0.02 0.14,1.85 0.1,3.68 -0.53,5.47 0,0 0,0 0,0l0 0c0.14,2.15 0.18,4.32 0.43,6.46 2.02,17.6 11.39,31.72 21.56,45.46 2.04,1.4 3.26,3.37 3.94,5.71 2.15,1.85 3.61,4.15 4.56,6.8l0 0c0,0 0,0.02 0,0.02 1.07,1.54 2.44,3.08 4.36,2.03 1.79,-0.99 1.93,-3.07 1.46,-5.03 -0.17,-0.72 -0.47,-1.42 -0.75,-2.11 -2.1,-5.35 -4.67,-10.47 -7.49,-15.47 -4.32,-7.67 -9.14,-15.09 -12.72,-23.15 -0.5,-1.14 -1.35,-2.22 -1.02,-3.76 3.61,1 7.02,2.04 10.59,2.29 13.04,0.97 24.46,-2.94 34.39,-11.35 1.88,-1.92 3.74,-3.83 5.6,-5.75 0,0 0,0 0,0 1.75,-2.54 3.56,-5.04 5.21,-7.64 2.25,-3.54 4.19,-7.28 7.1,-10.37 0.3,-0.99 0.87,-1.75 1.79,-2.25 1.71,-2.82 3.92,-5.14 6.8,-6.78 0,0 0,0 0,0 1.17,-0.93 2.02,-1.93 0.59,-3.32z"/>
   <path class="fil7" d="M393.23 302.77c0,0 0,0 0,0 1.75,0.56 3.4,-0.04 5.07,-0.44 0.67,-0.7 1.42,-1.32 2.02,-2.09 1.97,-2.5 2.04,-5.41 0.25,-7.43 -1.83,-2.06 -4.61,-2.29 -7.36,-0.5 -0.98,0.64 -1.83,1.5 -2.74,2.26 0,0 0,0 0,0 -0.69,3.28 -0.97,6.42 2.77,8.2z"/>
   <path class="fil1" d="M390.93 181.05c-1.76,-7.11 -8.48,-13.85 -13.14,-19.33 -5.21,-6.14 -10.98,-11.63 -17.57,-16.26 -3.82,-2.7 -7.43,3.58 -3.65,6.25 5.64,3.97 10.58,8.75 15.09,13.96 2.17,2.48 4.24,5.07 6.24,7.69 2.22,2.9 5.17,6.02 6.06,9.61 1.13,4.53 8.1,2.61 6.97,-1.92z"/>
   <path class="fil7" d="M521.53 501.48c-9.53,6.75 -20.4,9.85 -31.82,11.17 -14.61,1.68 -29.08,1 -43.25,-3.31 -11.02,-3.35 -20.17,-9.33 -27.31,-19.5 8.91,1.17 17.14,1.07 25.31,-0.58 12.63,-2.56 22.86,-8.79 29.97,-19.72 1.08,-1.65 1.64,-2.11 2.94,-0.11 8.75,13.4 21.71,19.36 37.18,20.87 5.87,0.59 11.73,0.29 18.12,-0.48 -3.17,4.96 -6.85,8.63 -11.15,11.67z"/>
   <path class="fil10" d="M1506.04 423.32c0,-19.98 0.1,-39.97 -0.08,-59.96 -0.04,-3.65 0.96,-4.64 4.59,-4.63 24.92,0.17 49.82,0.17 74.72,0 3.68,-0.03 4.71,1.02 4.58,4.64 -0.28,7.99 -0.19,15.99 -0.03,23.97 0.06,2.85 -0.86,3.65 -3.67,3.63 -13.99,-0.13 -27.99,0.06 -41.97,-0.14 -3.41,-0.04 -4.76,0.75 -4.33,4.32 0.53,4.37 -1.87,10.07 0.96,12.85 2.59,2.56 8.21,0.67 12.49,0.72 7.83,0.09 15.68,0.14 23.51,-0.03 3.02,-0.07 4.43,0.5 4.29,3.98 -0.28,7.06 -0.22,14.14 -0.01,21.21 0.08,2.94 -0.97,3.61 -3.71,3.58 -11.07,-0.14 -22.14,0.08 -33.21,-0.14 -3.5,-0.07 -4.71,0.96 -4.32,4.4 0.51,4.53 -1.96,10.63 1.01,13.22 2.59,2.24 8.5,0.7 12.94,0.72 10.76,0.04 21.53,0.08 32.29,-0.04 2.72,-0.04 3.8,0.64 3.72,3.57 -0.18,8.44 -0.15,16.9 0,25.36 0.04,2.59 -0.72,3.39 -3.35,3.37 -25.68,-0.1 -51.36,-0.14 -77.03,0.04 -3.68,0.03 -3.43,-1.82 -3.43,-4.25 0.03,-20.14 0.02,-40.28 0.02,-60.42z"/>
   <path class="fil10" d="M1428.02 490.8c-32.44,-0.06 -60.85,-21.03 -68.19,-50.37 -9.47,-37.76 13.57,-74.35 51.86,-82.67 23.29,-5.06 43.69,0.92 62.21,15.21 2.37,1.85 2.57,3.07 0.64,5.42 -5.17,6.29 -10.15,12.72 -14.99,19.28 -1.83,2.48 -2.93,2.92 -5.65,0.82 -14.85,-11.47 -32.13,-12.57 -45.81,-3.25 -13.6,9.26 -18.97,25.71 -13.22,40.53 5.8,14.96 22.28,24.47 38.1,22.18 8.2,-1.19 15.17,-4.86 21.39,-10.04 2.22,-1.86 3.32,-1.68 4.98,0.65 4.92,6.87 9.99,13.64 15.21,20.28 1.85,2.36 1.67,3.67 -0.67,5.53 -13.43,10.75 -28.57,16.54 -45.86,16.44z"/>
   <path class="fil10" d="M1663.04 489.79c-12.92,-0.44 -25.89,-3.43 -36.97,-12.25 -0.59,-0.47 -1.18,-0.98 -1.75,-1.5 -8.26,-7.48 -8.33,-9.07 -0.67,-16.65 3.72,-3.67 7.53,-7.25 11.14,-11.03 1.94,-2.03 3.03,-2.43 5.33,0 8.41,8.9 18.93,11.49 30.76,9.04 3.28,-0.68 6.26,-2.15 7.1,-5.75 0.81,-3.53 -1.51,-5.76 -3.98,-7.72 -5.35,-4.25 -11.56,-6.94 -17.74,-9.68 -6.32,-2.81 -12.64,-5.63 -18.29,-9.68 -21.09,-15.15 -21.36,-42.64 -0.59,-58.17 17.6,-13.17 46.26,-12.63 62.38,1.17 0.35,0.31 0.72,0.57 1.06,0.89 8.13,7.53 8.17,9.61 0.37,17.15 -3.53,3.41 -7.14,6.76 -10.58,10.28 -1.64,1.68 -2.52,1.81 -4.29,-0.09 -5.24,-5.64 -12.08,-7.6 -19.61,-7.42 -2.33,0.04 -4.54,0.75 -6.53,2 -5.13,3.22 -5.21,8.12 -0.06,11.32 5.65,3.48 12.13,5.17 18.18,7.75 8.41,3.57 16.43,7.68 23.06,14.1 17.6,17.07 14.79,44.13 -5.93,57.37 -9.6,6.13 -20.21,8.7 -32.39,8.88z"/>
   <path class="fil10" d="M1195.95 427.12c4.32,-5.36 6,-11.47 8.49,-17.14 6.96,-15.92 13.71,-31.9 20.43,-47.92 0.96,-2.28 2.06,-3.35 4.7,-3.3 10.15,0.15 20.29,0.18 30.44,0 3.56,-0.06 3.79,0.89 2.41,3.89 -18.89,41.19 -37.71,82.43 -56.47,123.69 -1.06,2.31 -2.35,3.08 -4.87,3.11 -12.13,0.13 -12.06,0.18 -17,-10.69 -17.28,-38.04 -34.61,-76.07 -51.93,-114.11 -0.44,-0.97 -0.8,-2 -1.3,-2.94 -1.18,-2.29 -0.33,-2.93 2.03,-2.92 10.44,0.07 20.9,0.15 31.36,-0.03 3.02,-0.06 3.46,1.96 4.28,3.89 9.1,21.33 18.18,42.68 27.46,64.47z"/>
   <path class="fil10" d="M1326.16 423.61c0,19.98 -0.07,39.97 0.07,59.94 0.03,3.33 -0.67,4.54 -4.26,4.43 -8.92,-0.29 -17.83,-0.21 -26.75,-0.03 -2.88,0.06 -3.61,-0.89 -3.61,-3.67 0.09,-40.59 0.1,-81.17 -0.01,-121.74 0,-3.2 1.13,-3.85 4.04,-3.8 8.75,0.17 17.53,0.22 26.28,-0.04 3.56,-0.1 4.35,1.13 4.32,4.47 -0.14,20.14 -0.07,40.28 -0.07,60.42z"/>
   <path class="fil10" d="M1064.69 415.04c-5.15,1.17 -10.4,0.28 -15.59,0.48 -1.56,0.06 -2.17,-0.78 -2.15,-2.26 0.01,-7.06 0.06,-14.11 -0.03,-21.17 -0.03,-1.97 0.98,-2.29 2.57,-2.26 2.15,0.06 4.29,0.01 6.93,0.01 3.01,0.18 6.54,-0.37 9.96,1.02 5.68,2.3 8.74,6.96 8.26,12.93 -0.42,5.43 -4.37,10 -9.94,11.25zm55.38 70.28c-10.15,-15.21 -20.22,-30.48 -30.54,-45.58 -2.03,-2.94 -1.56,-3.83 1.36,-5.69 13.68,-8.74 20,-21.5 18.26,-37.61 -2.07,-19.36 -17.85,-34.53 -38.63,-36.82 -18.36,-2.03 -36.87,-0.4 -55.31,-0.8 -2.82,-0.07 -2.8,1.57 -2.79,3.56 0.06,40.75 0.13,81.48 0.1,122.24 0,2.67 0.86,3.39 3.43,3.35 9.07,-0.14 18.15,-0.18 27.22,0.02 3.08,0.07 3.86,-0.92 3.83,-3.91 -0.17,-12.44 -0.07,-24.9 -0.07,-37.36l0 -12.71c1.9,0.28 2.09,1.5 2.61,2.35 9.96,16.07 19.89,32.15 29.81,48.25 1.14,1.86 2.12,3.42 4.86,3.38 12.14,-0.17 24.28,-0.07 37.28,-0.07 -0.72,-1.31 -1.03,-1.97 -1.43,-2.57z"/>
   <path class="fil10" d="M974.34 455.61c-13.99,0.19 -27.97,0.02 -41.96,0.14 -2.76,0.03 -3.9,-0.62 -3.67,-3.57 0.25,-3.21 0.32,-6.47 0,-9.67 -0.39,-3.93 0.68,-5.35 4.94,-5.21 10.9,0.33 21.83,0.04 32.74,0.17 2.6,0.03 3.43,-0.71 3.37,-3.36 -0.18,-7.21 -0.25,-14.44 0.02,-21.67 0.12,-3.32 -1.26,-3.78 -4.04,-3.74 -7.85,0.12 -15.68,0.11 -23.53,0.01 -4.26,-0.04 -9.85,1.81 -12.47,-0.69 -2.9,-2.75 -0.46,-8.46 -1,-12.82 -0.43,-3.46 0.81,-4.42 4.29,-4.38 13.82,0.21 27.67,0 41.5,0.15 3.15,0.04 4.28,-0.74 4.18,-4.06 -0.24,-7.98 -0.22,-15.98 -0.01,-23.98 0.08,-3.17 -0.8,-4.21 -4.09,-4.2 -25.21,0.13 -50.41,0.14 -75.62,-0.01 -3.53,-0.02 -4.35,1.07 -4.32,4.46 0.15,19.99 0.09,39.97 0.09,59.94 0,20.29 0.04,40.58 -0.07,60.87 -0.02,2.92 0.65,3.96 3.79,3.94 25.52,-0.13 51.04,-0.11 76.56,-0.01 2.75,0.01 3.75,-0.61 3.67,-3.56 -0.2,-8.14 -0.25,-16.31 0.01,-24.44 0.13,-3.5 -0.94,-4.38 -4.37,-4.33z"/>
   <path class="fil10" d="M842.12 415.52c-9,-5.44 -19.15,-8.26 -28.57,-12.74 -2.92,-1.39 -6.07,-2.99 -5.72,-6.97 0.38,-4.18 3.6,-5.99 7.15,-6.79 8.78,-1.99 16.44,0.53 22.76,6.75 1.81,1.76 2.69,1.81 4.36,0.11 3.56,-3.61 7.26,-7.07 10.92,-10.58 7.41,-7.11 7.43,-8.56 0.15,-15.94 -0.53,-0.56 -1.11,-1.06 -1.69,-1.56 -18.32,-15.67 -50.75,-14.29 -67.65,2.86 -14.65,14.86 -13.69,37.4 2.07,51.06 6.01,5.21 13.03,8.61 20.19,11.81 6.6,2.93 13.28,5.72 19.06,10.17 2.61,2 5.13,4.25 4.25,8.03 -0.85,3.65 -3.87,5.03 -7.14,5.7 -11.83,2.43 -22.36,-0.18 -30.74,-9.1 -2.31,-2.46 -3.32,-1.96 -5.24,0.06 -3.38,3.57 -7,6.92 -10.53,10.35 -8.75,8.52 -8.67,10.02 0.98,18.18 0.24,0.19 0.47,0.4 0.71,0.6 11.08,8.82 24.04,11.86 37.85,12.28 8.28,0.08 16.22,-1.56 23.82,-4.71 16.52,-6.86 25.82,-20.62 25.09,-37.15 -0.68,-15.28 -9.77,-24.94 -22.09,-32.39z"/>
   <path class="fil1" d="M889.52 319.73l-36.54 -54.72c13.36,-6.14 23.63,-20.34 23.63,-37.33 0,-24.46 -21.07,-44.35 -50.54,-44.35l-51.77 0 0.2 136.4 36.2 0 0 -59.24 36.44 59.24 42.39 0zm-79.03 -103.84l14.83 0c7.61,0 14.73,5.26 14.73,13.7 0,8.4 -7.02,13.8 -14.73,13.76l-14.83 -0.1 0 -27.36zm160.57 106.89c20.73,0 38.12,-8.2 51.13,-20.04l-20.63 -27.5c-8.84,7.86 -19.06,13.26 -30.5,13.26 -19.45,0 -37.72,-15.57 -37.72,-36.69 0,-20.92 17.54,-36.89 38.51,-36.89 10.07,0 21.17,4.96 29.52,12.57l20.83 -26.72c-13.95,-12.67 -32.86,-20.39 -50.44,-20.63 -42.49,0 -75.1,31.04 -75.1,71.42 0,42.78 35.95,71.22 74.41,71.22zm66.51 -3.05l36.2 0 0 -40.18 15.32 0c28.59,0 51.53,-22.1 51.53,-48.43 0,-26.62 -23.43,-47.79 -51.53,-47.79l-51.52 0 0 136.4zm51.52 -73.53l-15.32 -0.1 0 -29.32 15.32 0c9.68,0 16.6,6.24 16.6,14.54 0,8.35 -6.87,14.98 -16.6,14.88z"/>
   <path class="fil3" d="M717.6 497.67l-0.54 0c-2.65,0 -4.79,-2.15 -4.79,-4.81l0 -325.07c0,-2.65 2.14,-4.8 4.79,-4.8l0.54 0c2.65,0 4.8,2.14 4.8,4.8l0 325.07c0,2.65 -2.15,4.81 -4.8,4.81z"/>
   <path class="fil3" d="M1329.96 219.89c0,12.88 -10.43,23.31 -23.31,23.31 -12.86,0 -23.29,-10.43 -23.29,-23.31 0,-12.87 10.43,-23.3 23.29,-23.3 12.87,0 23.31,10.43 23.31,23.3z"/>
   <path class="fil3" d="M1424.69 219.89c0,12.88 -10.43,23.31 -23.31,23.31 -12.86,0 -23.29,-10.43 -23.29,-23.31 0,-12.87 10.43,-23.3 23.29,-23.3 12.87,0 23.31,10.43 23.31,23.3z"/>
   <path class="fil3" d="M1516.96 219.89c0,12.88 -10.43,23.31 -23.31,23.31 -12.86,0 -23.29,-10.43 -23.29,-23.31 0,-12.87 10.43,-23.3 23.29,-23.3 12.87,0 23.31,10.43 23.31,23.3z"/>
   <path class="fil3" d="M1607.23 219.89c0,12.88 -10.43,23.31 -23.31,23.31 -12.86,0 -23.29,-10.43 -23.29,-23.31 0,-12.87 10.43,-23.3 23.29,-23.3 12.88,0 23.31,10.43 23.31,23.3z"/>
   <path class="fil3" d="M1699.5 219.89c0,12.88 -10.43,23.31 -23.31,23.31 -12.86,0 -23.29,-10.43 -23.29,-23.31 0,-12.87 10.43,-23.3 23.29,-23.3 12.88,0 23.31,10.43 23.31,23.3z"/>
   <path class="fil3" d="M1329.96 280.74c0,12.87 -10.43,23.31 -23.31,23.31 -12.86,0 -23.29,-10.43 -23.29,-23.31 0,-12.87 10.43,-23.3 23.29,-23.3 12.87,0 23.31,10.43 23.31,23.3z"/>
   <path class="fil3" d="M1238.69 219.89c0,12.88 -10.43,23.31 -23.31,23.31 -12.86,0 -23.29,-10.43 -23.29,-23.31 0,-12.87 10.43,-23.3 23.29,-23.3 12.88,0 23.31,10.43 23.31,23.3z"/>
   <path class="fil3" d="M1238.69 280.74c0,12.87 -10.43,23.31 -23.31,23.31 -12.86,0 -23.29,-10.43 -23.29,-23.31 0,-12.87 10.43,-23.3 23.29,-23.3 12.88,0 23.31,10.43 23.31,23.3z"/>
   <path class="fil3" d="M1424.69 280.74c0,12.87 -10.43,23.31 -23.31,23.31 -12.86,0 -23.29,-10.43 -23.29,-23.31 0,-12.87 10.43,-23.3 23.29,-23.3 12.87,0 23.31,10.43 23.31,23.3z"/>
   <path class="fil3" d="M1516.96 280.74c0,12.87 -10.43,23.31 -23.31,23.31 -12.86,0 -23.29,-10.43 -23.29,-23.31 0,-12.87 10.43,-23.3 23.29,-23.3 12.87,0 23.31,10.43 23.31,23.3z"/>
   <path class="fil3" d="M1607.23 280.74c0,12.87 -10.43,23.31 -23.31,23.31 -12.86,0 -23.29,-10.43 -23.29,-23.31 0,-12.87 10.43,-23.3 23.29,-23.3 12.88,0 23.31,10.43 23.31,23.3z"/>
   <path class="fil3" d="M1699.5 280.74c0,12.87 -10.43,23.31 -23.31,23.31 -12.86,0 -23.29,-10.43 -23.29,-23.31 0,-12.87 10.43,-23.3 23.29,-23.3 12.88,0 23.31,10.43 23.31,23.3z"/>
   <path class="fil1" d="M391.53 640.97l-9.85 -14.11c5.71,-2.44 9.03,-7.27 9.03,-13.85 0,-9.85 -7.34,-15.93 -19.06,-15.93l-19 0 0 43.89 10.15 0 0 -12.23 8.85 0 0.5 0 8.46 12.23 10.92 0zm-11.09 -27.96c0,4.76 -3.15,7.65 -9.35,7.65l-8.28 0 0 -15.31 8.28 0c6.2,0 9.35,2.83 9.35,7.66zm50.67 11.22c0,-10.84 -7.65,-17.49 -17.57,-17.49 -10.28,0 -17.99,7.27 -17.99,17.37 0,10.02 7.59,17.37 19.26,17.37 6.08,0 10.79,-1.88 13.92,-5.46l-5.21 -5.63c-2.31,2.19 -4.89,3.25 -8.46,3.25 -5.14,0 -8.71,-2.56 -9.65,-6.77l25.53 0c0.05,-0.82 0.18,-1.89 0.18,-2.63zm-17.5 -10.1c4.39,0 7.59,2.76 8.29,7.02l-16.63 0c0.69,-4.32 3.88,-7.02 8.34,-7.02zm44.54 -7.39c-4.59,0 -8.53,1.56 -11.17,4.44l0 -3.95 -9.35 0 0 33.74 9.78 0 0 -16.68c0,-6.22 3.39,-9.1 8.09,-9.1 4.34,0 6.85,2.51 6.85,7.96l0 17.81 9.78 0 0 -19.33c0,-10.28 -6.01,-14.91 -13.97,-14.91zm39.26 34.74c10.72,0 18.51,-7.2 18.51,-17.37 0,-10.15 -7.79,-17.37 -18.51,-17.37 -10.72,0 -18.56,7.22 -18.56,17.37 0,10.17 7.84,17.37 18.56,17.37zm0 -8.02c-4.89,0 -8.66,-3.52 -8.66,-9.35 0,-5.83 3.77,-9.35 8.66,-9.35 4.89,0 8.59,3.52 8.59,9.35 0,5.83 -3.7,9.35 -8.59,9.35zm48.19 -26.22l-9.67 22.95 -9.33 -22.95 -10.09 0 14.17 33.74 10.09 0 14.24 -33.74 -9.41 0zm25.91 -0.5c-5.41,0 -10.86,1.44 -14.56,4.07l3.52 6.84c2.43,-1.95 6.13,-3.15 9.7,-3.15 5.28,0 7.79,2.45 7.79,6.65l-7.79 0c-10.28,0 -14.47,4.14 -14.47,10.1 0,5.83 4.69,10.22 12.6,10.22 4.94,0 8.46,-1.63 10.28,-4.69l0 4.2 9.16 0 0 -19.26c0,-10.22 -5.96,-14.98 -16.23,-14.98zm-0.76 28.16c-3.45,0 -5.51,-1.64 -5.51,-4.09 0,-2.26 1.44,-3.94 6.01,-3.94l6.72 0 0 3.45c-1.14,3.07 -3.94,4.59 -7.22,4.59zm42.52 6.57c7.09,0 12.68,-3.13 15.11,-8.53l-7.57 -4.13c-1.83,3.26 -4.52,4.64 -7.59,4.64 -4.96,0 -8.85,-3.45 -8.85,-9.35 0,-5.91 3.89,-9.35 8.85,-9.35 3.08,0 5.76,1.46 7.59,4.64l7.57 -4.07c-2.43,-5.51 -8.02,-8.59 -15.11,-8.59 -10.97,0 -18.81,7.22 -18.81,17.37 0,10.17 7.84,17.37 18.81,17.37zm25.65 -38.95c3.65,0 6.08,-2.39 6.08,-5.64 0,-3 -2.43,-5.26 -6.08,-5.26 -3.63,0 -6.08,2.39 -6.08,5.46 0,3.06 2.46,5.44 6.08,5.44zm-4.89 38.45l9.78 0 0 -33.74 -9.78 0 0 33.74zm29.11 -38.06l7.64 0 11.36 -9.03 -10.54 0 -8.46 9.03zm5.83 38.56c10.72,0 18.51,-7.2 18.51,-17.37 0,-10.15 -7.79,-17.37 -18.51,-17.37 -10.72,0 -18.56,7.22 -18.56,17.37 0,10.17 7.84,17.37 18.56,17.37zm0 -8.02c-4.89,0 -8.66,-3.52 -8.66,-9.35 0,-5.83 3.77,-9.35 8.66,-9.35 4.89,0 8.59,3.52 8.59,9.35 0,5.83 -3.7,9.35 -8.59,9.35zm45.55 -26.72c-4.59,0 -8.53,1.56 -11.17,4.44l0 -3.95 -9.35 0 0 33.74 9.78 0 0 -16.68c0,-6.22 3.39,-9.1 8.09,-9.1 4.34,0 6.85,2.51 6.85,7.96l0 17.81 9.78 0 0 -19.33c0,-10.28 -6.01,-14.91 -13.97,-14.91zm139.23 34.99c7.64,0 13.97,-2.76 18.11,-7.84l-6.52 -6.01c-2.95,3.45 -6.65,5.19 -11.04,5.19 -8.22,0 -14.05,-5.76 -14.05,-14.05 0,-8.27 5.83,-14.04 14.05,-14.04 4.39,0 8.09,1.76 11.04,5.14l6.52 -6.01c-4.14,-5.03 -10.47,-7.78 -18.06,-7.78 -13.67,0 -23.82,9.47 -23.82,22.7 0,13.24 10.15,22.7 23.77,22.7zm39.12 -0.25c10.72,0 18.51,-7.2 18.51,-17.37 0,-10.15 -7.79,-17.37 -18.51,-17.37 -10.72,0 -18.56,7.22 -18.56,17.37 0,10.17 7.84,17.37 18.56,17.37zm0 -8.02c-4.89,0 -8.66,-3.52 -8.66,-9.35 0,-5.83 3.77,-9.35 8.66,-9.35 4.89,0 8.59,3.52 8.59,9.35 0,5.83 -3.7,9.35 -8.59,9.35zm45.55 -26.72c-4.59,0 -8.53,1.56 -11.17,4.44l0 -3.95 -9.35 0 0 33.74 9.78 0 0 -16.68c0,-6.22 3.39,-9.1 8.09,-9.1 4.34,0 6.85,2.51 6.85,7.96l0 17.81 9.78 0 0 -19.33c0,-10.28 -6.01,-14.91 -13.97,-14.91zm34.19 34.74c10.09,0 15.93,-4.44 15.93,-10.72 0,-13.3 -20.39,-7.71 -20.39,-13.49 0,-1.74 1.89,-3.13 6.28,-3.13 3.07,0 6.4,0.62 9.72,2.51l3.26 -6.95c-3.2,-1.88 -8.34,-2.95 -12.98,-2.95 -9.85,0 -15.63,4.52 -15.63,10.91 0,13.48 20.39,7.84 20.39,13.35 0,1.88 -1.69,3.07 -6.2,3.07 -4.14,0 -8.73,-1.31 -11.73,-3.27l-3.25 7.04c3.13,2.06 8.91,3.63 14.61,3.63zm46.15 -34.24l0 16.68c0,6.22 -3.27,9.1 -7.79,9.1 -4.32,0 -6.83,-2.51 -6.83,-8.16l0 -17.62 -9.8 0 0 19.06c0,10.42 5.98,15.18 14.44,15.18 4.14,0 7.89,-1.56 10.47,-4.52l0 4.02 9.28 0 0 -33.74 -9.78 0zm18.88 33.74l9.78 0 0 -46.54 -9.78 0 0 46.54zm40.46 -8.54c-1.07,0.82 -2.51,1.26 -3.95,1.26 -2.63,0 -4.21,-1.56 -4.21,-4.46l0 -13.72 8.41 0 0 -7.54 -8.41 0 0 -8.21 -9.78 0 0 8.21 -5.21 0 0 7.54 5.21 0 0 13.85c0,8.04 4.64,12.11 12.6,12.11 3,0 5.96,-0.69 7.96,-2.13l-2.63 -6.9zm23.15 9.03c10.72,0 18.51,-7.2 18.51,-17.37 0,-10.15 -7.79,-17.37 -18.51,-17.37 -10.72,0 -18.56,7.22 -18.56,17.37 0,10.17 7.84,17.37 18.56,17.37zm0 -8.02c-4.89,0 -8.66,-3.52 -8.66,-9.35 0,-5.83 3.77,-9.35 8.66,-9.35 4.89,0 8.59,3.52 8.59,9.35 0,5.83 -3.7,9.35 -8.59,9.35zm34.38 -21.76l0 -4.46 -9.35 0 0 33.74 9.78 0 0 -15.93c0,-6.45 3.57,-9.41 8.98,-9.41 0.75,0 1.37,0.06 2.19,0.13l0 -9.03c-5.21,0 -9.21,1.69 -11.59,4.96zm22.56 -9.17c3.65,0 6.08,-2.39 6.08,-5.64 0,-3 -2.43,-5.26 -6.08,-5.26 -3.63,0 -6.08,2.39 -6.08,5.46 0,3.06 2.46,5.44 6.08,5.44zm-4.89 38.45l9.78 0 0 -33.74 -9.78 0 0 33.74zm32.5 -34.24c-5.41,0 -10.86,1.44 -14.56,4.07l3.52 6.84c2.43,-1.95 6.13,-3.15 9.7,-3.15 5.28,0 7.79,2.45 7.79,6.65l-7.79 0c-10.28,0 -14.47,4.14 -14.47,10.1 0,5.83 4.69,10.22 12.6,10.22 4.94,0 8.46,-1.63 10.28,-4.69l0 4.2 9.16 0 0 -19.26c0,-10.22 -5.96,-14.98 -16.23,-14.98zm-0.76 28.16c-3.45,0 -5.51,-1.64 -5.51,-4.09 0,-2.26 1.44,-3.94 6.01,-3.94l6.72 0 0 3.45c-1.14,3.07 -3.94,4.59 -7.22,4.59zm140.24 -37.81l-19 0 0 43.89 10.15 0 0 -12.11 8.85 0c11.72,0 19.06,-6.08 19.06,-15.86 0,-9.85 -7.34,-15.93 -19.06,-15.93zm-0.57 23.5l-8.28 0 0 -15.23 8.28 0c6.2,0 9.35,2.83 9.35,7.66 0,4.76 -3.15,7.57 -9.35,7.57zm50.99 -13.35l0 16.68c0,6.22 -3.27,9.1 -7.79,9.1 -4.32,0 -6.83,-2.51 -6.83,-8.16l0 -17.62 -9.8 0 0 19.06c0,10.42 5.98,15.18 14.44,15.18 4.14,0 7.89,-1.56 10.47,-4.52l0 4.02 9.28 0 0 -33.74 -9.78 0zm38.83 -0.5c-4.22,0 -7.67,1.31 -10.17,4.07l0 -16.37 -9.78 0 0 46.54 9.35 0 0 -3.89c2.44,2.95 6.08,4.39 10.6,4.39 9.47,0 16.8,-6.77 16.8,-17.37 0,-10.6 -7.33,-17.37 -16.8,-17.37zm-1.69 26.72c-4.91,0 -8.61,-3.52 -8.61,-9.35 0,-5.83 3.7,-9.35 8.61,-9.35 4.89,0 8.59,3.52 8.59,9.35 0,5.83 -3.7,9.35 -8.59,9.35zm25.01 7.52l9.78 0 0 -46.54 -9.78 0 0 46.54zm23.77 -38.45c3.65,0 6.08,-2.39 6.08,-5.64 0,-3 -2.43,-5.26 -6.08,-5.26 -3.63,0 -6.08,2.39 -6.08,5.46 0,3.06 2.46,5.44 6.08,5.44zm-4.89 38.45l9.78 0 0 -33.74 -9.78 0 0 33.74zm35.19 0.5c7.09,0 12.68,-3.13 15.11,-8.53l-7.57 -4.13c-1.83,3.26 -4.52,4.64 -7.59,4.64 -4.96,0 -8.85,-3.45 -8.85,-9.35 0,-5.91 3.89,-9.35 8.85,-9.35 3.08,0 5.76,1.46 7.59,4.64l7.57 -4.07c-2.43,-5.51 -8.02,-8.59 -15.11,-8.59 -10.97,0 -18.81,7.22 -18.81,17.37 0,10.17 7.84,17.37 18.81,17.37zm25.65 -38.95c3.65,0 6.08,-2.39 6.08,-5.64 0,-3 -2.43,-5.26 -6.08,-5.26 -3.63,0 -6.08,2.39 -6.08,5.46 0,3.06 2.46,5.44 6.08,5.44zm-4.89 38.45l9.78 0 0 -33.74 -9.78 0 0 33.74zm43.47 -46.54l0 16.37c-2.45,-2.76 -5.96,-4.07 -10.1,-4.07 -9.53,0 -16.87,6.77 -16.87,17.37 0,10.59 7.34,17.37 16.87,17.37 4.52,0 8.09,-1.44 10.54,-4.39l0 3.89 9.33 0 0 -46.54 -9.78 0zm-8.41 39.02c-4.89,0 -8.66,-3.52 -8.66,-9.35 0,-5.83 3.77,-9.35 8.66,-9.35 4.84,0 8.59,3.52 8.59,9.35 0,5.83 -3.75,9.35 -8.59,9.35zm40.84 -26.72c-5.41,0 -10.86,1.44 -14.56,4.07l3.52 6.84c2.43,-1.95 6.13,-3.15 9.7,-3.15 5.28,0 7.79,2.45 7.79,6.65l-7.79 0c-10.28,0 -14.47,4.14 -14.47,10.1 0,5.83 4.69,10.22 12.6,10.22 4.94,0 8.46,-1.63 10.28,-4.69l0 4.2 9.16 0 0 -19.26c0,-10.22 -5.96,-14.98 -16.23,-14.98zm-0.76 28.16c-3.45,0 -5.51,-1.64 -5.51,-4.09 0,-2.26 1.44,-3.94 6.01,-3.94l6.72 0 0 3.45c-1.14,3.07 -3.94,4.59 -7.22,4.59zm50.44 -40.46l0 16.37c-2.45,-2.76 -5.96,-4.07 -10.1,-4.07 -9.53,0 -16.87,6.77 -16.87,17.37 0,10.59 7.34,17.37 16.87,17.37 4.52,0 8.09,-1.44 10.54,-4.39l0 3.89 9.33 0 0 -46.54 -9.78 0zm-8.41 39.02c-4.89,0 -8.66,-3.52 -8.66,-9.35 0,-5.83 3.77,-9.35 8.66,-9.35 4.84,0 8.59,3.52 8.59,9.35 0,5.83 -3.75,9.35 -8.59,9.35z"/>
   <path class="fil5" d="M780.17 626.85c4.27,0 7.84,-3.38 7.84,-7.96 0,-4.57 -3.57,-7.89 -7.84,-7.89 -4.34,0 -7.84,3.32 -7.84,7.89 0,4.59 3.5,7.96 7.84,7.96z"/>
   <path class="fil5" d="M1253.7 626.85c4.27,0 7.84,-3.38 7.84,-7.96 0,-4.57 -3.57,-7.89 -7.84,-7.89 -4.34,0 -7.84,3.32 -7.84,7.89 0,4.59 3.5,7.96 7.84,7.96z"/>
  </g>
 </g>
</svg>
