<svg xmlns="http://www.w3.org/2000/svg" viewBox="0 0 120 120" fill="none">
  <!-- Brochure Tríptico -->
  <rect x="10" y="30" width="30" height="60" rx="2" stroke="#FCB53F" stroke-width="2" fill="rgba(252,181,63,0.06)"/>
  <rect x="42" y="30" width="30" height="60" rx="2" stroke="#FCB53F" stroke-width="2" fill="rgba(252,181,63,0.08)"/>
  <rect x="74" y="30" width="30" height="60" rx="2" stroke="#FCB53F" stroke-width="2" fill="rgba(252,181,63,0.06)"/>
  <!-- Fold lines -->
  <line x1="40" y1="30" x2="40" y2="90" stroke="#FCB53F" stroke-width="0.8" stroke-dasharray="3 2" opacity="0.5"/>
  <line x1="72" y1="30" x2="72" y2="90" stroke="#FCB53F" stroke-width="0.8" stroke-dasharray="3 2" opacity="0.5"/>
  <!-- Panel 1 content -->
  <rect x="15" y="38" width="20" height="3" rx="1" fill="#FCB53F" opacity="0.3"/>
  <rect x="15" y="44" width="18" height="2" rx="1" fill="#FCB53F" opacity="0.2"/>
  <rect x="15" y="52" width="20" height="15" rx="2" fill="rgba(252,181,63,0.1)"/>
  <!-- Panel 2 content (center - featured) -->
  <rect x="47" y="35" width="20" height="5" rx="1" fill="#FCB53F" opacity="0.35"/>
  <rect x="47" y="44" width="22" height="20" rx="2" fill="rgba(252,181,63,0.15)"/>
  <rect x="47" y="68" width="18" height="2" rx="1" fill="#FCB53F" opacity="0.2"/>
  <rect x="47" y="73" width="20" height="2" rx="1" fill="#FCB53F" opacity="0.15"/>
  <!-- Panel 3 content -->
  <rect x="79" y="38" width="20" height="3" rx="1" fill="#FCB53F" opacity="0.3"/>
  <rect x="79" y="45" width="18" height="2" rx="1" fill="#FCB53F" opacity="0.2"/>
  <rect x="79" y="50" width="15" height="2" rx="1" fill="#FCB53F" opacity="0.2"/>
</svg>