<svg xmlns="http://www.w3.org/2000/svg" viewBox="0 0 120 120">
  <rect width="120" height="120" rx="16" fill="#1a1a1c"/>
  <path d="M20 72 Q20 62 30 62 L90 62 Q100 62 100 72 L100 82 Q100 86 96 86 L24 86 Q20 86 20 82 Z" fill="none" stroke="#ffffff" stroke-width="2.5" stroke-linecap="round" stroke-linejoin="round"/>
  <circle cx="30" cy="86" r="8" fill="#1a1a1c" stroke="#ffffff" stroke-width="2.5"/>
  <circle cx="30" cy="86" r="3" fill="#FCB53F"/>
  <circle cx="88" cy="86" r="8" fill="#1a1a1c" stroke="#ffffff" stroke-width="2.5"/>
  <circle cx="88" cy="86" r="3" fill="#FCB53F"/>
  <path d="M22 62 L28 52 L48 52 L52 62" fill="none" stroke="#ffffff" stroke-width="2.5" stroke-linecap="round" stroke-linejoin="round"/>
  <rect x="40" y="66" width="36" height="12" rx="3" fill="#FCB53F" opacity="0.9"/>
  <text x="44" y="76" font-family="sans-serif" font-size="8" fill="#1a1a1c" font-weight="bold">RCP</text>
  <circle cx="60" cy="44" r="4" fill="#22c55e" opacity="0.6"/>
  <circle cx="72" cy="40" r="3" fill="#f472b6" opacity="0.5"/>
</svg>