<svg xmlns="http://www.w3.org/2000/svg" viewBox="0 0 120 120">
  <rect width="120" height="120" rx="16" fill="#1a1a1c"/>
  <rect x="28" y="30" width="64" height="60" rx="5" fill="#1a1a1c" stroke="#FCB53F" stroke-width="2.5" stroke-linecap="round"/>
  <circle cx="48" cy="50" r="8" fill="#22c55e" opacity="0.8"/>
  <line x1="62" y1="46" x2="82" y2="46" stroke="#ffffff" stroke-width="2" stroke-linecap="round"/>
  <line x1="62" y1="54" x2="78" y2="54" stroke="#ffffff" stroke-width="2" stroke-linecap="round" opacity="0.5"/>
  <rect x="36" y="66" width="2" height="18" fill="#ffffff"/>
  <rect x="40" y="66" width="3" height="18" fill="#ffffff"/>
  <rect x="45" y="66" width="1.5" height="18" fill="#ffffff"/>
  <rect x="48" y="66" width="3" height="18" fill="#ffffff"/>
  <rect x="53" y="66" width="2" height="18" fill="#ffffff"/>
  <rect x="57" y="66" width="1.5" height="18" fill="#ffffff"/>
  <rect x="60" y="66" width="3" height="18" fill="#ffffff"/>
  <rect x="65" y="66" width="2" height="18" fill="#ffffff"/>
  <rect x="69" y="66" width="3" height="18" fill="#ffffff"/>
  <rect x="74" y="66" width="1.5" height="18" fill="#ffffff"/>
  <rect x="77" y="66" width="2" height="18" fill="#ffffff"/>
  <rect x="81" y="66" width="3" height="18" fill="#ffffff"/>
</svg>