<svg xmlns="http://www.w3.org/2000/svg" viewBox="0 0 120 120">
  <rect width="120" height="120" rx="16" fill="#1a1a1c"/>
  <rect x="22" y="28" width="20" height="20" rx="4" fill="#1a1a1c" stroke="#f472b6" stroke-width="2.5" stroke-linecap="round"/>
  <rect x="46" y="28" width="20" height="20" rx="4" fill="#1a1a1c" stroke="#22c55e" stroke-width="2.5" stroke-linecap="round"/>
  <rect x="70" y="28" width="20" height="20" rx="4" fill="#1a1a1c" stroke="#FCB53F" stroke-width="2.5" stroke-linecap="round"/>
  <rect x="22" y="52" width="20" height="20" rx="4" fill="#1a1a1c" stroke="#ffffff" stroke-width="2" stroke-linecap="round" opacity="0.5"/>
  <rect x="46" y="52" width="20" height="20" rx="4" fill="#1a1a1c" stroke="#FCB53F" stroke-width="2.5" stroke-linecap="round"/>
  <rect x="70" y="52" width="20" height="20" rx="4" fill="#1a1a1c" stroke="#f472b6" stroke-width="2" stroke-linecap="round" opacity="0.5"/>
  <circle cx="32" cy="38" r="4" fill="#f472b6" opacity="0.5"/>
  <circle cx="56" cy="38" r="4" fill="#22c55e" opacity="0.5"/>
  <circle cx="80" cy="38" r="4" fill="#FCB53F" opacity="0.5"/>
  <rect x="24" y="80" width="72" height="16" rx="4" fill="#1a1a1c" stroke="#22c55e" stroke-width="2.5" stroke-linecap="round"/>
  <line x1="32" y1="88" x2="44" y2="88" stroke="#FCB53F" stroke-width="2.5" stroke-linecap="round"/>
  <line x1="50" y1="88" x2="58" y2="88" stroke="#ffffff" stroke-width="2" stroke-linecap="round" opacity="0.5"/>
  <circle cx="66" cy="88" r="3" fill="#f472b6"/>
  <circle cx="76" cy="88" r="3" fill="#22c55e"/>
  <circle cx="86" cy="88" r="3" fill="#FCB53F"/>
</svg>