<svg xmlns="http://www.w3.org/2000/svg" viewBox="0 0 120 120" fill="none">
  <!-- SEO Local -->
  <!-- Search bar -->
  <rect x="20" y="25" width="80" height="16" rx="8" stroke="#FCB53F" stroke-width="2" fill="rgba(252,181,63,0.06)"/>
  <circle cx="30" cy="33" r="4" stroke="#FCB53F" stroke-width="1.5" fill="none"/>
  <line x1="33" y1="36" x2="36" y2="39" stroke="#FCB53F" stroke-width="1.5"/>
  <rect x="40" y="31" width="30" height="4" rx="2" fill="#FCB53F" opacity="0.2"/>
  <!-- Map pin -->
  <path d="M60 55 C60 55 45 65 45 75 C45 83 52 88 60 88 C68 88 75 83 75 75 C75 65 60 55 60 55Z" stroke="#FCB53F" stroke-width="2.5" fill="rgba(252,181,63,0.08)"/>
  <circle cx="60" cy="72" r="5" fill="#FCB53F" opacity="0.4"/>
  <!-- Map grid lines -->
  <line x1="20" y1="60" x2="40" y2="60" stroke="#FCB53F" stroke-width="0.8" opacity="0.2"/>
  <line x1="80" y1="60" x2="100" y2="60" stroke="#FCB53F" stroke-width="0.8" opacity="0.2"/>
  <line x1="20" y1="75" x2="42" y2="75" stroke="#FCB53F" stroke-width="0.8" opacity="0.2"/>
  <line x1="78" y1="75" x2="100" y2="75" stroke="#FCB53F" stroke-width="0.8" opacity="0.2"/>
  <!-- Stars (rating) -->
  <text x="35" y="105" font-size="11" fill="#FCB53F" opacity="0.6">★★★★★</text>
  <!-- #1 badge -->
  <circle cx="95" cy="50" r="10" stroke="#FCB53F" stroke-width="1.5" fill="rgba(252,181,63,0.12)"/>
  <text x="90" y="54" font-size="9" fill="#FCB53F" font-weight="bold">#1</text>
</svg>