<svg xmlns="http://www.w3.org/2000/svg" viewBox="0 0 120 120" fill="none">
  <!-- Chatbot WhatsApp con IA -->
  <!-- Phone -->
  <rect x="35" y="15" width="50" height="90" rx="8" stroke="#FCB53F" stroke-width="2.5" fill="rgba(252,181,63,0.06)"/>
  <rect x="40" y="25" width="40" height="65" rx="2" fill="rgba(252,181,63,0.04)" stroke="#FCB53F" stroke-width="0.8"/>
  <!-- Chat bubbles -->
  <rect x="43" y="30" width="25" height="10" rx="5" fill="rgba(252,181,63,0.15)" stroke="#FCB53F" stroke-width="1"/>
  <rect x="52" y="44" width="25" height="10" rx="5" fill="rgba(252,181,63,0.1)" stroke="#FCB53F" stroke-width="1"/>
  <rect x="43" y="58" width="30" height="10" rx="5" fill="rgba(252,181,63,0.15)" stroke="#FCB53F" stroke-width="1"/>
  <!-- Typing indicator -->
  <circle cx="50" cy="75" r="2" fill="#FCB53F" opacity="0.4"/>
  <circle cx="56" cy="75" r="2" fill="#FCB53F" opacity="0.6"/>
  <circle cx="62" cy="75" r="2" fill="#FCB53F" opacity="0.8"/>
  <!-- Brain icon (AI) -->
  <circle cx="95" cy="40" r="12" stroke="#FCB53F" stroke-width="1.5" fill="rgba(252,181,63,0.08)"/>
  <path d="M89 40 C89 36 92 34 95 34 C98 34 101 36 101 40 C101 44 98 46 95 46 C92 46 89 44 89 40" stroke="#FCB53F" stroke-width="1" fill="none"/>
  <circle cx="92" cy="38" r="1" fill="#FCB53F" opacity="0.5"/>
  <circle cx="98" cy="38" r="1" fill="#FCB53F" opacity="0.5"/>
  <!-- Connection line -->
  <path d="M85 40 C82 42 80 45 80 48" stroke="#FCB53F" stroke-width="1" stroke-dasharray="2 2" fill="none" opacity="0.5"/>
  <!-- 24/7 badge -->
  <circle cx="22" cy="80" r="10" stroke="#FCB53F" stroke-width="1.5" fill="rgba(252,181,63,0.1)"/>
  <text x="15" y="83" font-size="7" fill="#FCB53F" font-weight="bold">24/7</text>
</svg>