<svg xmlns="http://www.w3.org/2000/svg" viewBox="0 0 512 512" stroke-linecap="round" stroke-linejoin="round">
  <!-- Tax Audit - Magnifying glass over document + small calculator -->
  <!-- Document -->
  <rect x="80" y="80" width="240" height="320" rx="12" fill="#FFFFFF" stroke="#1A1B20" stroke-width="8"/>
  <!-- Document header -->
  <rect x="112" y="108" width="120" height="16" rx="8" fill="#FAB839" stroke="#1A1B20" stroke-width="4"/>
  <!-- Document lines -->
  <rect x="112" y="148" width="176" height="10" rx="5" fill="#A87C66" stroke="none"/>
  <rect x="112" y="172" width="160" height="10" rx="5" fill="#A87C66" stroke="none"/>
  <rect x="112" y="196" width="176" height="10" rx="5" fill="#A87C66" stroke="none"/>
  <rect x="112" y="220" width="140" height="10" rx="5" fill="#A87C66" stroke="none"/>
  <!-- Number columns -->
  <rect x="112" y="260" width="176" height="80" rx="8" fill="#FFFFFF" stroke="#1A1B20" stroke-width="4"/>
  <line x1="200" y1="260" x2="200" y2="340" stroke="#1A1B20" stroke-width="3"/>
  <line x1="112" y1="288" x2="288" y2="288" stroke="#1A1B20" stroke-width="3"/>
  <line x1="112" y1="316" x2="288" y2="316" stroke="#1A1B20" stroke-width="3"/>
  <!-- Magnifying glass -->
  <circle cx="320" cy="200" r="72" fill="none" stroke="#1A1B20" stroke-width="12"/>
  <circle cx="320" cy="200" r="72" fill="#79C143" stroke="#1A1B20" stroke-width="10" opacity="0.3"/>
  <line x1="368" y1="252" x2="420" y2="312" stroke="#1A1B20" stroke-width="14"/>
  <!-- Calculator -->
  <rect x="340" y="340" width="100" height="128" rx="12" fill="#FAB839" stroke="#1A1B20" stroke-width="8"/>
  <!-- Calculator screen -->
  <rect x="356" y="356" width="68" height="28" rx="6" fill="#FFFFFF" stroke="#1A1B20" stroke-width="4"/>
  <!-- Calculator buttons -->
  <rect x="356" y="396" width="20" height="20" rx="4" fill="#1A1B20" stroke="none"/>
  <rect x="384" y="396" width="20" height="20" rx="4" fill="#1A1B20" stroke="none"/>
  <rect x="412" y="396" width="20" height="20" rx="4" fill="#79C143" stroke="none"/>
  <rect x="356" y="424" width="20" height="20" rx="4" fill="#1A1B20" stroke="none"/>
  <rect x="384" y="424" width="20" height="20" rx="4" fill="#1A1B20" stroke="none"/>
  <rect x="412" y="424" width="20" height="20" rx="4" fill="#79C143" stroke="none"/>
  <rect x="356" y="452" width="20" height="20" rx="4" fill="#1A1B20" stroke="none"/>
  <rect x="384" y="452" width="20" height="20" rx="4" fill="#1A1B20" stroke="none"/>
  <rect x="412" y="452" width="20" height="20" rx="4" fill="#79C143" stroke="none"/>
</svg>