<svg xmlns="http://www.w3.org/2000/svg" viewBox="0 0 120 120" fill="none">
  <!-- Sistema de Reservas Online - Calendar -->
  <rect x="20" y="25" width="80" height="70" rx="6" stroke="#FCB53F" stroke-width="2.5" fill="rgba(252,181,63,0.06)"/>
  <!-- Calendar header -->
  <rect x="20" y="25" width="80" height="16" rx="6" fill="rgba(252,181,63,0.15)"/>
  <rect x="20" y="35" width="80" height="6" rx="0" fill="rgba(252,181,63,0.15)"/>
  <!-- Hooks -->
  <rect x="38" y="20" width="4" height="12" rx="2" fill="#FCB53F"/>
  <rect x="58" y="20" width="4" height="12" rx="2" fill="#FCB53F"/>
  <rect x="78" y="20" width="4" height="12" rx="2" fill="#FCB53F"/>
  <!-- Grid cells -->
  <rect x="28" y="48" width="14" height="12" rx="2" stroke="#FCB53F" stroke-width="0.8" opacity="0.3"/>
  <rect x="46" y="48" width="14" height="12" rx="2" stroke="#FCB53F" stroke-width="0.8" opacity="0.3"/>
  <rect x="64" y="48" width="14" height="12" rx="2" stroke="#FCB53F" stroke-width="0.8" opacity="0.3"/>
  <rect x="82" y="48" width="14" height="12" rx="2" stroke="#FCB53F" stroke-width="0.8" opacity="0.3"/>
  <rect x="28" y="64" width="14" height="12" rx="2" stroke="#FCB53F" stroke-width="0.8" opacity="0.3"/>
  <rect x="46" y="64" width="14" height="12" rx="2" fill="rgba(252,181,63,0.25)" stroke="#FCB53F" stroke-width="1.5"/>
  <rect x="64" y="64" width="14" height="12" rx="2" stroke="#FCB53F" stroke-width="0.8" opacity="0.3"/>
  <rect x="82" y="64" width="14" height="12" rx="2" fill="rgba(252,181,63,0.15)" stroke="#FCB53F" stroke-width="1"/>
  <rect x="28" y="80" width="14" height="12" rx="2" stroke="#FCB53F" stroke-width="0.8" opacity="0.3"/>
  <rect x="46" y="80" width="14" height="12" rx="2" stroke="#FCB53F" stroke-width="0.8" opacity="0.3"/>
  <!-- Clock icon -->
  <circle cx="100" cy="98" r="10" stroke="#FCB53F" stroke-width="1.5" fill="rgba(252,181,63,0.08)"/>
  <line x1="100" y1="93" x2="100" y2="98" stroke="#FCB53F" stroke-width="1.5" stroke-linecap="round"/>
  <line x1="100" y1="98" x2="104" y2="100" stroke="#FCB53F" stroke-width="1.5" stroke-linecap="round"/>
</svg>