<svg xmlns="http://www.w3.org/2000/svg" viewBox="0 0 120 120" fill="none">
  <!-- Dashboard Directivo - KPIs -->
  <rect x="15" y="20" width="90" height="60" rx="6" stroke="#FCB53F" stroke-width="2.5" fill="rgba(252,181,63,0.06)"/>
  <!-- Screen top bar -->
  <rect x="15" y="20" width="90" height="10" rx="6" fill="rgba(252,181,63,0.1)"/>
  <rect x="15" y="26" width="90" height="4" fill="rgba(252,181,63,0.1)"/>
  <circle cx="22" cy="25" r="2" fill="#FCB53F" opacity="0.5"/>
  <circle cx="29" cy="25" r="2" fill="#FCB53F" opacity="0.3"/>
  <!-- Chart bars -->
  <rect x="22" y="58" width="8" height="16" rx="2" fill="#FCB53F" opacity="0.4"/>
  <rect x="33" y="52" width="8" height="22" rx="2" fill="#FCB53F" opacity="0.5"/>
  <rect x="44" y="46" width="8" height="28" rx="2" fill="#FCB53F" opacity="0.6"/>
  <rect x="55" y="50" width="8" height="24" rx="2" fill="#FCB53F" opacity="0.5"/>
  <rect x="66" y="42" width="8" height="32" rx="2" fill="#FCB53F" opacity="0.7"/>
  <rect x="77" y="38" width="8" height="36" rx="2" fill="#FCB53F" opacity="0.85"/>
  <!-- KPI cards below -->
  <rect x="15" y="88" width="26" height="16" rx="3" stroke="#FCB53F" stroke-width="1.2" fill="rgba(252,181,63,0.06)"/>
  <rect x="47" y="88" width="26" height="16" rx="3" stroke="#FCB53F" stroke-width="1.2" fill="rgba(252,181,63,0.06)"/>
  <rect x="79" y="88" width="26" height="16" rx="3" stroke="#FCB53F" stroke-width="1.2" fill="rgba(252,181,63,0.06)"/>
  <!-- Trend arrows -->
  <polyline points="20,98 25,94 30,96 35,92" stroke="#22c55e" stroke-width="1.5" fill="none" stroke-linecap="round"/>
  <polyline points="52,98 57,95 62,93 67,90" stroke="#22c55e" stroke-width="1.5" fill="none" stroke-linecap="round"/>
  <polyline points="84,94 89,96 94,93 99,95" stroke="#FCB53F" stroke-width="1.5" fill="none" stroke-linecap="round"/>
</svg>