<svg xmlns="http://www.w3.org/2000/svg" viewBox="0 0 120 120" fill="none">
  <!-- Reservas Online - Calendar -->
  <rect x="22" y="25" width="76" height="70" rx="8" fill="#1a1a1c" stroke="#FCB53F" stroke-width="3"/>
  <rect x="22" y="25" width="76" height="18" rx="8" fill="#FCB53F"/>
  <rect x="22" y="37" width="76" height="6" fill="#FCB53F"/>
  <rect x="38" y="20" width="5" height="12" rx="2.5" fill="#1a1a1c"/>
  <rect x="58" y="20" width="5" height="12" rx="2.5" fill="#1a1a1c"/>
  <rect x="78" y="20" width="5" height="12" rx="2.5" fill="#1a1a1c"/>
  <rect x="30" y="50" width="13" height="11" rx="3" fill="#2a2a2e"/>
  <rect x="47" y="50" width="13" height="11" rx="3" fill="#2a2a2e"/>
  <rect x="64" y="50" width="13" height="11" rx="3" fill="#22c55e"/>
  <rect x="81" y="50" width="13" height="11" rx="3" fill="#2a2a2e"/>
  <rect x="30" y="66" width="13" height="11" rx="3" fill="#2a2a2e"/>
  <rect x="47" y="66" width="13" height="11" rx="3" fill="#f472b6" opacity="0.7"/>
  <rect x="64" y="66" width="13" height="11" rx="3" fill="#2a2a2e"/>
  <rect x="81" y="66" width="13" height="11" rx="3" fill="#2a2a2e"/>
  <rect x="30" y="82" width="13" height="11" rx="3" fill="#2a2a2e"/>
  <rect x="47" y="82" width="13" height="11" rx="3" fill="#2a2a2e"/>
  <text x="67" y="59" font-family="sans-serif" font-size="7" fill="#fff" font-weight="700">✓</text>
</svg>