<svg xmlns="http://www.w3.org/2000/svg" viewBox="0 0 120 120" fill="none">
  <!-- Sitio Web Corporativo -->
  <rect x="15" y="20" width="90" height="65" rx="6" stroke="#FCB53F" stroke-width="2.5" fill="rgba(252,181,63,0.06)"/>
  <!-- Browser bar -->
  <rect x="15" y="20" width="90" height="12" rx="6" fill="rgba(252,181,63,0.12)"/>
  <rect x="15" y="28" width="90" height="4" fill="rgba(252,181,63,0.12)"/>
  <circle cx="23" cy="26" r="2.5" fill="#FCB53F" opacity="0.4"/>
  <circle cx="31" cy="26" r="2.5" fill="#FCB53F" opacity="0.3"/>
  <circle cx="39" cy="26" r="2.5" fill="#FCB53F" opacity="0.2"/>
  <!-- URL bar -->
  <rect x="48" y="23" width="50" height="6" rx="3" fill="rgba(252,181,63,0.08)" stroke="#FCB53F" stroke-width="0.5"/>
  <!-- Content layout -->
  <rect x="22" y="38" width="35" height="5" rx="1" fill="#FCB53F" opacity="0.3"/>
  <rect x="22" y="46" width="50" height="3" rx="1" fill="#FCB53F" opacity="0.15"/>
  <rect x="22" y="52" width="45" height="3" rx="1" fill="#FCB53F" opacity="0.15"/>
  <!-- Image placeholder -->
  <rect x="22" y="60" width="36" height="20" rx="3" fill="rgba(252,181,63,0.1)" stroke="#FCB53F" stroke-width="1"/>
  <!-- Sidebar -->
  <rect x="64" y="38" width="34" height="42" rx="3" fill="rgba(252,181,63,0.05)" stroke="#FCB53F" stroke-width="0.8"/>
  <!-- Pages indicator -->
  <rect x="30" y="92" width="12" height="3" rx="1.5" fill="#FCB53F" opacity="0.6"/>
  <rect x="46" y="92" width="12" height="3" rx="1.5" fill="#FCB53F" opacity="0.3"/>
  <rect x="62" y="92" width="12" height="3" rx="1.5" fill="#FCB53F" opacity="0.3"/>
  <rect x="78" y="92" width="12" height="3" rx="1.5" fill="#FCB53F" opacity="0.3"/>
  <rect x="94" y="92" width="12" height="3" rx="1.5" fill="#FCB53F" opacity="0.3"/>
</svg>