<svg xmlns="http://www.w3.org/2000/svg" viewBox="0 0 120 120" fill="none">
  <!-- Integración de APIs -->
  <!-- Left system -->
  <rect x="10" y="40" width="30" height="40" rx="4" stroke="#FCB53F" stroke-width="2" fill="rgba(252,181,63,0.08)"/>
  <rect x="15" y="48" width="20" height="3" rx="1" fill="#FCB53F" opacity="0.3"/>
  <rect x="15" y="54" width="15" height="3" rx="1" fill="#FCB53F" opacity="0.2"/>
  <rect x="15" y="60" width="18" height="3" rx="1" fill="#FCB53F" opacity="0.2"/>
  <!-- Right system -->
  <rect x="80" y="40" width="30" height="40" rx="4" stroke="#FCB53F" stroke-width="2" fill="rgba(252,181,63,0.08)"/>
  <rect x="85" y="48" width="20" height="3" rx="1" fill="#FCB53F" opacity="0.3"/>
  <rect x="85" y="54" width="15" height="3" rx="1" fill="#FCB53F" opacity="0.2"/>
  <rect x="85" y="60" width="18" height="3" rx="1" fill="#FCB53F" opacity="0.2"/>
  <!-- Connection plug -->
  <circle cx="60" cy="60" r="14" stroke="#FCB53F" stroke-width="2.5" fill="rgba(252,181,63,0.1)"/>
  <text x="52" y="64" font-family="monospace" font-size="12" fill="#FCB53F" font-weight="bold">API</text>
  <!-- Arrows -->
  <line x1="40" y1="55" x2="46" y2="55" stroke="#FCB53F" stroke-width="2" stroke-linecap="round"/>
  <polyline points="44,52 47,55 44,58" stroke="#FCB53F" stroke-width="1.5" fill="none"/>
  <line x1="74" y1="65" x2="80" y2="65" stroke="#FCB53F" stroke-width="2" stroke-linecap="round"/>
  <polyline points="78,62 81,65 78,68" stroke="#FCB53F" stroke-width="1.5" fill="none"/>
  <!-- Data flow dots -->
  <circle cx="43" cy="65" r="1.5" fill="#FCB53F" opacity="0.6"/>
  <circle cx="47" cy="65" r="1.5" fill="#FCB53F" opacity="0.4"/>
  <circle cx="73" cy="55" r="1.5" fill="#FCB53F" opacity="0.6"/>
  <circle cx="77" cy="55" r="1.5" fill="#FCB53F" opacity="0.4"/>
</svg>