<svg xmlns="http://www.w3.org/2000/svg" viewBox="0 0 120 120" fill="none">
  <!-- IA Corporativa Privada - Brain + Lock -->
  <path d="M60 18 C38 18 28 35 28 50 C28 62 35 72 42 76 C44 86 50 92 60 92 C70 92 76 86 78 76 C85 72 92 62 92 50 C92 35 82 18 60 18Z" fill="#1a1a1c" stroke="#FCB53F" stroke-width="3"/>
  <circle cx="45" cy="42" r="4" fill="#f472b6"/>
  <circle cx="60" cy="38" r="4" fill="#FCB53F"/>
  <circle cx="75" cy="42" r="4" fill="#22c55e"/>
  <circle cx="52" cy="56" r="3.5" fill="#fff" opacity="0.5"/>
  <circle cx="68" cy="56" r="3.5" fill="#fff" opacity="0.5"/>
  <circle cx="60" cy="68" r="5" fill="#FCB53F"/>
  <line x1="45" y1="42" x2="60" y2="38" stroke="#FCB53F" stroke-width="1.5" opacity="0.5"/>
  <line x1="60" y1="38" x2="75" y2="42" stroke="#22c55e" stroke-width="1.5" opacity="0.5"/>
  <line x1="52" y1="56" x2="60" y2="68" stroke="#fff" stroke-width="1" opacity="0.4"/>
  <line x1="68" y1="56" x2="60" y2="68" stroke="#fff" stroke-width="1" opacity="0.4"/>
  <rect x="80" y="82" width="22" height="18" rx="4" fill="#1a1a1c" stroke="#f472b6" stroke-width="2.5"/>
  <path d="M84 82 L84 76 C84 72 87 69 91 69 C95 69 98 72 98 76 L98 82" stroke="#f472b6" stroke-width="2.5" fill="none"/>
  <circle cx="91" cy="91" r="3" fill="#f472b6"/>
</svg>