<svg xmlns="http://www.w3.org/2000/svg" viewBox="0 0 512 512" stroke-linecap="round" stroke-linejoin="round">
  <!-- Monthly Maintenance - Wrench + Shield with checkmark + Calendar "31" -->
  <!-- Wrench -->
  <path d="M80 380 L172 288 C164 260 172 228 196 204 C224 176 264 168 296 180 L260 216 L264 248 L296 252 L332 216 C344 248 336 288 308 316 C284 340 252 348 224 340 L132 432 C124 440 108 440 100 432 L80 412 C72 404 72 388 80 380 Z" fill="#FAB839" stroke="#1A1B20" stroke-width="8"/>
  <!-- Shield with checkmark -->
  <path d="M360 80 L312 100 L312 168 C312 220 336 260 360 280 C384 260 408 220 408 168 L408 100 Z" fill="#79C143" stroke="#1A1B20" stroke-width="8"/>
  <polyline points="336,172 352,192 384,152" fill="none" stroke="#FFFFFF" stroke-width="10"/>
  <!-- Calendar -->
  <rect x="340" y="320" width="120" height="120" rx="16" fill="#FFFFFF" stroke="#1A1B20" stroke-width="8"/>
  <!-- Calendar header -->
  <rect x="340" y="320" width="120" height="36" rx="16" fill="#A87C66" stroke="#1A1B20" stroke-width="6"/>
  <rect x="340" y="344" width="120" height="12" rx="0" fill="#A87C66" stroke="none"/>
  <!-- Calendar hooks -->
  <line x1="372" y1="308" x2="372" y2="332" stroke="#1A1B20" stroke-width="8"/>
  <line x1="428" y1="308" x2="428" y2="332" stroke="#1A1B20" stroke-width="8"/>
  <!-- "31" text -->
  <text x="400" y="412" font-family="Arial, sans-serif" font-size="48" font-weight="bold" fill="#1A1B20" stroke="none" text-anchor="middle">31</text>
</svg>